<?xml version="1.0" encoding="UTF-8"?>
<!-- Created with Inkscape (http://www.inkscape.org/) -->
<svg width="64" height="64" version="1.1" viewBox="0 0 16.933 16.933" xmlns="http://www.w3.org/2000/svg" xmlns:cc="http://creativecommons.org/ns#" xmlns:dc="http://purl.org/dc/elements/1.1/" xmlns:rdf="http://www.w3.org/1999/02/22-rdf-syntax-ns#">
 <metadata>
  <rdf:RDF>
   <cc:Work rdf:about="">
    <dc:format>image/svg+xml</dc:format>
    <dc:type rdf:resource="http://purl.org/dc/dcmitype/StillImage"/>
    <dc:title/>
   </cc:Work>
  </rdf:RDF>
 </metadata>
 <g fill="currentColor" stroke-width=".26458">
  <path id="bear" d="m11.147 12.506s1.1358 1.9799 1.3229 2.1167c0.2252 0.16452 0.66902 0.27972 0.79375 0.52917 0.12473 0.24945-0.26458 0.52917-0.26458 0.52917s-1.4045 0.13552-1.8521 0c-0.44761-0.13552-0.63391-0.5169-0.79375-0.79375-0.15984-0.27686-1.0583-2.1167-1.0583-2.1167h-2.9104l1.0583 1.8521s0.52917 0 0.79375 0.26458 0.13654 0.78229-0.26458 0.79375-1.682 4.93e-4 -1.8521 0-0.52917-0.52917-0.52917-0.52917l-1.3229-2.1167-1.0583 0.79375c-0.097142 0.07286-0.26458 0.79375-0.26458 0.79375l0.52917 0.26458c0.34271 0.17135 1e-7 0.79375-0.26458 0.79375h-0.79375c-0.12473 0-0.18783-0.16627-0.26458-0.26458-0.31648-0.40534-0.79375-1.3229-0.79375-1.3229-0.17355-0.35278-0.2677-0.79064 0-1.0583l1.5875-1.5875-0.52917-1.3229c-0.76856 0.20593-0.95574-0.81205-0.52917-1.0583 0 0 1.0162-0.77891 1.5875-1.0583 0.50107-0.24507 1.0369-0.43982 1.5875-0.52917 1.4799-0.24016 3.003 0.11432 4.4979 0 1.1566-0.088452 2.2829-0.44071 3.4396-0.52917 0-0.79375 1.0583-0.79375 1.0583 0 1.0583 0.26458 1.0583 0.52917 1.0583 1.0583 0.30282 0.25272 0.79375 0.26458 1.0583 0.52917s-1e-6 0.79375-0.26458 1.0583c-0.26458 0.26458-2.3812 0.52917-2.6458 0.52917-0.16869 0-2.1167 2.3812-2.1167 2.3812z" stroke="currentColor" stroke-linecap="round" stroke-linejoin="round" style="paint-order:stroke fill markers"/>
  <text id="question" x="12.86064" y="5.291667" font-family="sans-serif" font-size="10.583px" letter-spacing="0px" word-spacing="0px" style="line-height:1.25" xml:space="preserve"><tspan x="12.86064" y="5.291667" font-size="5.2917px" stroke-width=".26458">?</tspan></text>
 </g>
</svg>
