<?xml version="1.0" encoding="UTF-8" standalone="no"?>
<!-- Created with Inkscape (http://www.inkscape.org/) -->

<svg
   xmlns:dc="http://purl.org/dc/elements/1.1/"
   xmlns:cc="http://creativecommons.org/ns#"
   xmlns:rdf="http://www.w3.org/1999/02/22-rdf-syntax-ns#"
   xmlns:svg="http://www.w3.org/2000/svg"
   xmlns="http://www.w3.org/2000/svg"
   xmlns:sodipodi="http://sodipodi.sourceforge.net/DTD/sodipodi-0.dtd"
   xmlns:inkscape="http://www.inkscape.org/namespaces/inkscape"
   width="64"
   height="64"
   viewBox="0 0 16.933333 16.933333"
   version="1.1"
   id="svg8"
   inkscape:version="0.92.3 (2405546, 2018-03-11)"
   sodipodi:docname="logo_with_crack.svg">
  <defs
     id="defs2">
    <inkscape:path-effect
       effect="skeletal"
       id="path-effect5013"
       is_visible="true"
       pattern="m -13.739234,2.1466215 -0.264583,-0.529167 h 0.529166 z"
       copytype="single_stretched"
       prop_scale="1.7571344"
       scale_y_rel="false"
       spacing="0"
       normal_offset="0"
       tang_offset="0"
       prop_units="false"
       vertical_pattern="true"
       fuse_tolerance="0" />
    <inkscape:path-effect
       effect="skeletal"
       id="path-effect4792"
       is_visible="true"
       pattern="M 0.98555702,0.467721 0,0 0.02576,0.847506 Z"
       copytype="single_stretched"
       prop_scale="2.1958675"
       scale_y_rel="false"
       spacing="0"
       normal_offset="0"
       tang_offset="0"
       prop_units="false"
       vertical_pattern="false"
       fuse_tolerance="0" />
    <inkscape:path-effect
       effect="skeletal"
       id="path-effect4766"
       is_visible="true"
       pattern="M 0.19001,0.62509299 0,0.03425 0.373424,0 Z"
       copytype="single_stretched"
       prop_scale="0.1"
       scale_y_rel="false"
       spacing="0"
       normal_offset="0"
       tang_offset="0"
       prop_units="false"
       vertical_pattern="true"
       fuse_tolerance="0" />
    <inkscape:path-effect
       effect="spiro"
       id="path-effect4762"
       is_visible="true" />
    <inkscape:path-effect
       effect="skeletal"
       id="path-effect4760"
       is_visible="true"
       pattern="M 0,0 H 1"
       copytype="single_stretched"
       prop_scale="1"
       scale_y_rel="false"
       spacing="0"
       normal_offset="0"
       tang_offset="0"
       prop_units="false"
       vertical_pattern="false"
       fuse_tolerance="0" />
    <inkscape:path-effect
       effect="skeletal"
       id="path-effect4758"
       is_visible="true"
       pattern="M 0,0 H 1"
       copytype="single_stretched"
       prop_scale="1"
       scale_y_rel="false"
       spacing="0"
       normal_offset="0"
       tang_offset="0"
       prop_units="false"
       vertical_pattern="false"
       fuse_tolerance="0" />
    <inkscape:path-effect
       effect="skeletal"
       id="path-effect5013-8"
       is_visible="true"
       pattern="m 5.3599129,13.259088 -0.264583,-0.529167 h 0.529166 z"
       copytype="single_stretched"
       prop_scale="1.7571344"
       scale_y_rel="false"
       spacing="0"
       normal_offset="0"
       tang_offset="0"
       prop_units="false"
       vertical_pattern="true"
       fuse_tolerance="0" />
    <inkscape:path-effect
       effect="skeletal"
       id="path-effect5013-8-1"
       is_visible="true"
       pattern="m 25.400629,24.226526 -0.264583,-0.529167 h 0.529166 z"
       copytype="single_stretched"
       prop_scale="1.7571344"
       scale_y_rel="false"
       spacing="0"
       normal_offset="0"
       tang_offset="0"
       prop_units="false"
       vertical_pattern="true"
       fuse_tolerance="0" />
    <inkscape:path-effect
       effect="skeletal"
       id="path-effect5013-5"
       is_visible="true"
       pattern="m -2.5775871,13.259088 -0.264583,-0.529167 h 0.529166 z"
       copytype="single_stretched"
       prop_scale="1.9"
       scale_y_rel="false"
       spacing="0"
       normal_offset="0"
       tang_offset="0"
       prop_units="false"
       vertical_pattern="true"
       fuse_tolerance="0" />
    <inkscape:path-effect
       effect="skeletal"
       id="path-effect5013-8-1-3"
       is_visible="true"
       pattern="m 36.5621,35.339025 -0.264583,-0.529167 h 0.529166 z"
       copytype="single_stretched"
       prop_scale="1.7571344"
       scale_y_rel="false"
       spacing="0"
       normal_offset="0"
       tang_offset="0"
       prop_units="false"
       vertical_pattern="true"
       fuse_tolerance="0" />
    <inkscape:path-effect
       effect="skeletal"
       id="path-effect5013-8-1-3-7"
       is_visible="true"
       pattern="m 47.74561,46.451529 -0.264583,-0.529167 h 0.529166 z"
       copytype="single_stretched"
       prop_scale="3"
       scale_y_rel="false"
       spacing="0"
       normal_offset="0"
       tang_offset="0"
       prop_units="false"
       vertical_pattern="true"
       fuse_tolerance="0" />
  </defs>
  <sodipodi:namedview
     id="base"
     pagecolor="#ffffff"
     bordercolor="#666666"
     borderopacity="1.0"
     inkscape:pageopacity="0.0"
     inkscape:pageshadow="2"
     inkscape:zoom="11.313709"
     inkscape:cx="32.240859"
     inkscape:cy="33.592627"
     inkscape:document-units="mm"
     inkscape:current-layer="layer2"
     showgrid="true"
     units="px"
     showguides="false"
     inkscape:pagecheckerboard="true"
     inkscape:window-width="1853"
     inkscape:window-height="1025"
     inkscape:window-x="67"
     inkscape:window-y="27"
     inkscape:window-maximized="1"
     inkscape:snap-path-clip="true"
     inkscape:snap-path-mask="true"
     objecttolerance="20">
    <inkscape:grid
       type="xygrid"
       id="grid3778"
       originx="8.4666665"
       originy="8.4666665"
       enabled="true"
       snapvisiblegridlinesonly="true"
       visible="true" />
  </sodipodi:namedview>
  <metadata
     id="metadata5">
    <rdf:RDF>
      <cc:Work
         rdf:about="">
        <dc:format>image/svg+xml</dc:format>
        <dc:type
           rdf:resource="http://purl.org/dc/dcmitype/StillImage" />
        <dc:title></dc:title>
      </cc:Work>
    </rdf:RDF>
  </metadata>
  <g
     inkscape:groupmode="layer"
     id="layer2"
     inkscape:label="Layer 2"
     style="opacity:1">
    <path
       style="fill:currentColor;fill-opacity:1;stroke:currentColor;stroke-width:0.26458332;stroke-linecap:round;stroke-linejoin:round;stroke-miterlimit:4;stroke-dasharray:none;stroke-opacity:1;paint-order:stroke fill markers"
       d="m 10.917419,7.2693264 c 0,0 1.135761,1.979943 1.322917,2.1166668 0.225203,0.164518 0.669024,0.279715 0.79375,0.529166 0.124726,0.2494518 -0.264583,0.5291668 -0.264583,0.5291668 0,0 -1.404476,0.135525 -1.852084,0 C 10.469812,10.308801 10.283512,9.9274312 10.123669,9.6505762 9.9638274,9.3737212 9.0653366,7.5339094 9.0653366,7.5339094 H 6.1549199 l 1.0583333,1.8520838 c 0,0 0.5291664,0 0.79375,0.264583 0.2645836,0.264583 0.136542,0.7822898 -0.2645833,0.7937498 -0.4011253,0.01146 -1.6819973,4.93e-4 -1.8520833,0 C 5.7202506,10.443833 5.3611699,9.9151592 5.3611699,9.9151592 L 4.0382533,7.7984934 2.97992,8.5922434 C 2.882778,8.6651034 2.7153367,9.3859932 2.7153367,9.3859932 l 0.5291666,0.264583 c 0.342707,0.171353 1e-7,0.7937498 -0.2645833,0.7937498 H 2.1861701 c -0.1247255,0 -0.1878256,-0.166274 -0.2645833,-0.264583 -0.3164805,-0.4053408 -0.79375,-1.3229166 -0.79375,-1.3229166 -0.17355299,-0.352778 -0.26769679,-0.790636 0,-1.058333 l 1.5874999,-1.5875 -0.5291666,-1.322916 C 1.4176111,5.0940114 1.2304264,4.0760286 1.6570034,3.8297436 c 0,0 1.0161901,-0.7789146 1.5874999,-1.058333 0.5010718,-0.2450661 1.0369119,-0.4398185 1.5875,-0.5291666 1.4799457,-0.2401621 3.002976,0.1143229 4.4979161,0 1.1566406,-0.088452 2.2829436,-0.4407147 3.4395836,-0.5291667 0,-0.79375002 1.058333,-0.79375002 1.058333,0 1.058334,0.2645833 1.058334,0.5291666 1.058333,1.0583333 0.302815,0.2527221 0.793751,0.2645834 1.058334,0.5291667 0.264583,0.2645833 -10e-7,0.7937503 -0.264584,1.0583327 -0.264583,0.264583 -2.38125,0.5291674 -2.645833,0.5291674 -0.168691,0 -2.116667,2.381249 -2.116667,2.381249 z"
       id="bear"
       inkscape:connector-curvature="0"
       sodipodi:nodetypes="cszczzccczzzccscszsscscccsssccczzsc" />
    <path
       style="fill:currentColor;stroke-width:1.00843894"
       d="m 6,42 c -2.2159999,0 -4,1.784 -4,4 v 12 c 0,2.216 1.7840001,4 4,4 h 38.583984 c -0.20056,-0.328475 -0.399861,-0.668628 -0.599609,-1.021484 0.19386,-0.349875 0.388533,-0.698276 0.585937,-1.042969 -0.299327,-0.307022 -0.598746,-0.611852 -0.90039,-0.914063 0.109115,-0.296647 0.221179,-0.589722 0.33789,-0.880859 -0.281234,-0.0644 -0.559868,-0.118557 -0.83789,-0.164063 -0.295072,-0.381558 -0.596693,-0.784205 -0.902344,-1.205078 0.187053,-0.28168 0.381376,-0.573948 0.582031,-0.876953 0.488667,0.107906 0.977621,0.218103 1.464844,0.328125 0.10681,-0.324174 0.196801,-0.641149 0.271485,-0.949218 0.232463,-0.375349 0.473169,-0.724217 0.722656,-1.046876 -0.408919,-0.02532 -0.814866,-0.03579 -1.21875,-0.03125 -0.464493,-0.674434 -0.934322,-1.382277 -1.408203,-2.125 0.576026,-0.532161 1.148983,-1.072429 1.716797,-1.617187 -0.2826,-0.420106 -0.568994,-0.834541 -0.859376,-1.246094 0.229486,-0.387156 0.459054,-0.774829 0.689454,-1.160156 -0.253595,-0.185594 -0.508857,-0.355322 -0.763672,-0.511719 -0.370813,-0.882557 -0.739372,-1.789884 -1.107422,-2.722656 0.369819,-0.753899 0.737292,-1.520144 1.101562,-2.296875 C 43.388799,42.33753 43.316228,42.165846 43.242188,42 Z M 44.583984,62 H 58 c 2.216,0 4,-1.784 4,-4 V 46 c 0,-2.216 -1.784,-4 -4,-4 H 46.755859 c -0.07404,0.500814 -0.144658,0.995818 -0.214843,1.484375 -0.517867,0.488621 -1.034576,0.988551 -1.546875,1.5 0.316036,0.386563 0.632027,0.797594 0.945312,1.234375 0.183757,0.647255 0.367802,1.280386 0.552735,1.898438 -0.26919,0.410214 -0.538471,0.82013 -0.808594,1.228515 0.136153,0.514152 0.275997,1.023698 0.419922,1.529297 -0.705736,0.434105 -1.407942,0.87361 -2.105469,1.320312 0.34357,0.181989 0.691952,0.398158 1.044922,0.648438 0.421625,0.336053 0.841225,0.658589 1.257812,0.964844 -0.175925,0.714546 -0.361705,1.402597 -0.554687,2.064453 -0.379775,0.411757 -0.742203,0.8153 -1.089844,1.210937 -0.515373,-0.147934 -1.030993,-0.297218 -1.544922,-0.447265 -0.04664,0.02914 -0.09991,0.06865 -0.160156,0.11914 0.205784,0.202651 0.416434,0.426004 0.632812,0.667969 0.275161,0.19146 0.550329,0.372387 0.822266,0.544922 -0.109569,0.329095 -0.224669,0.654912 -0.341797,0.978516 0.249525,0.324733 0.500123,0.646897 0.751953,0.966796 -0.233061,0.358349 -0.466526,0.715163 -0.703125,1.06836 0.157641,0.327069 0.313853,0.66612 0.470703,1.017578 z"
       transform="scale(0.26458333)"
       id="ice"
       inkscape:connector-curvature="0" />
    <path
       style="opacity:1;fill:currentColor;fill-opacity:1;stroke:none;stroke-width:0.46490845px;stroke-linecap:butt;stroke-linejoin:miter;stroke-opacity:1;paint-order:markers fill stroke"
       d="m 11.796337,16.404171 c -0.03741,-0.09514 -0.07499,-0.184772 -0.112759,-0.268896 0.0666,-0.09376 0.132407,-0.188678 0.197406,-0.284768 -0.06219,-0.08585 -0.123858,-0.172789 -0.185,-0.260816 0.03174,-0.08814 0.06178,-0.17752 0.09009,-0.268143 -0.07108,-0.05577 -0.142892,-0.11581 -0.215427,-0.18012 -0.04988,-0.05096 -0.09738,-0.09303 -0.142479,-0.126232 0.0041,0.0083 0.0051,0.02135 0.003,0.03926 0.138342,0.04364 0.277009,0.0868 0.416004,0.129484 0.11451,-0.111366 0.23628,-0.226373 0.365309,-0.345021 0.04736,-0.201925 0.09087,-0.415751 0.130538,-0.641477 -0.11094,-0.107314 -0.223017,-0.221359 -0.336231,-0.342133 -0.08295,-0.02653 -0.163782,-0.03763 -0.242492,-0.03332 0.195923,-0.110193 0.3937,-0.21754 0.593332,-0.322044 -0.02511,-0.141772 -0.04846,-0.285476 -0.07005,-0.431113 0,0 0,0 0,0 0.07527,-0.110038 0.150327,-0.220489 0.22518,-0.331353 -0.04251,-0.203995 -0.08474,-0.414585 -0.126708,-0.631772 0,0 0,0 0,0 -0.07751,-0.07385 -0.155635,-0.13636 -0.234383,-0.187528 0,0 0,0 0,0 0.148878,-0.112634 0.299014,-0.220112 0.450407,-0.322434 0.03171,-0.158312 0.06429,-0.319393 0.09774,-0.483243 h -1.587498 c 0.03345,0.01254 0.06603,0.02785 0.09774,0.04592 -0.082,0.232469 -0.165259,0.459782 -0.249775,0.681938 0,0 0,10e-7 10e-7,10e-7 0.102254,0.297906 0.205129,0.584471 0.308624,0.859694 0,0 0,10e-7 0,10e-7 0.07407,-0.0046 0.147859,-0.0025 0.22138,0.0061 -0.05733,0.09962 -0.114456,0.199659 -0.171374,0.300108 0,0 0,0 0,1e-6 0.09126,0.09929 0.180764,0.200511 0.26851,0.303665 -0.137329,0.154487 -0.276512,0.30613 -0.41755,0.454928 0.137575,0.248982 0.273029,0.48254 0.406362,0.700674 0.105202,-0.03303 0.21154,-0.05934 0.319015,-0.07891 -0.0729,0.0487 -0.141949,0.109303 -0.20715,0.181805 0.0088,0.0718 0.01031,0.147247 0.0046,0.226331 -0.126275,-0.02556 -0.252878,-0.05065 -0.379806,-0.07526 -0.06751,0.105798 -0.131937,0.206776 -0.193293,0.302934 0.09022,0.131777 0.178044,0.254674 0.263479,0.36869 0,0 0,0 0,0 0.07383,-0.0016 0.14838,0.001 0.223659,0.008 -0.03155,0.07348 -0.0614,0.148207 -0.08953,0.224173 0.08469,0.07785 0.168854,0.156789 0.252494,0.236816 -0.0489,0.08993 -0.09699,0.18102 -0.144286,0.273282 0.0568,0.09577 0.113772,0.186042 0.170929,0.2708 z"
       id="crack"
       inkscape:connector-curvature="0"
       inkscape:path-effect="#path-effect5013-8-1-3-7"
       inkscape:original-d="m 11.906074,11.112504 v 0.264583 l -0.350091,0.502186 0.271504,0.523612 0.174044,0.318942 -0.198277,0.315731 0.169282,0.367389 -0.505441,0.388486 0.324427,0.366995 0.327623,0.131611 -0.168844,0.411641 -0.180366,0.285676 -0.397905,-0.102371 -0.09815,0.131838 0.202979,0.247461 0.219543,0.09404 -0.08981,0.246158 0.218747,0.248816 -0.170846,0.279025 0.141844,0.269848"
       sodipodi:nodetypes="cccccccccccccccccccc" />
  </g>
  <g
     inkscape:groupmode="layer"
     id="layer3"
     inkscape:label="Layer 3">
    <path
       style="opacity:1;fill:#000000;fill-opacity:1;stroke:none;stroke-width:0.26458332px;stroke-linecap:butt;stroke-linejoin:miter;stroke-opacity:1"
       d="m 21.579068,12.819555 -0.264583,-0.529167 h 0.529166 z"
       id="path4790"
       inkscape:connector-curvature="0"
       sodipodi:nodetypes="cccc" />
    <path
       style="opacity:1;fill:#ffffff;fill-opacity:1;stroke:none;stroke-width:0.46490845px;stroke-linecap:butt;stroke-linejoin:miter;stroke-opacity:1;paint-order:markers fill stroke"
       d="m 20.691515,16.882205 c 0.01275,-0.194619 0.02485,-0.391943 0.03629,-0.591972 -0.04819,-0.101557 -0.09689,-0.20134 -0.146092,-0.299351 0.06132,-0.09463 0.122196,-0.189894 0.18264,-0.285795 0,0 0,0 0,0 -0.0666,-0.08562 -0.132918,-0.171824 -0.198952,-0.258616 0.0287,-0.08694 0.05648,-0.174541 0.08333,-0.262815 -0.07308,-0.05056 -0.14655,-0.103414 -0.220412,-0.158573 -0.05555,-0.05611 -0.109816,-0.107431 -0.162791,-0.153968 0.01095,-0.0059 0.02025,-0.0092 0.02789,-0.0099 0.135979,0.03886 0.272135,0.07746 0.408466,0.115806 0,0 0,0 0,10e-7 0.0967,-0.10757 0.197317,-0.217102 0.301844,-0.328596 0.04855,-0.181137 0.09502,-0.368688 0.13942,-0.562651 -0.111231,-0.08451 -0.223074,-0.172648 -0.33553,-0.264413 -0.0931,-0.06005 -0.185061,-0.111787 -0.275876,-0.155213 0.184254,-0.117583 0.369507,-0.233634 0.55576,-0.348151 0,0 0,0 0,0 -0.03808,-0.134485 -0.07521,-0.270011 -0.111397,-0.406579 0.07085,-0.108202 0.141585,-0.216627 0.21221,-0.325274 -0.0494,-0.165098 -0.09866,-0.33375 -0.147773,-0.505956 0,0 0,-10e-7 0,-10e-7 -0.08385,-0.11377 -0.168044,-0.221428 -0.252567,-0.322974 0,0 0,0 0,0 0.134735,-0.135034 0.270148,-0.267289 0.406238,-0.396766 0.0182,-0.129522 0.03687,-0.260536 0.05601,-0.393043 h -0.929816 c 0.01914,0.04388 0.03781,0.08926 0.05601,0.136123 -0.0973,0.205314 -0.195285,0.407849 -0.293944,0.607606 0,0 0,0 0,0 0.09648,0.247529 0.193293,0.488946 0.290441,0.72425 0,0 0,0 0,0 0.06692,0.04042 0.13369,0.0844 0.200315,0.131927 -0.06156,0.10184 -0.123008,0.203903 -0.184344,0.306188 0.07667,0.108358 0.152392,0.217758 0.227167,0.328199 -0.150708,0.144473 -0.302415,0.287414 -0.455122,0.428821 0.125469,0.201238 0.249795,0.394165 0.372978,0.578779 0.10596,-0.004 0.212532,-0.0044 0.319716,-0.0012 -0.06816,0.08046 -0.134253,0.167341 -0.198268,0.260631 -0.01572,0.07896 -0.03535,0.159876 -0.05889,0.242756 0,0 0,0 0,0 -0.128939,-0.0299 -0.258054,-0.05955 -0.387344,-0.08894 -0.05779,0.0872 -0.113931,0.171803 -0.16841,0.253809 0.08234,0.118437 0.1634,0.232088 0.243167,0.340954 0.0725,0.0075 0.145391,0.01737 0.218674,0.02951 -0.03302,0.07583 -0.06512,0.152331 -0.09629,0.229501 0.0798,0.07909 0.159311,0.158758 0.238542,0.239016 0,0 0,0 0,10e-7 -0.05345,0.09012 -0.10647,0.180867 -0.159052,0.272254 0.05845,0.107903 0.117407,0.214034 0.17687,0.318391 0.009,0.189355 0.0186,0.381415 0.02889,0.57618 z"
       id="path5011-9"
       inkscape:connector-curvature="0"
       inkscape:path-effect="#path-effect5013-8-1"
       inkscape:original-d="m 20.785315,10.967438 v 0.264583 l -0.350091,0.502186 0.271504,0.523612 0.174044,0.318942 -0.198277,0.315731 0.169282,0.367389 -0.505441,0.388486 0.324427,0.366996 0.327623,0.131611 -0.168844,0.411641 -0.180366,0.285676 -0.397905,-0.102371 -0.09815,0.131838 0.202979,0.247461 0.219543,0.09404 -0.08981,0.246158 0.218747,0.248816 -0.170846,0.279025 0.161481,0.308871 -0.0037,0.584076"
       sodipodi:nodetypes="ccccccccccccccccccccc" />
  </g>
</svg>
