<?xml version="1.0" encoding="UTF-8"?>
<!DOCTYPE svg PUBLIC "-//W3C//DTD SVG 1.1//EN" "http://www.w3.org/Graphics/SVG/1.1/DTD/svg11.dtd">
<svg version="1.1" xmlns="http://www.w3.org/2000/svg" xmlns:xlink="http://www.w3.org/1999/xlink" x="0" y="0" width="766" height="1089" viewBox="0, 0, 766, 1089">
  <defs>
    <clipPath id="Clip_1">
      <path d="M0.06,0.04 L765.856,0.04 L765.856,1089 L0.06,1089 z"/>
    </clipPath>
  </defs>
  <g id="Layer_1">
    <g clip-path="url(#Clip_1)">
      <path d="M250.399,1082 L234.399,1049.5 L222.399,983.001 L237.399,919.501 L261.399,875.501 L284.399,849.501 L326.899,845.501 L394.399,854.501 L472.899,844.501 L502.899,851.501 L524.899,877.501 L540.399,904.001 L557.899,945.001 L564.399,1002 L557.899,1036 L549.399,1058.5 L532.399,1089 L251.899,1087.5 L250.399,1082" fill="#FEFEFE"/>
      <path d="M489.075,121.306 C487.563,112.458 486.925,103.741 487.792,94.96 C489.903,73.585 495.643,53.272 508.331,35.8 C527.923,8.82 555.729,-1.228 588.131,0.166 C638.411,2.329 675.619,39.892 689.775,82.611 C697.055,104.583 698.892,126.848 691.846,149.274 C685.045,170.923 671.063,186.444 650.817,196.457 C649.203,197.255 647.566,198.007 645.518,198.981 C654.988,206.805 664.09,214.557 672.508,223.095 C717.622,268.85 750.875,321.19 762.519,385.436 C770.092,427.223 765.027,467.28 744.742,504.961 C737.857,517.751 729.101,528.937 715.874,535.86 C714.388,536.638 713.328,537.129 714.799,539.074 C721.664,548.146 724.346,558.752 725.279,569.819 C726.705,586.713 726.328,603.474 719.07,619.277 C710.54,637.852 695.712,647.305 675.52,648.288 C671.656,648.476 670.27,649.545 669.31,653.32 C659.252,692.858 643.406,729.743 618.516,762.399 C590.997,798.502 555.884,824.549 513.793,841.256 C509.58,842.928 509.209,843.853 512.569,847.106 C526.234,860.333 536.343,876.135 544.782,893.063 C545.747,894.999 546.008,896.76 549.199,895.243 C563.242,888.568 574.881,896.412 574.284,911.904 C574.195,914.206 573.891,916.5 573.654,919.17 C582.85,916.807 591.97,915.251 598.727,923.369 C605.627,931.657 601.662,940.342 598.086,949.07 C602.026,948.802 605.716,948.21 609.452,949.238 C617.039,951.326 621.42,957.269 620.723,965.182 C620.107,972.168 617.363,978.364 613.251,983.949 C612.033,985.603 612.006,986.308 613.748,987.789 C620.191,993.265 621.429,999.634 617.739,1007.47 C613.729,1015.99 607.267,1022.39 599.587,1027.65 C589.465,1034.58 578.284,1039.21 566.534,1042.46 C563.471,1043.31 561.879,1044.73 560.999,1047.83 C558.726,1055.85 555.359,1063.46 551.241,1070.71 C548.029,1076.36 541.054,1078.47 535.955,1075.45 C531.299,1072.7 530.094,1066.6 533.145,1060.92 C535.329,1056.85 537.589,1052.82 538.947,1048.24 C533.107,1047.82 527.429,1047.92 521.947,1046.93 C506.647,1044.16 495.758,1035.37 488.865,1021.49 C481.88,1007.41 479.334,992.142 476.881,976.873 C474.876,964.387 473.09,951.846 474.824,939.145 C476.114,929.704 479.293,921.407 488.503,916.763 C500.163,910.884 510.91,914.912 515.659,927.054 C516.501,929.205 517.118,931.444 518.034,934.238 C522.216,927.16 525.477,920.161 530.055,913.982 C531.056,912.632 530.651,911.603 530.086,910.325 C521.602,891.139 510.596,873.756 495.52,858.898 C490.721,854.168 485.621,854.747 480.085,854.275 C474.923,853.836 472.749,855.093 472.695,860.752 C472.629,867.703 469.879,874.16 465.498,879.55 C463.071,882.537 461.994,885.659 461.243,889.298 C454.952,919.762 430.9,941.621 399.983,945.183 C370.504,948.579 337.117,923.776 331.851,894.471 C331.271,891.243 330.054,888.695 327.725,886.282 C321.069,879.386 317.392,870.863 315.633,861.54 C315.069,858.55 313.779,856.87 310.704,856.659 C309.711,856.591 308.634,856.579 307.756,856.184 C297.209,851.429 290.458,856.844 283.801,864.304 C259.558,891.474 246.488,923.772 239.91,959.015 C235.034,985.145 234.758,1011.28 241.838,1037.17 C244.083,1045.38 247.256,1053.21 251.369,1060.66 C254.622,1066.56 253.401,1072.84 248.561,1075.55 C243.432,1078.42 236.503,1076.21 233.333,1070.54 C223.929,1053.73 218.757,1035.51 217.086,1016.48 C212.434,963.466 224.603,914.474 253.443,869.698 C258.767,861.431 265.2,854.022 272.245,846.639 C259.412,841.974 247.126,836.997 235.312,830.881 C188.545,806.675 153.854,770.571 129.623,724.075 C117.813,701.412 109.169,677.575 102.917,652.836 C102.352,650.602 102.258,648.571 98.881,648.322 C72.491,646.373 56.641,632.993 50.424,606.701 C46.224,588.936 46.638,571.054 51.689,553.381 C53.163,548.222 55.888,543.673 58.601,538.923 C50.244,536.183 42.768,532.328 35.672,527.62 C15.56,514.275 7.25,494.1 2.825,471.579 C-3.519,439.295 1.488,408.026 11.222,377.197 C27.52,325.582 55.463,280.973 93.4,242.645 C149.522,185.944 216.336,146.582 292.361,123.192 C335.786,109.832 380.556,107.099 425.76,111.131 C446.509,112.982 466.994,116.351 487.227,121.292 C487.667,121.4 488.156,121.306 489.075,121.306" fill="#6E4100"/>
    </g>
    <path d="M627.89,707.462 C607.123,751.127 576.172,785.417 533.846,809.081 C500.208,827.888 463.699,837.322 425.628,841.327 C391.837,844.881 358.144,844.028 324.622,838.398 C272.269,829.605 225.622,809.177 188.02,770.66 C169.366,751.551 154.626,729.707 143.466,705.448 C144.917,704.17 146.281,705.023 147.611,705.664 C159.333,711.309 171.833,714.331 184.692,714.795 C196.819,715.232 208.577,712.782 218.669,705.257 C226.038,699.761 232.633,693.547 237.976,685.945 C246.432,673.914 247.963,660.998 242.897,647.513 C234.41,624.922 219.174,609.7 194.64,605.238 C190.996,604.576 187.337,604.879 183.685,604.721 C181.589,604.63 179.279,605.181 177.681,603.141 C177.542,600.881 179.378,600.057 180.806,599.019 C184.724,596.172 188.885,593.745 193.448,592.05 C195.325,591.353 197.17,590.549 198.627,589.12 C200.725,587.063 201.334,584.586 200.418,581.798 C199.445,578.837 197.168,577.768 194.24,577.716 C192.897,577.692 191.544,577.752 190.309,578.274 C178.377,583.317 167.427,589.785 159.019,599.928 C155.681,603.955 153.464,608.594 151.551,613.407 C148.851,617.079 144.653,618.988 141.397,622.036 C135.162,627.871 130.192,634.58 126.302,642.152 C124.697,645.277 124.605,645.23 122.094,644.444 C110.218,593.308 106.846,541.895 116.286,489.914 C122.817,453.948 132.169,418.884 147.768,385.708 C186.921,302.436 250.829,250.104 341.511,231.845 C395.352,221.004 446.891,229.95 496.07,252.953 C558.363,282.09 600.621,330.559 627.852,392.905 C644.147,430.214 653.779,469.344 659.003,509.611 C664.747,553.885 660.711,597.606 651.166,640.982 C651.059,641.468 650.857,641.932 650.699,642.407 C647.738,642.448 647.655,639.82 646.754,638.042 C639.282,623.306 629.098,611.271 613.754,604.174 C610.101,602.485 606.171,601.79 602.462,600.362 C599.986,599.197 598.325,597.062 596.386,595.253 C588.638,588.026 579.825,582.471 570.015,578.486 C569.085,578.109 568.117,577.872 567.116,577.781 C563.603,577.462 560.831,578.591 559.498,582.041 C558.286,585.175 559.752,588.715 563.05,590.45 C565.693,591.841 568.569,592.774 571.185,594.243 C572.749,595.121 574.615,595.695 575.112,597.777 C574.125,600.477 571.516,600.458 569.372,601.126 C544.606,608.841 527.56,624.659 519.451,649.431 C513.205,668.512 517.773,685.909 532.766,698.41 C556.683,718.35 584.327,723.404 614.211,713.023 C617.879,711.749 620.847,709.227 624.196,707.391 C625.263,706.807 626.733,704.905 627.89,707.462" fill="#FEF2DF"/>
    <path d="M135.918,231.508 C153.578,215.676 173.037,202.298 193.35,190.197 C230.456,168.091 269.109,149.424 311.389,139.304 C356.129,128.595 401.253,127.516 446.657,134.311 C508.56,143.575 565.14,166.121 616.097,202.506 C629.907,212.366 643.323,222.78 654.879,235.346 C662.433,246.297 664.012,259.162 665.979,271.747 C668.707,289.201 669.589,306.852 667.12,324.411 C664.583,342.451 660.022,359.971 650.267,375.686 C649.036,377.669 648.159,380.401 644.988,380.322 C633.645,356.165 620.38,333.172 603.615,312.32 C560.852,259.129 505.545,226.68 439.074,212.438 C332.999,189.709 207.229,238.464 144.345,347.913 C141.036,353.673 137.936,359.554 134.738,365.378 C131.181,365.197 130.847,362.144 130.035,359.782 C124.951,344.979 120.747,330.096 120.16,314.177 C119.294,290.722 121.118,267.757 128.208,245.296 C129.843,240.117 132.255,235.493 135.918,231.508" fill="#FEFEFE"/>
    <path d="M627.89,707.462 C625.575,706.754 624.445,708.759 622.946,709.743 C609.198,718.762 594.106,720.653 578.132,718.7 C564.27,717.005 550.997,713.503 539.373,705.601 C522.929,694.421 513.826,679.024 515.983,658.706 C517.399,645.374 523.308,633.619 532.223,623.521 C542.948,611.373 555.812,602.678 571.886,599.223 C572.993,598.985 574.13,598.538 574.784,597.439 C583.167,600.356 588.936,606.236 593.231,613.765 C593.889,614.92 594.208,616.251 594.903,617.393 C596.784,620.484 599.513,621.735 602.988,620.618 C606.524,619.483 607.832,616.792 607.467,613.2 C607.136,609.941 605.232,607.323 603.915,604.462 C603.197,602.903 601.455,601.524 602.787,599.484 C625.276,604.409 639.059,619.386 648.578,639.235 C649.151,640.428 649.326,641.787 650.699,642.406 C645.629,664.98 638.331,686.772 627.89,707.462" fill="#FFD7BA"/>
    <path d="M177.874,602.424 C179.683,604.262 181.989,603.417 184.03,603.365 C217.646,602.502 240.213,627.048 246.52,655.553 C248.302,663.605 247.402,672.166 243.148,679.778 C234.282,695.642 222.162,707.954 204.456,713.569 C190.601,717.962 176.745,716.315 162.931,712.629 C156.188,710.829 149.895,707.999 143.467,705.448 C133.914,685.963 127.099,665.52 122.094,644.443 C124.127,645.543 124.277,643.639 124.748,642.633 C130.528,630.268 139.45,620.725 150.828,613.358 C152.63,616.767 153.679,620.975 158.725,621.007 C163.792,621.04 164.906,616.866 166.82,613.447 C168.675,610.132 170.81,606.971 173.678,604.414 C174.859,603.361 175.881,601.826 177.874,602.424" fill="#FFD7BA"/>
    <path d="M507.941,104.449 C509.034,79.544 514.767,56.227 533.491,38.36 C549.319,23.256 569.166,18.952 590.326,20.84 C615.311,23.07 635.331,34.904 650.964,54.363 C652.415,57.15 651.631,59.813 650.665,62.549 C646.349,74.768 638.066,84.001 628.171,91.838 C609.411,106.697 588.037,114.978 564.119,116.977 C551.137,118.061 538.26,118.576 525.407,115.911 C520.764,114.948 516.597,113.016 512.576,110.596 C510.161,109.142 508.53,107.22 507.941,104.449" fill="#FEFEFE"/>
    <path d="M96.05,485.542 C94.818,494.091 93.477,502.626 92.418,511.197 C92.072,513.996 90.713,515.725 88.492,517.114 C80.472,522.13 72.012,521.655 63.554,518.779 C42.888,511.752 30.158,497.553 24.888,476.283 C18.62,450.983 19.609,425.905 25.946,400.835 C32.445,375.129 41.928,350.611 55.002,327.513 C58.002,328.457 56.996,330.871 56.88,332.862 C55.057,363.882 55.384,394.746 63.74,425 C69.275,445.042 77.976,463.364 93.061,478.158 C95.104,480.161 97.1,482.254 96.05,485.542" fill="#FEFEFE"/>
    <path d="M556.772,911.383 C556.104,917.841 553.519,923.419 551.563,929.174 C550.069,933.571 548.328,937.907 547.174,942.393 C546.012,946.916 546.784,951.143 551.515,953.433 C556.094,955.65 559.869,954.18 562.995,950.428 C567.07,945.535 571.993,941.562 577.002,937.696 C578.994,936.158 581.136,934.918 584.296,935.313 C583.236,940.489 580.583,944.815 577.871,949.033 C574.908,953.64 571.695,958.101 568.382,962.466 C564.828,967.148 564.292,971.596 567.213,975.132 C570.236,978.792 574.292,979.219 579.848,976.471 C587.107,972.88 594.038,968.546 602.093,966.461 C600.828,971.983 597.465,976.92 591.067,982.323 C588.405,984.571 585.424,986.441 582.723,988.649 C579.168,991.556 578.363,995.429 580.29,999.416 C582.242,1003.45 585.852,1005 590.309,1003.99 C593.361,1003.3 596.282,1001.94 599.865,1002.28 C599.175,1005.5 596.781,1007.32 594.646,1009.14 C582.005,1019.96 566.715,1024.87 550.861,1028.38 C544.685,1029.75 538.412,1030.47 532.046,1030.38 C518.49,1030.19 509.022,1024.07 503.596,1011.54 C499.33,1001.69 497.108,991.329 495.335,980.833 C493.311,968.86 491.162,956.897 491.834,944.662 C492.028,941.145 492.585,937.699 494.204,934.536 C494.91,933.158 496.152,932.065 497.763,932.16 C499.431,932.259 499.433,933.972 499.828,935.145 C501.866,941.201 501.959,947.576 502.807,953.828 C503.097,955.967 503.417,958.102 503.696,960.243 C504.2,964.115 506.332,966.592 510.048,967.735 C513.902,968.919 516.875,967.368 519.39,964.625 C525.177,958.312 529.379,950.942 533.296,943.405 C538.21,933.951 543.167,924.536 550.434,916.59 C552.211,914.647 553.894,912.594 556.772,911.383" fill="#FEF8EA"/>
    <path d="M686.882,270.34 C694.557,280.216 702.136,290.158 707.879,301.344 C711.319,310.141 712.111,319.461 713.18,328.711 C715.021,344.646 714.787,360.69 714.043,376.618 C712.804,403.126 707.918,428.89 693.636,452.001 C689.818,458.178 684.802,463.253 679.465,468.045 C677.903,469.447 676.249,471.059 673.758,470.47 C669.977,456.606 667.323,442.448 662.859,428.761 C659.785,419.334 656.736,409.899 653.675,400.468 C653.901,399.472 654.319,398.551 655.054,397.85 C669.028,384.528 675.093,367.143 680.18,349.218 C685.788,329.454 687.697,309.402 685.594,288.939 C685.135,284.482 685.065,279.98 684.599,275.505 C684.4,273.595 683.772,271.004 686.882,270.34" fill="#FEFEFE"/>
    <path d="M78.755,291.353 C85.968,281.017 94.362,271.665 102.886,262.422 C106.29,263.461 104.931,266.156 104.673,268.196 C102.963,281.732 102.119,295.293 102.272,308.951 C102.567,335.253 109.303,359.831 121.434,383.032 C122.688,385.429 124.024,387.703 123.006,390.529 C114.091,412.551 106.938,435.129 101.637,458.292 C98.521,458.553 97.397,456.044 95.982,454.087 C87.021,441.691 82.205,427.518 78.829,412.828 C72.994,387.441 72.329,361.724 74.248,335.838 C75.075,324.677 76.54,313.637 79.046,302.748 C79.943,298.85 78.33,295.158 78.755,291.353" fill="#FEFEFE"/>
    <path d="M734.73,358.465 C744.497,389.854 748.953,421.704 741.775,454.265 C737.787,472.354 731.543,489.716 720.432,504.826 C713.955,513.633 706.102,520.613 694.103,520.459 C690.035,520.406 686.326,518.747 682.372,518.281 C680.366,518.045 680.811,516.461 680.642,515.255 C679.628,508.015 678.65,500.769 677.66,493.526 C676.736,490.911 678.743,489.85 680.385,488.889 C704.914,474.534 716.906,451.46 724.35,425.361 C728.556,410.616 730.794,395.511 731.604,380.161 C731.91,374.363 732.457,368.577 732.545,362.758 C732.57,361.14 732.067,358.895 734.73,358.465" fill="#FEFEFE"/>
    <path d="M78.755,291.353 C81.328,295.428 81.181,299.648 80.202,304.269 C74.801,329.771 73.71,355.527 75.717,381.505 C77.249,401.342 80.877,420.63 88.958,438.891 C92.108,446.009 95.704,452.942 101.637,458.292 C99.775,467.376 97.912,476.459 96.05,485.542 C95.966,483.45 95.082,481.883 93.501,480.411 C73.324,461.625 64.391,437.202 58.912,411.066 C55.351,394.079 54.32,376.785 54.319,359.557 C54.318,350.345 53.839,340.931 55.629,331.714 C55.892,330.358 56.401,328.728 55.002,327.513 C62.066,314.899 69.73,302.679 78.755,291.353" fill="#BEBEBE"/>
    <path d="M734.73,358.465 C732.889,360.826 733.926,363.561 733.843,366.107 C732.987,392.433 729.882,418.35 719.795,442.968 C711.727,462.659 699.98,479.381 680.941,490.063 C679.52,490.861 677.955,491.617 677.66,493.526 C676.36,485.841 675.059,478.156 673.758,470.471 C691.693,458.395 700.167,440.198 705.794,420.33 C713.876,391.798 714.017,362.668 712.115,333.345 C711.414,322.544 708.747,312.079 707.879,301.344 C715.117,311.282 720.133,322.437 725.274,333.5 C729.028,341.577 732.126,349.936 734.73,358.465" fill="#BEBEBE"/>
    <path d="M507.941,104.449 C513.422,111.569 521.306,114.398 529.649,115.343 C565.485,119.404 598.958,113.514 627.887,90.357 C637.211,82.892 645.082,74.141 649.225,62.606 C650.185,59.934 651.113,57.264 650.964,54.363 C656.979,61.4 661.76,69.212 665.578,77.629 C664.052,84.212 659.877,89.287 655.495,93.997 C634.914,116.117 609.931,130.345 579.965,135.539 C570.445,137.189 560.801,137.502 551.251,138.758 C547.772,139.215 544.37,138.084 540.905,138.31 C533.425,135.625 525.974,132.853 518.452,130.287 C514.321,128.877 512.857,125.225 511.276,121.901 C508.678,116.443 507.773,110.513 507.941,104.449" fill="#BEBEBE"/>
    <path d="M540.905,138.31 C547.493,136.542 554.297,137.293 560.988,136.636 C575.898,135.173 590.742,133.156 604.626,127.442 C629.893,117.043 651.446,101.799 665.578,77.629 C667.207,81.134 669.116,84.533 669.704,88.435 C664.998,107.789 656.903,125.464 643.884,140.717 C635.184,150.91 625.135,159.188 611.858,162.571 C606.607,163.909 601.331,165.778 595.725,164.598 C577.988,154.717 559.857,145.659 540.905,138.31" fill="#FEFEFE"/>
    <path d="M686.882,270.34 C684.547,272.204 685.762,274.727 686,276.821 C687.317,288.394 688.138,299.985 687.603,311.624 C686.46,336.514 680.463,360.164 668.832,382.256 C665.098,389.348 660.274,395.685 653.675,400.468 C650.779,393.753 647.883,387.037 644.988,380.322 C654.216,369.938 657.898,356.987 661.693,344.103 C668.287,321.713 667.775,298.996 665.135,276.095 C663.511,262.01 659.922,248.52 654.879,235.346 C666.898,245.775 677.178,257.794 686.882,270.34" fill="#BEBEBE"/>
    <path d="M123.006,390.529 C123.005,389.003 122.587,387.633 121.81,386.288 C103.579,354.758 98.271,320.67 101.585,284.816 C102.182,278.365 102.603,271.911 103.754,265.525 C103.95,264.436 104.216,263.161 102.886,262.422 C113.197,251.37 123.98,240.822 135.918,231.508 C125.545,250.72 123.11,271.676 121.539,293.036 C119.821,316.401 123.544,338.689 131.758,360.419 C132.448,362.243 132.687,364.362 134.738,365.378 C130.827,373.762 126.917,382.145 123.006,390.529" fill="#BEBEBE"/>
    <path d="M595.725,164.598 C606.928,162.418 618.252,160.767 627.896,153.77 C644.597,141.653 655.014,125.055 662.777,106.361 C665.238,100.435 665.826,93.796 669.704,88.435 C674.982,102.001 677.068,115.957 674.828,130.44 C664.423,152.252 648.899,168.986 626.636,179.046 C624.801,179.875 622.916,180.37 620.901,180.346 C612.509,175.097 604.117,169.847 595.725,164.598" fill="#BEBEBE"/>
    <path d="M355.091,898.658 C370.193,898.609 382.595,892.91 393.413,883.385 C394.528,882.403 395.316,881.832 396.734,883.057 C408.423,893.157 422.379,895.544 437.232,894.802 C437.362,894.795 437.501,894.971 437.635,895.062 C433.877,909.639 414.701,923.428 396.354,924.747 C381.162,925.839 361.611,913.713 355.091,898.658" fill="#D3A0F2"/>
    <path d="M705.305,584.339 C705.395,591.137 704.654,599.568 701.707,607.65 C697.761,618.474 690.473,625.523 678.799,627.471 C676.32,627.885 674.918,628.015 675.538,624.407 C679.829,599.44 682.217,574.285 681.918,548.926 C681.881,545.823 683.287,545.344 685.836,545.401 C693.152,545.565 697.999,549.202 700.92,555.738 C704.751,564.31 705.306,573.407 705.305,584.339" fill="#FEF8EA"/>
    <path d="M68.373,585.804 C68.407,573.354 69.015,564.603 72.52,556.323 C75.013,550.435 79.038,546.443 85.691,545.531 C88.893,545.092 90.471,545.541 90.446,549.458 C90.326,567.576 91.412,585.641 93.811,603.611 C94.645,609.86 95.531,616.105 96.56,622.324 C97.514,628.088 97.288,628.303 91.485,626.696 C81.277,623.867 75.291,616.824 71.878,607.209 C69.007,599.118 68.337,590.704 68.373,585.804" fill="#FEF8EA"/>
    <path d="M337.147,861.108 C352.264,862.632 367.281,863.774 382.515,863.841 C378.599,871.669 363.65,879.201 354.627,878.156 C345.729,877.125 339.29,870.975 337.147,861.108" fill="#D3A0F2"/>
    <path d="M620.901,180.346 C644.467,171.213 660.92,154.342 672.875,132.575 C673.351,131.708 673.768,130.778 674.828,130.44 C673.61,154.258 655.781,174.895 630.175,182.507 C626.361,183.641 623.462,183.364 620.901,180.346" fill="#FEFDFD"/>
    <path d="M452.181,858.416 C451.687,864.76 448.816,868.905 443.789,871.624 C435.084,876.332 419.258,874.86 411.503,868.623 C410.225,867.595 408.539,866.613 408.847,864.698 C409.245,862.216 411.576,863.186 412.953,863.076 C425.877,862.045 438.754,860.658 452.181,858.416" fill="#D3A0F2"/>
    <path d="M428.062,732.484 C426.431,750.155 422.423,767.029 412.888,782.149 C407.757,790.286 400.866,796.033 390.456,795.362 C382.632,794.859 376.632,790.625 371.745,784.98 C358.257,769.4 351.071,751.046 349.107,730.663 C348.766,727.133 348.146,725.095 344.395,723.934 C339.652,722.465 337.784,718.198 339.213,714.112 C340.64,710.03 344.936,707.786 349.413,709.612 C365.238,716.068 381.308,714.959 397.539,711.866 C401.289,711.152 405.094,710.55 408.898,710.332 C419.344,709.734 425.054,714.253 427.128,724.609 C427.647,727.202 427.763,729.877 428.062,732.484" fill="#6E4100"/>
    <path d="M215.822,556.546 C217.487,541.261 225.985,528.18 240.497,519.067 C243.445,517.216 243.835,516.056 242.167,513.088 C239.949,509.139 239.348,504.576 239.183,500.07 C239.036,496.073 240.924,493.192 245.05,492.701 C249.17,492.21 251.65,494.456 252.402,498.491 C252.705,500.121 252.686,501.81 252.964,503.446 C254.131,510.307 256.479,512.279 263.352,512.28 C278.795,512.28 293.631,523.305 298.276,538.232 C299.873,543.364 297.599,548.498 292.756,550.693 C287.964,552.866 282.553,551.183 279.744,546.619 C279.31,545.914 279,545.134 278.62,544.396 C272.243,532.008 262.34,529.336 250.614,536.963 C242.183,542.448 237.34,550.249 236.032,560.253 C235.188,566.714 230.901,570.626 225.231,570.235 C219.188,569.818 215.48,565.226 215.822,556.546" fill="#6E4100"/>
    <path d="M547.659,559.154 C547.743,565.258 543.608,569.955 537.892,570.247 C532.241,570.535 527.784,566.543 527.071,560.114 C525.904,549.575 520.597,541.755 511.684,536.373 C500.308,529.504 490.899,532.245 484.901,544.106 C483.174,547.522 481.155,550.454 477.229,551.306 C473.416,552.135 469.899,551.345 467.207,548.346 C464.245,545.048 463.79,541.111 465.429,537.173 C469.171,528.18 474.874,520.731 483.781,516.309 C486.522,514.948 487.102,513.876 485.318,511.214 C483.961,509.189 483.187,506.719 482.43,504.358 C481.071,500.115 482.593,496.642 486.152,495.355 C489.861,494.014 493.114,495.651 494.855,499.75 C495.179,500.513 495.441,501.302 495.75,502.072 C498.157,508.07 501.19,512.205 508.742,513.589 C529.792,517.445 547.38,538.82 547.659,559.154" fill="#6E4100"/>
    <path d="M251.885,769.002 C253.672,755.085 256.101,740.218 260.269,725.685 C265.721,706.678 273.393,688.74 285.983,673.239 C287.97,670.794 290.133,668.439 292.501,666.37 C295.804,663.484 300.433,663.703 303.411,666.535 C306.528,669.498 306.949,674.448 303.811,677.804 C282.095,701.035 274.553,730.068 269.783,760.266 C269.189,764.026 268.466,767.767 267.936,771.535 C267.057,777.782 264.347,780.637 259.376,780.364 C254.299,780.084 251.747,776.586 251.885,769.002" fill="#F5CEA8"/>
    <path d="M533.645,771.127 C533.714,774.758 534.354,778.45 532.828,781.966 C531.088,785.976 526.892,788.21 523.167,787.014 C518.967,785.665 516.508,781.583 517.318,777.36 C519.063,768.265 516.487,759.516 514.618,750.853 C510.27,730.697 504.548,710.934 494.946,692.511 C493.175,689.113 491.281,685.836 488.9,682.802 C485.459,678.416 486.055,673.706 490.18,670.546 C493.963,667.649 498.263,668.409 501.801,672.82 C510.477,683.639 515.295,696.412 519.873,709.258 C526.065,726.631 530.618,744.451 533.582,762.655 C534.031,765.409 533.645,768.299 533.645,771.127" fill="#F5CEA8"/>
    <path d="M177.874,602.424 C172.905,605.962 169.205,610.622 166.896,616.175 C165.045,620.627 162.174,623.133 157.422,622.261 C152.764,621.407 150.268,618.37 150.829,613.359 C153.607,601.774 161.603,594.179 170.734,587.509 C176.39,583.376 182.575,580.138 189.006,577.378 C194.565,574.993 199.632,576.364 201.478,580.7 C203.633,585.764 201.771,590 195.63,592.406 C189.203,594.924 183.488,598.547 177.874,602.424" fill="#F5CEA8"/>
    <path d="M602.787,599.484 C604.499,602.87 606.336,606.2 607.893,609.656 C610.326,615.053 608.744,619.766 604.026,621.777 C599.304,623.79 594.955,621.559 592.84,615.964 C590.833,610.654 587.201,606.679 582.724,603.364 C580.071,601.399 577.431,599.414 574.785,597.439 C571.187,595.737 567.641,593.914 563.98,592.362 C558.911,590.213 556.45,585.84 558.025,581.35 C559.558,576.98 565.022,575.058 570.218,577.19 C581.707,581.906 591.975,588.453 600.495,597.593 C601.165,598.311 602.019,598.858 602.787,599.484" fill="#F5CEA8"/>
    <path d="M240.687,363.813 C241.285,368.318 239.627,371.426 235.125,372.423 C230.965,373.345 227.763,370.946 226.463,366.237 C223.093,354.029 234.695,336.479 249.288,331.747 C256.726,329.335 263.731,330.262 270.146,334.775 C271.622,335.813 273.032,337.087 274.105,338.526 C276.369,341.562 276.289,344.825 273.766,347.637 C271.099,350.608 267.458,351.432 264.417,348.817 C259.926,344.955 255.6,343.777 250.531,347.275 C244.704,351.295 240.261,356.138 240.687,363.813" fill="#6E4100"/>
    <path d="M519.804,363.341 C520.226,355.696 512.434,346.321 504.851,345.239 C501.969,344.828 499.801,345.865 497.64,347.707 C493.606,351.145 489.535,350.988 486.642,347.614 C483.803,344.3 484.278,340.034 488.101,336.616 C495.03,330.422 503.104,328.626 511.708,332.032 C523.937,336.872 531.859,345.708 534.388,358.914 C534.8,361.067 534.737,363.181 534.241,365.328 C533.025,370.597 530.198,373.051 525.803,372.51 C521.416,371.971 519.491,369.028 519.804,363.341" fill="#6E4100"/>
    <path d="M177.121,546.373 C180.889,545.81 185.187,547.127 189.387,548.754 C193.614,550.392 195.639,554.433 194.402,558.324 C192.914,563.002 189.366,565.641 184.926,564.158 C174.911,560.814 166.471,562.886 158.684,569.779 C155.335,572.745 150.467,571.861 147.478,568.518 C144.903,565.638 145.074,560.764 148.042,557.715 C155.763,549.78 165.209,546.044 177.121,546.373" fill="#F5CEA8"/>
    <path d="M613.823,563.379 C614.295,566.943 612.386,569.078 609.518,570.543 C606.387,572.142 603.236,571.841 600.675,569.551 C593.24,562.902 585.037,560.804 575.378,564.01 C570.716,565.557 566.881,563.051 565.33,558.35 C564.005,554.329 566.224,550.309 570.734,548.562 C584.323,543.299 601.304,546.994 611.3,557.28 C613.026,559.056 614.252,560.855 613.823,563.379" fill="#F5CEA8"/>
    <path d="M382.159,605.251 C382.326,605.252 382.492,605.248 382.658,605.253 C391.185,605.5 400.21,621.017 396.198,628.53 C392.608,635.252 383.292,635.809 378.768,629.44 C376.658,626.47 374.733,623.317 373.124,620.051 C369.61,612.921 374.367,605.276 382.159,605.251" fill="#6E4100"/>
    <path d="M376.55,729.565 C385.728,729.777 395.679,727.589 405.698,726.015 C412.216,724.991 413.072,725.376 412.593,732.163 C411.575,746.578 408.089,760.42 400.59,772.91 C394.97,782.271 389.944,782.589 382.707,774.297 C374.561,764.965 369.719,753.886 366.496,742.037 C363.115,729.61 363.121,729.608 376.55,729.565" fill="#FEFEFE"/>
  </g>
</svg>
