<?xml version="1.0" encoding="UTF-8"?>
<svg version="1.1" viewBox="0 0 35 35" xml:space="preserve" xmlns="http://www.w3.org/2000/svg" xmlns:cc="http://creativecommons.org/ns#" xmlns:dc="http://purl.org/dc/elements/1.1/" xmlns:rdf="http://www.w3.org/1999/02/22-rdf-syntax-ns#">
  <g transform="matrix(1.25 0 0 -1.25 0 35)">
<g transform="matrix(.32503 0 0 .32503 -100.86 -132.32)"><g transform="translate(362.96 472.25)"><path d="m-1.604 0c0-4.0442-3.2788-7.323-7.323-7.323-4.0434 0-7.323 3.2788-7.323 7.323s3.2796 7.323 7.323 7.323c4.0442 0 7.323-3.2788 7.323-7.323" fill="#fff" fill-rule="evenodd" stroke="black" stroke-width="2.0191"/></g><g transform="translate(362.69 459.83)"><path d="m0 0c-1.353 0.946-3.808 1.721-5.458 1.721h-6c-1.65 0-4.105-0.775-5.458-1.721l-0.084-0.059c-1.353-0.946-2.458-3.07-2.458-4.72v-11.625c0-1.651 0.562-4.097 1.25-5.438 0.687-1.341 1.475-2.437 1.75-2.437s0.722-1.332 0.993-2.959l2.014-12.082c0.271-1.627 1.506-2.959 2.743-2.959h4.5c1.237 0 2.472 1.332 2.743 2.959l2.014 12.082c0.271 1.627 0.718 2.959 0.993 2.959s1.062 1.096 1.75 2.437c0.687 1.341 1.25 3.787 1.25 5.438v11.625c0 1.65-1.105 3.774-2.458 4.72l-0.084 0.059z" fill="#fff" fill-rule="evenodd" stroke="black" stroke-width="2.4613"/></g></g></g>
<metadata><rdf:RDF><cc:Work><dc:format>image/svg+xml</dc:format><dc:type rdf:resource="http://purl.org/dc/dcmitype/StillImage"/><cc:license rdf:resource="http://creativecommons.org/publicdomain/zero/1.0/"/><dc:publisher><cc:Agent rdf:about="http://openclipart.org/"><dc:title>Openclipart</dc:title></cc:Agent></dc:publisher><dc:title/><dc:date>2013-05-07T09:49:53</dc:date><dc:description>Icon for representing a person</dc:description><dc:source>https://openclipart.org/detail/177854/person-icon-by-thekua-177854</dc:source><dc:creator><cc:Agent><dc:title>thekua</dc:title></cc:Agent></dc:creator><dc:subject><rdf:Bag><rdf:li>person icon people</rdf:li></rdf:Bag></dc:subject></cc:Work><cc:License rdf:about="http://creativecommons.org/publicdomain/zero/1.0/"><cc:permits rdf:resource="http://creativecommons.org/ns#Reproduction"/><cc:permits rdf:resource="http://creativecommons.org/ns#Distribution"/><cc:permits rdf:resource="http://creativecommons.org/ns#DerivativeWorks"/></cc:License></rdf:RDF></metadata></svg>
