<?xml version="1.0" encoding="UTF-8" standalone="no"?>
<svg
   xmlns:dc="http://purl.org/dc/elements/1.1/"
   xmlns:cc="http://creativecommons.org/ns#"
   xmlns:rdf="http://www.w3.org/1999/02/22-rdf-syntax-ns#"
   xmlns:svg="http://www.w3.org/2000/svg"
   xmlns="http://www.w3.org/2000/svg"
   xmlns:sodipodi="http://sodipodi.sourceforge.net/DTD/sodipodi-0.dtd"
   xmlns:inkscape="http://www.inkscape.org/namespaces/inkscape"
   id="svg2"
   xml:space="preserve"
   viewBox="0 0 35 35"
   version="1.1"
   sodipodi:docname="person_edited.svg"
   inkscape:version="0.92.3 (2405546, 2018-03-11)"><defs
   id="defs13" /><sodipodi:namedview
   pagecolor="#ffffff"
   bordercolor="#666666"
   borderopacity="1"
   objecttolerance="10"
   gridtolerance="10"
   guidetolerance="10"
   inkscape:pageopacity="0"
   inkscape:pageshadow="2"
   inkscape:window-width="1853"
   inkscape:window-height="1025"
   id="namedview11"
   showgrid="false"
   inkscape:zoom="13.485714"
   inkscape:cx="-2.1153807"
   inkscape:cy="16.608698"
   inkscape:window-x="67"
   inkscape:window-y="27"
   inkscape:window-maximized="1"
   inkscape:current-layer="g5704"
   inkscape:pagecheckerboard="true" />
  <g
   id="g10"
   transform="matrix(1.25 0 0 -1.25 0 35)">
<g
   id="g6008"
   transform="matrix(.32503 0 0 .32503 -100.86 -132.32)"><g
     id="g5704"
     transform="translate(362.96 472.25)"><path
       id="path5706"
       d="m -1.604001,0 c 0,-4.0441789 -3.2788201,-7.322999 -7.322999,-7.322999 -4.043359,0 -7.322999,3.2788201 -7.322999,7.322999 0,4.0441789 3.27964,7.322999 7.322999,7.322999 4.0441789,0 7.322999,-3.2788201 7.322999,-7.322999"
       style="fill:#ffffff;fill-opacity:1;fill-rule:evenodd;stroke:#6f6c6d;stroke-width:2.01906347;stroke-miterlimit:4;stroke-dasharray:none;stroke-opacity:1"
       inkscape:connector-curvature="0" /></g><g
     id="g5708"
     transform="translate(362.69 459.83)"><path
       id="path5710"
       fill-rule="evenodd"
       fill="#6f6c6d"
       d="m0 0c-1.353 0.946-3.808 1.721-5.458 1.721h-6c-1.65 0-4.105-0.775-5.458-1.721l-0.084-0.059c-1.353-0.946-2.458-3.07-2.458-4.72v-11.625c0-1.651 0.562-4.097 1.25-5.438 0.687-1.341 1.475-2.437 1.75-2.437s0.722-1.332 0.993-2.959l2.014-12.082c0.271-1.627 1.506-2.959 2.743-2.959h4.5c1.237 0 2.472 1.332 2.743 2.959l2.014 12.082c0.271 1.627 0.718 2.959 0.993 2.959s1.062 1.096 1.75 2.437c0.687 1.341 1.25 3.787 1.25 5.438v11.625c0 1.65-1.105 3.774-2.458 4.72l-0.084 0.059z"
       style="stroke:#6f6c6d;stroke-opacity:1;fill:#ffffff;fill-opacity:1;stroke-width:2.46131126;stroke-miterlimit:4;stroke-dasharray:none" /></g></g></g>
<metadata
   id="metadata8"><rdf:RDF><cc:Work><dc:format>image/svg+xml</dc:format><dc:type
         rdf:resource="http://purl.org/dc/dcmitype/StillImage" /><cc:license
         rdf:resource="http://creativecommons.org/publicdomain/zero/1.0/" /><dc:publisher><cc:Agent
           rdf:about="http://openclipart.org/"><dc:title>Openclipart</dc:title></cc:Agent></dc:publisher><dc:title></dc:title><dc:date>2013-05-07T09:49:53</dc:date><dc:description>Icon for representing a person</dc:description><dc:source>https://openclipart.org/detail/177854/person-icon-by-thekua-177854</dc:source><dc:creator><cc:Agent><dc:title>thekua</dc:title></cc:Agent></dc:creator><dc:subject><rdf:Bag><rdf:li>person icon people</rdf:li></rdf:Bag></dc:subject></cc:Work><cc:License
       rdf:about="http://creativecommons.org/publicdomain/zero/1.0/"><cc:permits
         rdf:resource="http://creativecommons.org/ns#Reproduction" /><cc:permits
         rdf:resource="http://creativecommons.org/ns#Distribution" /><cc:permits
         rdf:resource="http://creativecommons.org/ns#DerivativeWorks" /></cc:License></rdf:RDF></metadata></svg>