<?xml version="1.0" encoding="UTF-8"?>
<!-- Created with Inkscape (http://www.inkscape.org/) -->
<svg width="800" height="180" version="1.1" viewBox="0 0 211.67 47.625" xmlns="http://www.w3.org/2000/svg" xmlns:cc="http://creativecommons.org/ns#" xmlns:dc="http://purl.org/dc/elements/1.1/" xmlns:rdf="http://www.w3.org/1999/02/22-rdf-syntax-ns#">
 <metadata>
  <rdf:RDF>
   <cc:Work rdf:about="">
    <dc:format>image/svg+xml</dc:format>
    <dc:type rdf:resource="http://purl.org/dc/dcmitype/StillImage"/>
    <dc:title/>
   </cc:Work>
  </rdf:RDF>
 </metadata>
 <g transform="translate(0 -249.37)">
  <text x="7.5557261" y="289.45566" fill="#ffffff" font-family="sans-serif" font-size="10.583px" letter-spacing="0px" stroke-width=".26458" word-spacing="0px" style="line-height:1.25" xml:space="preserve"><tspan x="7.5557261" y="289.45566" fill="#ffffff" font-family="sans-serif" font-size="42.333px" font-weight="bold" stroke-width=".26458">FATHOM</tspan></text>
  <text x="42.161766" y="301.00903" fill="#000000" font-family="sans-serif" font-size="10.583px" letter-spacing="0px" stroke-width=".26458" word-spacing="0px" style="line-height:1.25" xml:space="preserve"><tspan x="42.161766" y="310.3728" stroke-width=".26458"/></text>
  <path d="m34.637 276.36s1.8654-1.0583 4.9423-1.0583 8.1202 3.1106 11.945 3.1752 6.4196-1.5879 6.4196-1.5879l2.4494 6.6148s-3.6136 0.82573-8.9075 0.79375c-5.2939-0.032-8.9182-2.6458-11.906-2.6458-2.988 0-7.5911 1.8521-7.5911 1.8521z" fill="#005cc2"/>
  <path d="m57.744 276.36s-1.8654-1.0583-4.9423-1.0583-8.1202 3.1106-11.945 3.1752-6.4196-1.5879-6.4196-1.5879l-2.4494 6.6148s3.6136 0.82573 8.9075 0.79375c5.2939-0.032 8.9182-2.6458 11.906-2.6458s7.5911 1.8521 7.5911 1.8521z" fill="#489fff"/>
 </g>
</svg>
