<?xml version="1.0" encoding="UTF-8"?>
<!-- Created with Inkscape (http://www.inkscape.org/) -->
<svg width="241.72" height="241.72" version="1.1" viewBox="0 0 226.61 226.61" xmlns="http://www.w3.org/2000/svg" xmlns:cc="http://creativecommons.org/ns#" xmlns:dc="http://purl.org/dc/elements/1.1/" xmlns:rdf="http://www.w3.org/1999/02/22-rdf-syntax-ns#">
 <metadata>
  <rdf:RDF>
   <cc:Work rdf:about="">
    <dc:format>image/svg+xml</dc:format>
    <dc:type rdf:resource="http://purl.org/dc/dcmitype/StillImage"/>
    <dc:title/>
   </cc:Work>
  </rdf:RDF>
 </metadata>
 <g transform="translate(-94.443 -208.1)" fill="#d5d5d5ff" stroke="black">
  <circle cx="145.87" cy="244.64" r="15.617" stroke-width=".9375"/>
  <circle cx="158.44" cy="232.83" r="13.332" stroke-width=".8003"/>
  <circle cx="175.96" cy="228.26" r="11.808" stroke-width=".70884"/>
  <circle cx="190.81" cy="227.88" r="14.094" stroke-width=".84604"/>
  <circle cx="211" cy="224.84" r="12.189" stroke-width=".73171"/>
  <circle cx="228.52" cy="227.88" r="13.713" stroke-width=".82317"/>
  <circle cx="247.19" cy="233.6" r="13.713" stroke-width=".82317"/>
  <circle cx="267.37" cy="239.69" r="15.998" stroke-width=".96037"/>
  <circle cx="277.28" cy="256.07" r="13.713" stroke-width=".82317"/>
  <circle cx="289.47" cy="266.74" r="9.1417" stroke-width=".54878"/>
  <circle cx="287.94" cy="276.64" r="9.1417" stroke-width=".54878"/>
  <circle cx="296.7" cy="288.83" r="15.236" stroke-width=".91463"/>
  <circle cx="298.99" cy="307.11" r="11.808" stroke-width=".70884"/>
  <circle cx="303.56" cy="322.35" r="10.284" stroke-width=".61738"/>
  <circle cx="298.23" cy="334.92" r="7.2372" stroke-width=".43445"/>
  <circle cx="297.47" cy="351.3" r="14.094" stroke-width=".84604"/>
  <circle cx="292.13" cy="369.96" r="11.808" stroke-width=".70884"/>
  <circle cx="281.09" cy="376.82" r="9.9035" stroke-width=".59451"/>
  <circle cx="273.09" cy="389.77" r="9.9035" stroke-width=".59451"/>
  <circle cx="261.66" cy="399.29" r="13.332" stroke-width=".8003"/>
  <circle cx="242.23" cy="409.58" r="11.046" stroke-width=".66311"/>
  <circle cx="230.81" cy="410.34" r="11.046" stroke-width=".66311"/>
  <circle cx="215.19" cy="416.05" r="12.189" stroke-width=".73171"/>
  <circle cx="197.67" cy="415.29" r="13.713" stroke-width=".82317"/>
  <circle cx="179" cy="412.62" r="10.284" stroke-width=".61738"/>
  <circle cx="166.82" cy="417.57" r="10.284" stroke-width=".61738"/>
  <circle cx="159.58" cy="406.15" r="11.808" stroke-width=".70884"/>
  <circle cx="145.1" cy="395.48" r="14.474" stroke-width=".8689"/>
  <circle cx="136.72" cy="381.39" r="9.1417" stroke-width=".54878"/>
  <circle cx="126.44" cy="374.15" r="11.427" stroke-width=".68598"/>
  <circle cx="120.34" cy="357.39" r="11.808" stroke-width=".70884"/>
  <circle cx="115.77" cy="343.3" r="14.474" stroke-width=".8689"/>
  <circle cx="114.63" cy="323.87" r="11.427" stroke-width=".68598"/>
  <circle cx="114.25" cy="307.87" r="14.855" stroke-width=".89177"/>
  <circle cx="114.25" cy="289.97" r="9.1417" stroke-width=".54878"/>
  <circle cx="123.01" cy="283.11" r="9.1417" stroke-width=".54878"/>
  <circle cx="119.58" cy="273.97" r="10.665" stroke-width=".64024"/>
  <circle cx="131.77" cy="261.02" r="10.665" stroke-width=".64024"/>
 </g>
</svg>
