<?xml version="1.0" encoding="UTF-8"?>
<!-- Created with Inkscape (http://www.inkscape.org/) -->
<svg width="275" height="90" version="1.1" viewBox="0 0 257.81 84.375" xmlns="http://www.w3.org/2000/svg" xmlns:cc="http://creativecommons.org/ns#" xmlns:dc="http://purl.org/dc/elements/1.1/" xmlns:rdf="http://www.w3.org/1999/02/22-rdf-syntax-ns#">
 <metadata>
  <rdf:RDF>
   <cc:Work rdf:about="">
    <dc:format>image/svg+xml</dc:format>
    <dc:type rdf:resource="http://purl.org/dc/dcmitype/StillImage"/>
    <dc:title/>
   </cc:Work>
  </rdf:RDF>
 </metadata>
 <g transform="translate(-94.443 -350.34)">
  <path d="m103.82 430.03c9.375 4.6875 220.31 4.6875 234.37 4.6875 14.063-1e-5 12.5-23.438 4.6875-23.438-5.625 0-12.486-0.0952-19.398 0.22855-2.6469 0.124-20.387-0.67767-26.429-0.68482-9.7331-0.0115-19.499 0.76689-21.673 0.45627-6.5625-0.93749-6.8858-2.1836-11.88-3.9043s-23.745-14.846-28.83-16.5c-15.037-4.8917-32.818-17.715-36.758-21.823-4.7417-4.9432-20.835-9.3353-28.469-9.3353-5.102 0-8.4375 0-15.554-1.1727-9.2749-1.5284-18.567 0.56711-26.148 1.1727-11.736 0.9375-23.923 1e-5 -23.923 1e-5s-9.375 65.625 0 70.312z" fill="#94836c"/>
  <path d="m97.256 374.72c2.8125 0.9375 67.5-5.625 100.66-5.6647-4.7417-4.9432-20.835-9.3353-28.469-9.3353-5.102 0-8.4375 0-15.554-1.1727-9.2749-1.5284-18.567 0.56711-26.148 1.1727-11.736 0.9375-22.048-4.6875-26.736-0.93746-4.2617 3.4093-6.5625 15-3.75 15.938z" fill="#0fb55e"/>
  <g fill="#7d6344">
   <path d="m225.69 411.28c-0.90586-1.0222-1.8549-2.0077-2.7176-3.0666-0.1134-0.13922 0.12698-0.41172 0-0.53868-0.12696-0.12697-0.41171 0.12696-0.53867 0-0.0635-0.0635 0.0635-0.20586 0-0.26935-0.0635-0.0635-0.18904 0.0402-0.26935 0-0.11356-0.0568-0.15577-0.21255-0.26933-0.26934-0.16061-0.0803-0.41172 0.12697-0.53869 0-0.0635-0.0635 0.0635-0.20585 0-0.26934-0.0635-0.0635-0.17956 0-0.26933 0h-0.26935-3.5014-2.1547c-0.0898 0-0.20586-0.0635-0.26934 0-0.0635 0.0635 0.0635 0.20586 0 0.26934-0.0648 0.0648-1.0126-0.0648-1.0774 0-0.0635 0.0635 0.0635 0.20586 0 0.26934-0.13467 0.13468-0.67336-0.13467-0.80803 0-0.12697 0.12697 0.0803 0.37808 0 0.53869-0.0568 0.11356-0.21256 0.15577-0.26934 0.26934-0.0401 0.0803 0.0401 0.18904 0 0.26934-0.0568 0.11356-0.21256 0.15578-0.26934 0.26934-0.0534 0.10679 0.055 0.75296 0 0.80802-0.0635 0.0635-0.20586-0.0635-0.26934 0-0.12697 0.12697 0.12697 0.41172 0 0.53868-0.0635 0.0635-0.20586-0.0635-0.26934 0-0.0122 0.0122 0 1.2197 0 1.3467v2.4241 0.26934c0 0.0898-0.0635 0.20586 0 0.26934 0.0635 0.0635 0.20586-0.0635 0.26934 0 0.12697 0.12697-0.12697 0.41171 0 0.53868 0.0635 0.0635 0.18903-0.0401 0.26934 0 1.1209 0.56047-0.28793-0.0186 0.26934 0.53868 0.12697 0.12697 0.41172-0.12697 0.53868 0 0.0635 0.0635-0.0635 0.20586 0 0.26935 0.0635 0.0635 0.20586-0.0635 0.26935 0 0.0635 0.0635-0.0635 0.20585 0 0.26934 0.0635 0.0635 0.20585-0.0635 0.26934 0 0.0635 0.0635-0.0635 0.20585 0 0.26934 0.0635 0.0635 0.20586-0.0635 0.26933 0 0.12698 0.12697-0.12696 0.41171 0 0.53868 0.12698 0.12697 0.41172-0.12697 0.53869 0 0.0635 0.0635-0.0635 0.20586 0 0.26934 0.0635 0.0635 0.20586-0.0635 0.26934 0 0.0635 0.0635-0.0635 0.20586 0 0.26934 0.12697 0.12697 0.41171-0.12697 0.53868 0 0.0635 0.0635-0.0635 0.20586 0 0.26934 0.12697 0.12697 0.41172-0.12697 0.53868 0 0.0635 0.0635-0.0635 0.20586 0 0.26934 0.0834 0.0834 1.2633-0.0834 1.3467 0 0.0635 0.0635-0.0635 0.20586 0 0.26934 0.0635 0.0635 0.17956 0 0.26933 0h0.26935 3.5014c0.0989 0 1.0665-0.0108 1.0774 0 0.0635 0.0635-0.0635 0.20586 0 0.26934 0.0635 0.0635 0.17955 0 0.26934 0h1.3467c0.0898 0 0.20586 0.0635 0.26934 0 0.0635-0.0635-0.0635-0.20585 0-0.26934 0.12697-0.12696 0.41172 0.12697 0.53868 0 0.0635-0.0635-0.0635-0.20585 0-0.26934 0.0635-0.0635 0.20586 0.0635 0.26934 0 0.0635-0.0635-0.0635-0.20585 0-0.26934 0.0635-0.0635 0.17956 0 0.26935 0 0-0.0898-0.0635-0.20586 0-0.26934 0.0635-0.0635 0.20585 0.0635 0.26934 0 0.0635-0.0635-0.0635-0.20586 0-0.26934 0.0635-0.0635 0.20586 0.0635 0.26934 0 0.12697-0.12697-0.12697-0.41171 0-0.53868 0.0635-0.0635 0.20585-0.0635 0.26934 0 0.0635 0.0635-0.0635 0.20585 0 0.26934 0.0635 0.0635 0.17956 0 0.26934 0h0.26934c0.74585 0-0.20717 0.26934 0.53869 0.26934 0.0989 0 1.0665-0.0108 1.0774 0 0.0635 0.0635-0.0635 0.20586 0 0.26934 0.0635 0.0635 0.17956 0 0.26934 0h1.8854c0.0653 0 0.79936 9e-3 0.80802 0 0.0635-0.0635 0-0.17956 0-0.26934v-1.616c0-0.12699 0.0122-1.3345 0-1.3467-0.0635-0.0635-0.20585 0.0635-0.26933 0-0.0635-0.0635 0.0401-0.18904 0-0.26934-0.0568-0.11357-0.21256-0.15578-0.26934-0.26934-0.0804-0.16061 0.12696-0.41172 0-0.53868-0.0635-0.0635-0.20586 0.0635-0.26935 0-0.12696-0.12697 0.12698-0.41172 0-0.53869-0.0635-0.0635-0.20585 0.0635-0.26933 0-0.12698-0.12697 0.12696-0.41171 0-0.53868-0.0635-0.0635-0.20587 0.0635-0.26935 0-0.0635-0.0635 0.0635-0.20586 0-0.26934-0.0635-0.0635-0.17955 0-0.26934 0h-1.616-0.26935c-0.0898 0-0.20585 0.0635-0.26934 0-0.0635-0.0635 0.0635-0.20586 0-0.26934-0.0635-0.0635-0.17956 0-0.26933 0h-0.26935c-0.62471 0-0.18064 0.0139-1.3225-0.16547z" fill-opacity=".6365"/>
   <path d="m281.94 420.65c0.0428-1e-3 2.0561 0.45089 2.4422-0.32128 0.0803-0.1606-0.12697-0.41171 0-0.53868 0.0635-0.0635 0.20585 0.0635 0.26934 0 0.0737-0.0737-0.073-0.93125 0-1.0774 0.0568-0.11357 0.21256-0.15578 0.26934-0.26935 0.0354-0.0708 0-0.93652 0-1.0774 0-0.0898 0.0635-0.20586 0-0.26934-0.0635-0.0635-0.17956 0-0.26934 0h-0.26934-3.7708c-0.0653 0-0.79936 9e-3 -0.80802 0-0.0635-0.0635 0.0635-0.20586 0-0.26934-0.0834-0.0834-1.2633 0.0834-1.3467 0-0.0635-0.0635 0.0635-0.20586 0-0.26934-0.0834-0.0834-1.2633 0.0834-1.3467 0-0.0635-0.0635 0.0635-0.20586 0-0.26934-0.0834-0.0834-1.2633 0.0834-1.3467 0-0.0635-0.0635 0.0635-0.20586 0-0.26934-0.0635-0.0635-0.17957 0-0.26934 0h-0.26935-1.8854c-0.0898 0-0.20586-0.0635-0.26934 0-0.0635 0.0635 0.0635 0.20585 0 0.26934-0.12697 0.12697-0.37808-0.0803-0.53869 0-1.1209 0.56046 0.28794-0.0186-0.26934 0.53868-0.55727 0.55728 0.0217-0.85159-0.53868 0.26934-0.0354 0.0708 0 0.93652 0 1.0774 0 0.0653-8e-3 0.79936 0 0.80803 0.0635 0.0635 0.20586-0.0635 0.26935 0 0.0635 0.0635-0.0635 0.20585 0 0.26934 0.0635 0.0635 0.20585-0.0635 0.26933 0 0.0635 0.0635-0.0635 0.20585 0 0.26934 0.0635 0.0635 0.20586-0.0635 0.26934 0 0.0635 0.0635-0.0635 0.20586 0 0.26934 0.0635 0.0635 0.20586-0.0635 0.26935 0 0.0635 0.0635-0.0635 0.20586 0 0.26934 0.12696 0.12697 0.41171-0.12697 0.53868 0 0.0635 0.0635-0.0635 0.20586 0 0.26934 0.12697 0.12697 0.37808-0.0803 0.53868 0 0.11356 0.0568 0.15578 0.21256 0.26934 0.26934 0.14612 0.0731 1.0037-0.0737 1.0774 0 0.0635 0.0635-0.0635 0.20586 0 0.26934 0.0648 0.0648 1.0126-0.0648 1.0774 0 0.0635 0.0635-0.0635 0.20586 0 0.26934 0.0648 0.0648 1.0126-0.0648 1.0774 0 0.0635 0.0635-0.0635 0.20586 0 0.26935 0.0635 0.0635 0.17956 0 0.26935 0h0.26933c0.19092 0 1.5464 0.0348 1.616 0 0.66565-0.33283-0.093-0.26935 0.53868-0.26935h0.26935c0.0898 0 0.20585 0.0635 0.26933 0 0.0635-0.0635-0.0635-0.20585 0-0.26934 0.0635-0.0635 0.18074 0.0145 0.26935 0 0.35571-0.0582 0.78236-0.44816 1.0593-0.2174 0.42514 0.35429 0.39596 1.0346 0.55677 1.5641 0.0261 0.0859 0.0898 0.26934 0 0.26934s0.0261-0.18344 0-0.26934c-0.16081-0.52954-0.37118-1.0427-0.55677-1.5641" fill-opacity=".44362"/>
   <path d="m319.44 420.65c0.25484-0.1071 0.53262-0.17082 0.76451-0.32128 0.0753-0.0489-0.18657-0.0348-0.26935 0-0.18138 0.0762-0.29841 0.32128-0.49516 0.32128-2.5178 0-0.38328-0.12236-0.85154-0.59062-0.0648-0.0648-1.0126 0.0648-1.0774 0-0.0635-0.0635 0.0635-0.20586 0-0.26934-0.13467-0.13467-0.67335 0.13467-0.80802 0-0.0635-0.0635 0.0635-0.20586 0-0.26934-0.12698-0.12697-0.41172 0.12697-0.53869 0-0.0635-0.0635 0.0635-0.20586 0-0.26934-0.0648-0.0648-1.0126 0.0648-1.0774 0-0.0635-0.0635 0.0635-0.20586 0-0.26934-0.0635-0.0635-0.17956 0-0.26933 0h-0.26934-3.2321-1.3467c-0.0898 0-0.20586-0.0635-0.26934 0-0.0635 0.0635 0.0635 0.20585 0 0.26934-0.0635 0.0635-0.20586-0.0635-0.26934 0-0.0635 0.0635 0.0635 0.20585 0 0.26934-0.13467 0.13467-0.67336-0.13467-0.80802 0-0.0635 0.0635 0.0635 0.20586 0 0.26934-0.0635 0.0635-0.20586-0.0635-0.26934 0-0.0635 0.0635 0.0635 0.20586 0 0.26934-0.0635 0.0635-0.20586-0.0635-0.26935 0-0.0635 0.0635 0.0635 0.20586 0 0.26934-0.0635 0.0635-0.20585-0.0635-0.26934 0-0.0635 0.0635 0.0635 0.20586 0 0.26934-0.55727 0.55728 0.0217-0.85159-0.53868 0.26934-0.0401 0.0803 0.0635 0.20586 0 0.26934-0.0635 0.0635-0.20586-0.0635-0.26934 0-8e-3 9e-3 0 0.7427 0 0.80803 0 0.0898-0.0635 0.20585 0 0.26934 0.055 0.0551 0.70123-0.0534 0.80802 0 0.11357 0.0568 0.15578 0.21256 0.26934 0.26934 0.0804 0.0402 0.20586-0.0635 0.26935 0 0.35911 0.35912-0.44891 0.26934 0.26934 0.26934 0.71824 0-0.0898-0.0898 0.26933 0.26934 0.0635 0.0635 0.20586-0.0635 0.26935 0 0.0635 0.0635-0.0635 0.20586 0 0.26934 0.0635 0.0635 0.20585-0.0635 0.26934 0 0.0635 0.0635-0.0635 0.20586 0 0.26934 0.0635 0.0635 0.20586-0.0635 0.26934 0 0.0635 0.0635-0.0635 0.20586 0 0.26934 0.13467 0.13467 0.67335-0.13467 0.80802 0 0.0635 0.0635-0.0635 0.20586 0 0.26934 0.13467 0.13468 0.67336-0.13467 0.80803 0 0.0635 0.0635-0.0635 0.20586 0 0.26935 0.13466 0.13467 0.67335-0.13467 0.80802 0 0.0635 0.0635-0.0635 0.20585 0 0.26934 0.0635 0.0635 0.20586-0.0635 0.26933 0 0.0635 0.0635-0.0635 0.20585 0 0.26934 0.0635 0.0635 0.20586-0.0635 0.26935 0 0.0635 0.0635-0.0635 0.20585 0 0.26934 0.12696 0.12697 0.41171-0.12697 0.53869 0 0.0635 0.0635-0.0635 0.20586 0 0.26934 0.12696 0.12697 0.41171-0.12697 0.53867 0 0.0635 0.0635-0.0635 0.20586 0 0.26934 0.0737 0.0737 0.93125-0.0731 1.0774 0 0.11356 0.0568 0.15577 0.21256 0.26933 0.26934 0.0819 0.041 0.68673 0 0.80804 0h2.1547c0.0653 0 0.79936-9e-3 0.80802 0 0.0635 0.0635-0.0635 0.20586 0 0.26934 0.12697 0.12697 0.41171-0.12697 0.53869 0 0.0635 0.0635-0.0635 0.20586 0 0.26934 0.055 0.0551 0.70123-0.0534 0.80802 0 0.11356 0.0568 0.15577 0.21256 0.26934 0.26934 0.10679 0.0534 0.75296-0.0551 0.80802 0 0.0635 0.0635-0.0635 0.20586 0 0.26934 0.0635 0.0635 0.17956 0 0.26934 0h1.616c0.0989 0 1.0665 0.0108 1.0774 0 0.0635-0.0635-0.0635-0.20585 0-0.26934 0.12697-0.12696 0.41172 0.12697 0.53868 0 0.0635-0.0635-0.0635-0.20585 0-0.26934 0.0635-0.0635 0.20586 0.0635 0.26935 0 0.0635-0.0635-0.0635-0.20585 0-0.26934 0.0635-0.0635 0.20585 0.0635 0.26933 0 0.038-0.038 0.0277-0.75277 0-0.80802-0.0568-0.11356-0.21256-0.15578-0.26933-0.26934 0-0.71824 0.0898 0.0898-0.26935-0.26934-0.0635-0.0635 0.0635-0.20586 0-0.26934-0.0635-0.0635-0.20585 0.0635-0.26934 0-0.0635-0.0635 0.0635-0.20586 0-0.26934-0.12696-0.12697-0.41171 0.12696-0.53868 0-0.0635-0.0635 0.0635-0.20586 0-0.26935-0.0635-0.0635-0.20585 0.0635-0.26934 0-0.0635-0.0635 0.0635-0.20585 0-0.26934-0.0635-0.0635-0.20586 0.0635-0.26934 0-0.0635-0.0635 0.0635-0.20585 0-0.26934-0.12697-0.12697-0.41172 0.12697-0.53868 0-0.0635-0.0635 0.0635-0.20585 0-0.26934-0.0648-0.0648-1.0126 0.0648-1.0774 0-0.0635-0.0635 0.0635-0.20586 0-0.26934-0.12696-0.12697-0.41171 0.12697-0.53868 0-0.0635-0.0635 0.0635-0.20586 0-0.26934-0.12697-0.12697-0.41171 0.12697-0.53868 0-0.0635-0.0635 0.0635-0.20586 0-0.26934-0.0635-0.0635-0.20586 0.0635-0.26934 0-0.0122-0.0122 0-1.2197 0-1.3467 0-0.0898 0.0812-0.23109 0-0.26934-0.31861-0.15-0.68924-0.14493-1.0338-0.2174z" fill-opacity=".2997"/>
   <path d="m188.19 411.28c0.3716 0.14493 0.76009 0.25239 1.1148 0.43481 0.0798 0.0411-0.17956 0-0.26934 0h-0.80803-0.26934c-0.0898 0-0.31159 0.0792-0.26934 0 0.10409-0.19516 0.72244-0.43481 0.50125-0.43481-0.37572 0-0.68336 0.31639-1.0399 0.43481-0.17041 0.0566-0.35912 0-0.53868 0h-2.1547c-0.0898 0-0.20586-0.0635-0.26934 0-0.0635 0.0635 0.0635 0.20586 0 0.26934-0.12697 0.12697-0.37808-0.0803-0.53868 0-1.1209 0.56047 0.28793-0.0186-0.26934 0.53868-0.13468 0.13467-0.67336-0.13467-0.80803 0-0.0635 0.0635 0.0635 0.20586 0 0.26934-0.0635 0.0635-0.18904-0.0401-0.26934 0-0.11356 0.0568-0.15577 0.21256-0.26934 0.26935-0.1606 0.0803-0.41171-0.12697-0.53868 0-0.12697 0.12696 0.12697 0.41171 0 0.53868s-0.37808-0.0803-0.53868 0c-0.11357 0.0568-0.15578 0.21256-0.26934 0.26934-0.16061 0.0803-0.41172-0.12697-0.53869 0-0.0635 0.0635 0.0635 0.20585 0 0.26934-0.13467 0.13467-0.67335-0.13467-0.80802 0-0.0635 0.0635 0.0635 0.20586 0 0.26934-0.0635 0.0635-0.20586-0.0635-0.26934 0-0.0635 0.0635 0.0635 0.20586 0 0.26934-0.0635 0.0635-0.20586-0.0635-0.26934 0-0.0635 0.0635 0.0635 0.20586 0 0.26934-0.13467 0.13467-0.67335-0.13467-0.80802 0-0.0635 0.0635 0.0635 0.20586 0 0.26934-0.0635 0.0635-0.20586-0.0635-0.26934 0-0.0635 0.0635 0.0402 0.18904 0 0.26934-0.0568 0.11357-0.21256 0.15578-0.26935 0.26935-0.0401 0.0803 0.0635 0.20585 0 0.26934-0.12696 0.12696-0.41171-0.12697-0.53868 0-0.13467 0.13467 0.13467 0.67335 0 0.80802-0.0635 0.0635-0.20585-0.0635-0.26934 0-0.12697 0.12697 0.12697 0.41171 0 0.53868-0.0635 0.0635-0.20586-0.0635-0.26934 0-0.13467 0.13467 0.13467 0.67335 0 0.80802-0.0635 0.0635-0.17956 0-0.26934 0 0 0.0898 0.0635 0.20586 0 0.26934-0.0635 0.0635-0.20586-0.0635-0.26934 0-0.13467 0.13468 0.13467 0.67336 0 0.80803-0.0635 0.0635-0.20586-0.0635-0.26934 0-0.0635 0.0635 0 0.17956 0 0.26934v0.26934 1.3467c0 0.0898-0.0635 0.20586 0 0.26935 0.0635 0.0635 0.20585-0.0635 0.26934 0 0.0635 0.0635-0.0635 0.20585 0 0.26934 0.0635 0.0635 0.20586-0.0635 0.26934 0 0.0635 0.0635-0.0635 0.20585 0 0.26934 0.0635 0.0635 0.17956 0 0.26934 0 0 0.0898-0.0635 0.20585 0 0.26934 0.0635 0.0635 0.20586-0.0635 0.26934 0 0.0635 0.0635-0.0635 0.20585 0 0.26934 0.12697 0.12697 0.41172-0.12697 0.53868 0 0 0.71824-0.0898-0.0898 0.26934 0.26934 0.0635 0.0635-0.0635 0.20586 0 0.26934 0.12697 0.12697 0.41172-0.12697 0.53869 0 0.0635 0.0635-0.0635 0.20586 0 0.26934 0.0635 0.0635 0.20585-0.0635 0.26934 0 0.0635 0.0635-0.0635 0.20586 0 0.26934 0.12697 0.12697 0.41171-0.12697 0.53868 0 0.0635 0.0635-0.0635 0.20586 0 0.26934 0.13467 0.13467 0.67335-0.13467 0.80802 0 0.0635 0.0635-0.0635 0.20586 0 0.26934 0.0122 0.0122 1.2197 0 1.3467 0 0.0898 0 0.20585-0.0635 0.26934 0 0.0635 0.0635-0.0635 0.20586 0 0.26935 0.0635 0.0635 0.17956 0 0.26934 0h1.616 1.8854c0.0898 0 0.20586-0.0635 0.26934 0 0.0635 0.0635-0.0635 0.20585 0 0.26934 0.0635 0.0635 0.17956 0 0.26934 0 0.127 0 1.3345-0.0122 1.3467 0 0.0635 0.0635-0.0635 0.20585 0 0.26934 0.13467 0.13467 0.67335-0.13467 0.80802 0 0.0635 0.0635-0.0635 0.20585 0 0.26934 0.12697 0.12697 0.37808-0.0803 0.53868 0 0.11357 0.0568 0.15578 0.21256 0.26934 0.26934 0.0803 0.0401 0.20586-0.0635 0.26935 0 0.0635 0.0635-0.0635 0.20586 0 0.26934 0.0635 0.0635 0.17956 0 0.26934 0h1.8854c0.0989 0 1.0665 0.0108 1.0774 0 0.0635-0.0635-0.0635-0.20586 0-0.26934 0.0635-0.0635 0.18904 0.0401 0.26934 0 0.11356-0.0568 0.15577-0.21256 0.26934-0.26934 0.0803-0.0401 0.20586 0.0635 0.26934 0 0.0635-0.0635-0.0635-0.20586 0-0.26934 0.0635-0.0635 0.20586 0.0635 0.26934 0 0-0.39631-0.0635-0.20586 0.26934-0.53868 0.0898-0.0898 0.15578-0.21256 0.26934-0.26935 0.0803-0.0401 0.22919 0.0803 0.26934 0 0.0803-0.1606-0.0803-0.37807 0-0.53868 0.0402-0.0803 0.20586 0.0635 0.26934 0 0.0635-0.0635-0.0635-0.20585 0-0.26934 0.0635-0.0635 0.20586 0.0635 0.26935 0 0.0635-0.0635-0.0635-0.20586 0-0.26934 0.0635-0.0635 0.20585 0.0635 0.26934 0 0.0635-0.0635-0.0635-0.20586 0-0.26934 0.0635-0.0635 0.20585 0.0635 0.26934 0 0.12697-0.12697-0.12697-0.41171 0-0.53868 0.0635-0.0635 0.20585 0.0635 0.26934 0 0.13467-0.13467-0.13467-0.67335 0-0.80802 0.0635-0.0635 0.20585 0.0635 0.26934 0 0.12697-0.12697-0.12697-0.41172 0-0.53869 0.0635-0.0635 0.20586 0.0635 0.26934 0 0.0635-0.0635-0.0635-0.20585 0-0.26934 0.0635-0.0635 0.20586 0.0635 0.26934 0 0.12697-0.12697-0.12697-0.41171 0-0.53868 0.0635-0.0635 0.20586 0.0635 0.26934 0 0.0635-0.0635-0.0402-0.18904 0-0.26934 0.0568-0.11357 0.21256-0.15578 0.26934-0.26934 0.0803-0.16061-0.12697-0.41172 0-0.53868 0.0635-0.0635 0.20586 0.0635 0.26934 0 0.0635-0.0635-0.0635-0.20586 0-0.26934 0.0635-0.0635 0.20586 0.0635 0.26934 0 0.0635-0.0635 0-0.17956 0-0.26935v-0.26934-1.3467c0-0.0898 0.0635-0.20586 0-0.26934-0.0635-0.0635-0.20585 0.0635-0.26934 0-0.12696-0.12697 0.12697-0.41172 0-0.53868-0.0635-0.0635-0.20585 0.0635-0.26934 0-0.0635-0.0635 0.0635-0.20586 0-0.26934-0.0635-0.0635-0.20585 0.0635-0.26934 0 0-0.71825 0.0898 0.0898-0.26934-0.26935-0.0635-0.0635 0.0635-0.20585 0-0.26934-0.12697-0.12697-0.41171 0.12697-0.53868 0s0.12697-0.41171 0-0.53868c-0.0635-0.0635-0.20586 0.0635-0.26934 0-0.0635-0.0635 0.0635-0.20586 0-0.26934-0.0635-0.0635-0.18904 0.0401-0.26934 0-0.11357-0.0568-0.17956-0.17956-0.26934-0.26934-0.0898-0.0898-0.21256-0.15578-0.26934-0.26934-0.0402-0.0803 0.0635-0.20586 0-0.26934-0.0635-0.0635-0.18904 0.0401-0.26935 0-0.11356-0.0568-0.15577-0.21256-0.26934-0.26934-0.71824 0 0.0898 0.0898-0.26934-0.26934-0.12697-0.12697-0.41171 0.12696-0.53868 0-0.0635-0.0635 0.0635-0.20586 0-0.26935-0.12697-0.12696-0.37808 0.0803-0.53868 0-0.11357-0.0568-0.15578-0.21255-0.26934-0.26934-0.0803-0.0401-0.20586 0.0635-0.26934 0-0.0635-0.0635 0.0635-0.20585 0-0.26934-0.0635-0.0635-0.17956 0-0.26934 0h-1.8854-0.26934c-0.0898 0-0.20586 0.0635-0.26934 0-0.0635-0.0635 0.0635-0.20585 0-0.26934-0.0635-0.0635-0.19344 0.048-0.26934 0-0.31009-0.19586-0.56364-0.46943-0.84546-0.70415z" fill-opacity=".27151"/>
   <path d="m188.19 378.47c-0.34664 0.39858-0.64989 0.83951-1.0399 1.1957-0.0663 0.0606-0.17956 0-0.26934 0h-0.26934-2.6934-3.2321-0.26935c-0.0898 0-0.20585-0.0635-0.26934 0-0.0635 0.0635 0.0635 0.20586 0 0.26935-0.13467 0.13467-0.67335-0.13467-0.80802 0-0.0635 0.0635 0.0635 0.20585 0 0.26934-0.13467 0.13467-0.67335-0.13467-0.80802 0-0.0635 0.0635 0.0635 0.20585 0 0.26934-0.13467 0.13467-0.67335-0.13467-0.80802 0-0.0635 0.0635 0.0635 0.20585 0 0.26934-0.12697 0.12697-0.41172-0.12697-0.53869 0-0.0635 0.0635 0.0635 0.20586 0 0.26934-0.12696 0.12697-0.41171-0.12697-0.53868 0-0.0635 0.0635 0.0635 0.20586 0 0.26934-0.0635 0.0635-0.20586-0.0635-0.26934 0-0.0635 0.0635 0.0635 0.20586 0 0.26934-0.12697 0.12697-0.41171-0.12697-0.53868 0-0.0635 0.0635 0.0635 0.20586 0 0.26934-0.0635 0.0635-0.20586-0.0635-0.26934 0-0.0635 0.0635 0.0635 0.20586 0 0.26934-0.0635 0.0635-0.20586-0.0635-0.26934 0-0.0635 0.0635 0.0402 0.18904 0 0.26935-0.56047 1.1209 0.0186-0.28794-0.53869 0.26934-9e-3 9e-3 0 0.7427 0 0.80802v0.26934c0 0.0898-0.0635 0.20586 0 0.26934 0.0635 0.0635 0.20586-0.0635 0.26935 0 0.0635 0.0635-0.0635 0.20586 0 0.26934 0.12696 0.12697 0.41171-0.12697 0.53868 0 0.0635 0.0635-0.0635 0.20586 0 0.26934 0.0635 0.0635 0.20585-0.0635 0.26934 0 0.0635 0.0635-0.0635 0.20586 0 0.26934 0.12697 0.12697 0.41171-0.12697 0.53868 0 0.0635 0.0635-0.0635 0.20586 0 0.26934 9e-3 9e-3 0.7427 0 0.80802 0h0.26934c0.0898 0 0.20586-0.0635 0.26935 0 0.0635 0.0635-0.0635 0.20586 0 0.26935 0.0108 0.0108 0.97845 0 1.0774 0h1.8854c0.0898 0 0.20585 0.0635 0.26934 0 0.0635-0.0635-0.0635-0.20586 0-0.26935 0.0648-0.0648 1.0126 0.0648 1.0774 0 0.0635-0.0635-0.0635-0.20585 0-0.26934 0.12697-0.12697 0.37808 0.0803 0.53868 0 0.11357-0.0568 0.15578-0.21256 0.26934-0.26934 0.16355-0.0818 1.4525 0.0818 1.616 0 0.11356-0.0568 0.15578-0.21256 0.26934-0.26934 0.10679-0.0534 0.75296 0.0551 0.80802 0 0.0635-0.0635-0.0635-0.20585 0-0.26934 0.0122-0.0122 1.2197 0 1.3467 0 0.0898 0 0.20585 0.0635 0.26934 0 0.0635-0.0635-0.0635-0.20586 0-0.26934 0.12697-0.12697 0.41171 0.12697 0.53868 0 0.0635-0.0635-0.0635-0.20586 0-0.26934 0.0635-0.0635 0.17956 0 0.26934 0h1.616c0.0898 0 0.20585 0.0635 0.26934 0 0.0635-0.0635-0.0635-0.20586 0-0.26934 0.0635-0.0635 0.20586 0.0635 0.26934 0 0.55728-0.55728-0.85159 0.0218 0.26934-0.53868 0.0803-0.0402 0.20586 0.0635 0.26934 0 0.13467-0.13467-0.13467-0.67336 0-0.80803 0.0635-0.0635 0.20586 0.0635 0.26934 0 0.0648-0.0648-0.0648-1.0126 0-1.0774 0.0635-0.0635 0.20586 0.0635 0.26934 0 0.0269-0.0269 0.0269-0.78109 0-0.80802-0.13467-0.13467-0.67335 0.13467-0.80802 0-0.0635-0.0635 0.0635-0.20586 0-0.26935-0.0108-0.0108-0.97845 0-1.0774 0-0.74586 0 0.20717-0.26934-0.53868-0.26934-0.054 0-0.80787 4e-3 -0.80803 0-0.0128-0.31806 0.15461-0.61759 0.23191-0.92639" fill-opacity=".2819"/>
   <path d="m127.26 383.15c0.1244 0.18278 0.55599 0.42395 0.37321 0.54835-0.18279 0.1244-0.15433-0.51708-0.37321-0.54835-0.50742-0.0725-1.0058 0.1997-1.5122 0.27901-0.33899 0.0531-0.73367 0-1.0774 0h-3.2321c-0.1133 0-1.5359-0.0401-1.616 0-0.11357 0.0568-0.15578 0.21256-0.26934 0.26934-0.10679 0.0534-0.75296-0.0551-0.80803 0-0.0635 0.0635 0.0635 0.20586 0 0.26934-0.0648 0.0648-1.0126-0.0648-1.0774 0-0.0635 0.0635 0.0635 0.20586 0 0.26934-0.0834 0.0834-1.2633-0.0834-1.3467 0-0.0635 0.0635 0.0635 0.20586 0 0.26934-0.0648 0.0648-1.0126-0.0648-1.0774 0-0.0635 0.0635 0.0635 0.20586 0 0.26934-0.12697 0.12697-0.41171-0.12697-0.53868 0-0.0635 0.0635 0.0635 0.20586 0 0.26934-0.12697 0.12697-0.41171-0.12696-0.53868 0-0.17857 0.17858 0.17857 0.36011 0 0.53869-0.0635 0.0635-0.20586-0.0635-0.26934 0-0.13467 0.13467 0.13467 0.67335 0 0.80802-0.0635 0.0635-0.20586-0.0635-0.26934 0-0.0635 0.0635 0 0.17956 0 0.26934v0.26934 2.1547c0 0.18734-0.0487 1.2493 0 1.3467 0.89329 0.8933-0.12697-0.25393 0.26934 0.53869 0.0568 0.11356 0.21256 0.15577 0.26934 0.26934 0.0803 0.1606-0.12697 0.41171 0 0.53868s0.41171-0.12697 0.53868 0c0.0635 0.0635 0 0.17956 0 0.26934 0.0898 0 0.20586-0.0635 0.26934 0 0.12697 0.12697-0.12697 0.41171 0 0.53868 0.0635 0.0635 0.20586-0.0635 0.26934 0 0.0635 0.0635-0.0635 0.20586 0 0.26934 0.0635 0.0635 0.20586-0.0635 0.26934 0 0.0635 0.0635-0.0635 0.20586 0 0.26934 0.0635 0.0635 0.20586-0.0635 0.26934 0 0.0635 0.0635-0.0635 0.20586 0 0.26934 0.55728 0.55728-0.0218-0.85159 0.53868 0.26935 0.0402 0.0803-0.0635 0.20585 0 0.26934 0.12697 0.12697 0.41172-0.12697 0.53869 0 0.0635 0.0635-0.0635 0.20585 0 0.26934 0.0635 0.0635 0.20585-0.0635 0.26934 0 0.0635 0.0635-0.0635 0.20585 0 0.26934 0.0635 0.0635 0.20585-0.0635 0.26934 0 0.0635 0.0635-0.0635 0.20585 0 0.26934 0.0635 0.0635 0.20586-0.0635 0.26934 0 0.0635 0.0635-0.0635 0.20586 0 0.26934 0.12697 0.12697 0.41171-0.12697 0.53868 0 0.0635 0.0635-0.0635 0.20586 0 0.26934 0.0635 0.0635 0.18904-0.0401 0.26934 0 0.11357 0.0568 0.15578 0.21256 0.26934 0.26934 0.16061 0.0803 0.41172-0.12697 0.53869 0 0.0635 0.0635-0.0635 0.20586 0 0.26934 0.0635 0.0635 0.20585-0.0635 0.26934 0 0.0635 0.0635-0.0635 0.20586 0 0.26934 0.12697 0.12697 0.37807-0.0803 0.53868 0 0.11356 0.0568 0.15578 0.21256 0.26934 0.26934 0.1606 0.0803 0.41171-0.12696 0.53868 0 0.0635 0.0635-0.0635 0.20586 0 0.26935 0.0551 0.0551 0.70123-0.0534 0.80802 0 0.11357 0.0568 0.15578 0.21256 0.26935 0.26934 0.16928 0.0846 0.90807-0.0847 1.0774 0 0.11356 0.0568 0.15578 0.21256 0.26934 0.26934 0.10679 0.0534 0.75296-0.0551 0.80802 0 0.0635 0.0635-0.0635 0.20585 0 0.26934 0.0635 0.0635 0.17956 0 0.26934 0h0.26935 2.1547 0.26934c0.0898 0 0.20586-0.0635 0.26934 0 0.0635 0.0635-0.0635 0.20586 0 0.26934 0.0635 0.0635 0.17957 0 0.26935 0h0.26934 4.0401 4.0401 0.26934c0.0898 0 0.20585 0.0635 0.26934 0 0.0635-0.0635 0-0.17956 0-0.26934 0-0.18734 0.0487-1.2493 0-1.3467-0.0568-0.11356-0.21256-0.15577-0.26934-0.26934-0.0803-0.1606 0.12697-0.41171 0-0.53868-0.0635-0.0635-0.20586 0.0635-0.26934 0-0.13468-0.13467 0.13467-0.67335 0-0.80802-0.0635-0.0635-0.20586 0.0635-0.26935 0-0.0648-0.0648 0.0648-1.0126 0-1.0774-0.0635-0.0635-0.20585 0.0635-0.26934 0-0.0635-0.0635 0-0.17956 0-0.26934v-1.616-0.26934c0-0.0898 0.0635-0.20586 0-0.26934-0.0635-0.0635-0.20585 0.0635-0.26934 0-0.0648-0.0648 0.0648-1.0126 0-1.0774-0.0635-0.0635-0.20585 0.0635-0.26934 0-0.0635-0.0635 0.0402-0.18904 0-0.26934-0.0568-0.11356-0.21256-0.15578-0.26934-0.26934-0.0401-0.0803 0.0635-0.20586 0-0.26934-0.0635-0.0635-0.20586 0.0635-0.26934 0-0.12697-0.12697 0.12697-0.41171 0-0.53868-0.0635-0.0635-0.20586 0.0635-0.26934 0-0.12697-0.12697 0.12697-0.41172 0-0.53868-0.0635-0.0635-0.20586 0.0635-0.26934 0-0.12697-0.12697 0.12697-0.41172 0-0.53869-0.12697-0.12696-0.41172 0.12697-0.53868 0-0.12697-0.12696 0.12696-0.41171 0-0.53868-0.0635-0.0635-0.20586 0.0635-0.26935 0-0.12696-0.12697 0.12697-0.41171 0-0.53868-0.12696-0.12697-0.41171 0.12697-0.53868 0-0.0635-0.0635 0.0635-0.20586 0-0.26934-0.0635-0.0635-0.20585 0.0635-0.26934 0-0.0635-0.0635 0.0635-0.20586 0-0.26934-0.0635-0.0635-0.20585 0.0635-0.26934 0-0.0635-0.0635 0.0635-0.20586 0-0.26934-0.0635-0.0635-0.20586 0.0635-0.26934 0-0.0635-0.0635 0.0635-0.20586 0-0.26934-0.12697-0.12697-0.41171 0.12696-0.53868 0-0.0635-0.0635 0.0635-0.20586 0-0.26935-0.0635-0.0635-0.20586 0.0635-0.26934 0-0.0635-0.0635 0.0635-0.20585 0-0.26934-0.12697-0.12697-0.41172 0.12697-0.53868 0-0.0635-0.0635 0.0635-0.20585 0-0.26934-0.12697-0.12697-0.37808 0.0803-0.53869 0-0.11356-0.0568-0.15577-0.21256-0.26934-0.26934-0.0803-0.0401-0.20585 0.0635-0.26934 0-0.0635-0.0635 0.0635-0.20585 0-0.26934-0.0635-0.0635-0.20586 0.0635-0.26934 0-0.0635-0.0635 0-0.17956 0-0.26934-0.0898 0-0.20586 0.0635-0.26934 0-0.0635-0.0635 0.0635-0.20586 0-0.26934-0.0308-0.0308-0.4285 0.026-0.53868 0-0.30936-0.0731-0.60793-0.18601-0.91189-0.27901z" fill-opacity=".24629"/>
   <path d="m160.07 397.22c0.22989 0.34342 0.53355 0.64762 0.68965 1.0303 0.0339 0.0831-0.17956 0-0.26934 0h-0.26934-0.26934c-0.0898 0-0.27959 0.0892-0.26934 0 0.0419-0.36453 0.71591-0.86616 0.38771-1.0303-0.35742-0.17871-0.58925 0.54638-0.92639 0.76092-0.0459 0.0292-0.71513 0-0.80802 0-0.0898 0-0.20586 0.0635-0.26934 0-0.0635-0.0635 0.0635-0.20586 0-0.26934-0.0551-0.0551-0.70124 0.0534-0.80803 0-0.11356-0.0568-0.15578-0.21256-0.26934-0.26934-0.10679-0.0534-0.75296 0.0551-0.80802 0-0.0635-0.0635 0.0635-0.20586 0-0.26934-0.0635-0.0635-0.17956 0-0.26934 0h-1.3467c-0.0898 0-0.20585 0.0635-0.26934 0-0.0635-0.0635 0.0635-0.20586 0-0.26934-9e-3 -9e-3 -0.7427 0-0.80802 0h-4.0401-2.1547-0.26934c-0.0898 0-0.20586-0.0635-0.26935 0-0.0635 0.0635 0.0635 0.20585 0 0.26934-0.71428 0.71428 0.17561-0.71429-0.53868 0-0.0635 0.0635 0.0635 0.20585 0 0.26934-0.12697 0.12697-0.41171-0.12697-0.53868 0-0.0122 0.0122 0 1.2197 0 1.3467v1.616c0 0.0898-0.0635 0.20586 0 0.26934 0.0635 0.0635 0.20586-0.0635 0.26934 0 0.13467 0.13467-0.13467 0.67335 0 0.80802 0.0635 0.0635 0.20586-0.0635 0.26934 0 0.12697 0.12697-0.0803 0.37808 0 0.53869 0.0568 0.11356 0.21256 0.15577 0.26934 0.26934 0.0402 0.0803-0.0635 0.20585 0 0.26934 0.0635 0.0635 0.20586-0.0635 0.26934 0 0.0635 0.0635-0.0401 0.18904 0 0.26934 0.11357 0.22713 0.42512 0.31155 0.53869 0.53868 0.0402 0.0803-0.0635 0.20586 0 0.26934 0.0635 0.0635 0.20585-0.0635 0.26934 0 0.12697 0.12697-0.12697 0.41171 0 0.53868s0.41171-0.12697 0.53868 0c0.0635 0.0635-0.0635 0.20586 0 0.26934 0.0635 0.0635 0.20586-0.0635 0.26934 0 0.0635 0.0635-0.0635 0.20586 0 0.26935 0.0635 0.0635 0.20586-0.0635 0.26934 0 0.0635 0.0635-0.0635 0.20585 0 0.26934 0.0635 0.0635 0.20586-0.0635 0.26934 0 0.0635 0.0635-0.0635 0.20585 0 0.26934 0.0737 0.0737 0.93125-0.0731 1.0774 0 0.11356 0.0568 0.15577 0.21256 0.26934 0.26934 0.10679 0.0534 0.75296-0.0551 0.80802 0 0.0635 0.0635-0.0635 0.20585 0 0.26934 0.0635 0.0635 0.20586-0.0635 0.26934 0 0.0635 0.0635-0.0635 0.20586 0 0.26934 0.0635 0.0635 0.20586-0.0635 0.26934 0 0.0635 0.0635-0.0635 0.20586 0 0.26934 0.0635 0.0635 0.20586-0.0635 0.26934 0 0 0.71824-0.0898-0.0898 0.26934 0.26934 0.0635 0.0635-0.0635 0.20586 0 0.26934 0.12697 0.12697 0.41172-0.12697 0.53869 0 0.13467 0.13467-0.13468 0.67336 0 0.80803 0.0635 0.0635 0.20585-0.0635 0.26934 0 0.0635 0.0635-0.0635 0.20585 0 0.26934 0.0635 0.0635 0.20585 0.0635 0.26934 0 0.0635-0.0635-0.0635-0.20586 0-0.26934 0.17857-0.17858 0.36011 0.17857 0.53868 0 0.0635-0.0635-0.0635-0.20586 0-0.26935 0.0635-0.0635 0.20586 0.0635 0.26934 0 0.35912-0.35912-0.4489-0.26934 0.26934-0.26934h0.26934c0.0898 0 0.20586 0.0635 0.26934 0 0.0635-0.0635-0.0635-0.20585 0-0.26934 0.0635-0.0635 0.18904 0.0402 0.26934 0 0.11357-0.0568 0.15578-0.21256 0.26935-0.26934 0.28571-0.14286 0.25296 0.14286 0.53868 0 1.1209-0.56046-0.28794 0.0186 0.26934-0.53868 0.17857-0.17857 0.36011 0.17857 0.53868 0 0.0635-0.0635-0.0635-0.20586 0-0.26934 0.12697-0.12697 0.41171 0.12697 0.53868 0s-0.12697-0.41171 0-0.53868c0.0635-0.0635 0.20586 0.0635 0.26934 0 0.0635-0.0635-0.0635-0.20586 0-0.26934 0.0635-0.0635 0.20586 0.0635 0.26934 0 0.0635-0.0635-0.0635-0.20586 0-0.26934 0.0635-0.0635 0.20586 0.0635 0.26935 0 0.0635-0.0635-0.0635-0.20586 0-0.26935 0.0635-0.0635 0.20585 0.0635 0.26934 0 0.12696-0.12696-0.12697-0.41171 0-0.53868 0.55727-0.55727-0.0218 0.85159 0.53868-0.26934 0.0402-0.0803-0.0635-0.20586 0-0.26934 0.12697-0.12697 0.41171 0.12697 0.53868 0s-0.12697-0.41171 0-0.53868c0.0635-0.0635 0.20586 0.0635 0.26934 0 0.12697-0.12697-0.0803-0.37808 0-0.53868 0.0568-0.11357 0.21256-0.15578 0.26934-0.26934 0.0803-0.16061-0.12697-0.41172 0-0.53869 0.0635-0.0635 0.20586 0.0635 0.26934 0 0.13467-0.13467-0.13467-0.67335 0-0.80802 0.0635-0.0635 0.20586 0.0635 0.26934 0 0.0551-0.0551-0.0534-0.70123 0-0.80802 0.0568-0.11357 0.21256-0.15578 0.26934-0.26934 0.0137-0.0274 0.0123-1.3235 0-1.3467-0.19371-0.36504-0.45976-0.68684-0.68965-1.0303z" fill-opacity=".44362"/>
   <path d="m127.26 406.59c-0.41428-0.44729-0.78683-0.93722-1.2428-1.3419-0.0671-0.0596-0.17956 0-0.26934 0h-1.3467c-0.0653 0-0.79936-9e-3 -0.80802 0-0.0635 0.0635 0.0635 0.20585 0 0.26934-0.0635 0.0635-0.20586-0.0635-0.26934 0-0.0635 0.0635 0.0635 0.20585 0 0.26934-0.13467 0.13467-0.67335-0.13467-0.80802 0-0.0635 0.0635 0.0635 0.20586 0 0.26934-0.0635 0.0635-0.20586-0.0635-0.26934 0-0.0635 0.0635 0.0635 0.20586 0 0.26934-0.0635 0.0635-0.20586-0.0635-0.26934 0-0.0269 0.0269-0.0269 0.78109 0 0.80802 0.12696 0.12697 0.41171-0.12696 0.53868 0 0.0635 0.0635-0.0635 0.20586 0 0.26934 0.17045 0.17046 0.36822-0.17045 0.53868 0 0 0.71825-0.0898-0.0898 0.26934 0.26935 0.0635 0.0635-0.0635 0.20585 0 0.26934 0.12697 0.12696 0.41171-0.12697 0.53868 0 0.0635 0.0635-0.0635 0.20585 0 0.26934 0.0635 0.0635 0.20586-0.0635 0.26934 0 0.0635 0.0635-0.0635 0.20585 0 0.26934 0.0635 0.0635 0.20586-0.0635 0.26934 0 0.0635 0.0635-0.0635 0.20586 0 0.26934 0.0635 0.0635 0.20586-0.0635 0.26935 0 0.0635 0.0635-0.0635 0.20586 0 0.26934 0.13467 0.13467 0.67335-0.13467 0.80802 0 0.0635 0.0635-0.0635 0.20586 0 0.26934 0.13467 0.13467 0.67335-0.13467 0.80802 0 0.0635 0.0635-0.0635 0.20586 0 0.26934 0.12697 0.12697 0.41171-0.12697 0.53868 0 0.0635 0.0635-0.0635 0.20586 0 0.26934 0.0635 0.0635 0.20586-0.0635 0.26934 0 0.0635 0.0635-0.0635 0.20586 0 0.26934 0.0635 0.0635 0.20586-0.0635 0.26934 0 0.0635 0.0635-0.0635 0.20586 0 0.26935 9e-3 9e-3 0.74271 0 0.80803 0h0.26934c0.0898 0 0.20586 0.0635 0.26934 0 0.0635-0.0635-0.0401-0.18904 0-0.26935 0.56047-1.1209-0.0186 0.28794 0.53868-0.26934 0.12697-0.12697-0.12697-0.41171 0-0.53868 0.0635-0.0635 0.20586 0.0635 0.26934 0 0.0108-0.0108 0-0.97845 0-1.0774v-0.26934c0-0.0898 0.0635-0.20586 0-0.26934-0.0635-0.0635-0.18904 0.0401-0.26934 0-1.1209-0.56047 0.28794 0.0186-0.26934-0.53869-0.0635-0.0635-0.20586 0.0635-0.26934 0-0.0635-0.0635 0.0635-0.20585 0-0.26934-0.0303-0.0303-0.42862 0.0256-0.53868 0-0.30919-0.0718-0.60793-0.18278-0.91189-0.27417z" fill-opacity=".44362"/>
   <path d="m146.01 415.97c-0.64899 0.73716-1.298 1.4743-1.947 2.2115-0.0898 0-0.20585-0.0635-0.26934 0-0.35912 0.35913 0.44891 0.26934-0.26934 0.26934h-0.26934c-0.0898 0-0.20585-0.0635-0.26934 0-0.0635 0.0635 0.0635 0.20586 0 0.26935-0.12697 0.12696-0.41171-0.12697-0.53868 0-0.0635 0.0635 0.0635 0.20585 0 0.26934-0.0635 0.0635-0.20586-0.0635-0.26934 0-0.0635 0.0635 0.0635 0.20585 0 0.26934-0.0635 0.0635-0.17956 0-0.26934 0h-0.26934c-0.71825 0 0.0898-0.0898-0.26934 0.26934-0.13468 0.13467-0.67336-0.13467-0.80803 0-0.0635 0.0635 0.0635 0.20586 0 0.26934-0.17857 0.17857-0.36011-0.17857-0.53868 0-0.0635 0.0635 0.0635 0.20586 0 0.26934-0.0635 0.0635-0.20586-0.0635-0.26934 0-0.0635 0.0635 0.0635 0.20586 0 0.26934-0.12697 0.12697-0.41171-0.12697-0.53868 0-0.0635 0.0635 0.0635 0.20586 0 0.26934-0.13467 0.13467-0.67335-0.13467-0.80803 0-0.0635 0.0635 0.0635 0.20586 0 0.26934-0.0635 0.0635-0.20585-0.0635-0.26934 0-0.12697 0.12697 0.12697 0.41172 0 0.53869-0.0635 0.0635-0.20585-0.0635-0.26934 0-0.0635 0.0635-0.0635 0.20585 0 0.26934 0.0635 0.0635 0.18904-0.0402 0.26934 0 0.11357 0.0568 0.15578 0.21255 0.26934 0.26934 0.16061 0.0803 0.41172-0.12697 0.53869 0 0.12696 0.12697-0.12697 0.41171 0 0.53868 0.12696 0.12697 0.41171-0.12697 0.53868 0 0.0635 0.0635-0.0635 0.20586 0 0.26934 0.0122 0.0122 1.2197 0 1.3467 0h2.1547c0.0898 0 0.20586 0.0635 0.26934 0 0.0635-0.0635-0.0635-0.20586 0-0.26934 0.0635-0.0635 0.20586 0.0635 0.26934 0 0.0635-0.0635-0.0635-0.20586 0-0.26934 0.12697-0.12697 0.41172 0.12697 0.53868 0 0.0635-0.0635-0.0635-0.20586 0-0.26934 0.12697-0.12697 0.41172 0.12697 0.53869 0 0.0635-0.0635-0.0635-0.20586 0-0.26934 0.12696-0.12697 0.41171 0.12696 0.53868 0 0.0635-0.0635-0.0635-0.20586 0-0.26934 0.0635-0.0635 0.20586 0.0635 0.26934 0 0.0635-0.0635-0.0635-0.20586 0-0.26935 0.0635-0.0635 0.20586 0.0635 0.26934 0 0.35912-0.35912-0.4489-0.26934 0.26934-0.26934h1.3467c0.0898 0 0.20585 0.0635 0.26934 0 0.0635-0.0635-0.0635-0.20585 0-0.26934 0.12697-0.12697 0.41171 0.12697 0.53868 0 0.0635-0.0635-0.0898-0.26934 0-0.26934s0 0.35912 0 0.26934v-3.7708-0.26934c0-0.0898 0.0635-0.20586 0-0.26934-9e-3 -9e-3 -0.7427 0-0.80802 0-0.62495 0-0.18386 0.0274-1.2851-0.32611z" fill-opacity=".26113"/>
   <path d="m202.26 392.53c0.27871-0.6412 0.22553-0.47708 0.78868-0.47708 0.0898 0 0.20586-0.0635 0.26935 0 0.0635 0.0635-0.0635 0.20586 0 0.26934 0.0635 0.0635 0.20585-0.0635 0.26934 0 0.0635 0.0635-0.0635 0.20586 0 0.26934 0.13467 0.13467 0.67335-0.13467 0.80802 0 0.0635 0.0635-0.0635 0.20586 0 0.26934 0.0635 0.0635 0.20586-0.0635 0.26935 0 0.0635 0.0635-0.0635 0.20586 0 0.26934 0.0635 0.0635 0.17956 0 0.26933 0 0.0898 0 0.20586 0.0635 0.26934 0 0.0635-0.0635-0.0401-0.18904 0-0.26934 0.0568-0.11356 0.21256-0.15577 0.26935-0.26934 0.0803-0.1606-0.12698-0.41171 0-0.53868 0.12696-0.12697 0.41171 0.12697 0.53868 0 0.12696-0.12697-0.12697-0.41171 0-0.53868 0.0635-0.0635 0.20585 0.0635 0.26934 0 0.0269-0.0269 0.0269-0.78109 0-0.80803-0.12698-0.12696-0.41171 0.12697-0.53869 0-0.0635-0.0635 0.0635-0.20585 0-0.26934-0.12696-0.12696-0.41171 0.12697-0.53868 0-0.0635-0.0635 0.0635-0.20585 0-0.26934-0.12696-0.12697-0.41171 0.12697-0.53867 0-0.0635-0.0635 0.0401-0.18904 0-0.26934-0.0568-0.11356-0.15579-0.21256-0.26935-0.26934-0.0552-0.0276-0.77004-0.038-0.80802 0-0.12697 0.12697 0.12697 0.41171 0 0.53868-0.0635 0.0635-0.20586-0.0635-0.26934 0-0.12697 0.12697 0.12696 0.41172 0 0.53868-0.0635 0.0635-0.20586-0.0635-0.26935 0-0.0635 0.0635 0.0401 0.18904 0 0.26935-0.0568 0.11356-0.21256 0.15577-0.26933 0.26934-0.0401 0.0803 0 0.17956 0 0.26934-0.17312 0.33858-0.34623 0.67717-0.51935 1.0158z" fill-opacity=".44362"/>
   <path d="m249.13 415.97c0.16989-0.16064 0.34904-0.65181 0.50967-0.48192 0.16064 0.1699-0.3575 0.30439-0.50967 0.48192-1.1118 1.2971-1.1064 0.93223-1.1064 1.9422v0.26934c0 0.0898-0.0635 0.20586 0 0.26934 0.13467 0.13468 0.67335-0.13467 0.80802 0 0.0635 0.0635-0.0635 0.20586 0 0.26935 0.0635 0.0635 0.17956 0 0.26934 0h2.1547 0.26934c0.0898 0 0.20585 0.0635 0.26934 0 0.0635-0.0635 0-0.17956 0-0.26935v-0.26934c0-0.0989 0.0109-1.0665 0-1.0774-0.0635-0.0635-0.20585 0.0635-0.26934 0-0.12697-0.12697 0.12696-0.41171 0-0.53868-0.0635-0.0635-0.20586 0.0635-0.26934 0-0.12697-0.12697 0.12697-0.41172 0-0.53868-0.0635-0.0635-0.20586 0.0635-0.26934 0-0.0635-0.0635 0.0635-0.20586 0-0.26934-0.0635-0.0635-0.20586 0.0635-0.26934 0-0.0635-0.0635 0.0635-0.20586 0-0.26935-0.0635-0.0635-0.17956 0-0.26935 0-0.65394 0-0.18776-0.0375-1.3177 0.48192z" fill-opacity=".89614"/>
   <path d="m155.38 383.15c-0.18278 0.18278-0.40437 0.33366-0.54835 0.54835-0.0439 0.0655 0 0.93995 0 1.0774 0 0.0898 0.0635 0.20586 0 0.26934-0.35912 0.35913-0.26934-0.4489-0.26934 0.26935 0 0.0653 9e-3 0.79936 0 0.80802-0.0635 0.0635-0.20585-0.0635-0.26934 0-0.0122 0.0122 0 1.2197 0 1.3467 0 0.0898-0.0635 0.20586 0 0.26934 9e-3 9e-3 0.7427 0 0.80802 0 0.0989 0 1.0665-0.0108 1.0774 0 0.0635 0.0635-0.0635 0.20586 0 0.26935 0.0635 0.0635 0.20586-0.0635 0.26934 0 0.0635 0.0635-0.0635 0.20585 0 0.26934 0.0635 0.0635 0.17956 0 0.26934 0h1.8854c0.0989 0 1.0665 0.0108 1.0774 0 9e-3 -9e-3 0-0.7427 0-0.80803 0-0.71824-0.0898 0.0898 0.26934-0.26934 0.0635-0.0635 0-0.17956 0-0.26934v-0.26934-1.3467c0-0.0898 0.0635-0.20586 0-0.26935-0.13467-0.13467-0.67335 0.13468-0.80802 0-0.0635-0.0635 0.0635-0.20585 0-0.26934-0.0122-0.0122-1.2197 0-1.3467 0-0.0898 0-0.20585 0.0635-0.26934 0-0.0635-0.0635 0.0635-0.20585 0-0.26934-0.12697-0.12697-0.41171 0.12697-0.53868 0-0.0635-0.0635 0.0635-0.20585 0-0.26934-0.12697-0.12697-0.41171 0.12697-0.53868 0-0.0635-0.0635 0.0635-0.20585 0-0.26934-0.12697-0.12697-0.41324 0.12848-0.53868 0-0.22679-0.23228-0.35268-0.54513-0.52902-0.81769z" fill-opacity=".5549"/>
   <path d="m183.51 397.22c-0.93887 0.52298-1.8586 1.0819-2.8166 1.5689-0.16007 0.0814-0.41172-0.12697-0.53869 0-0.0635 0.0635 0.0635 0.20586 0 0.26935-0.0635 0.0635-0.20585-0.0635-0.26934 0-0.0635 0.0635 0.0898 0.26934 0 0.26934s0-0.35913 0-0.26934v0.80802c0 0.0898-0.0635 0.20585 0 0.26934 0.71825 0-0.0898-0.0898 0.26934 0.26934 0.12697 0.12697 0.41172-0.12697 0.53869 0 0.0635 0.0635-0.0635 0.20586 0 0.26934 0.0635 0.0635 0.20585-0.0635 0.26934 0 0.0635 0.0635-0.0635 0.20586 0 0.26934 0.0648 0.0648 1.0126-0.0648 1.0774 0 0.0635 0.0635-0.0635 0.20586 0 0.26934 0.0635 0.0635 0.17956 0 0.26934 0h1.616c0.12699 0 1.3345 0.0122 1.3467 0 0.0635-0.0635 0-0.17956 0-0.26934v-0.26934c0-0.71824-0.0898 0.0898 0.26934-0.26934 0.13467-0.13467-0.13467-0.67335 0-0.80802 0.0635-0.0635 0.20586 0.0635 0.26934 0 0.0635-0.0635-0.0635-0.20586 0-0.26934 0.0635-0.0635 0.20586 0.0635 0.26935 0 9e-3 -9e-3 0-0.7427 0-0.80803v-0.26934c0-0.0898-0.0898-0.26934 0-0.26934s0 0.35912 0 0.26934c0-0.17956 0.0803-0.37808 0-0.53868s-0.41172 0.12697-0.53869 0c-0.0635-0.0635 0.0635-0.20586 0-0.26934-0.0635-0.0635-0.20585 0.0635-0.26934 0-0.0635-0.0635 0.0635-0.20586 0-0.26934-0.12697-0.12697-0.41171 0.12697-0.53868 0-0.0635-0.0635 0.0635-0.20586 0-0.26934-0.0635-0.0635-0.18242-0.0225-0.26934 0-0.32441 0.0839-0.6361 0.21096-0.95416 0.31644z" fill-opacity=".88279"/>
  </g>
 </g>
</svg>
