<?xml version="1.0" encoding="UTF-8" standalone="no"?>
<!-- Created with Inkscape (http://www.inkscape.org/) -->

<svg
   xmlns:dc="http://purl.org/dc/elements/1.1/"
   xmlns:cc="http://creativecommons.org/ns#"
   xmlns:rdf="http://www.w3.org/1999/02/22-rdf-syntax-ns#"
   xmlns:svg="http://www.w3.org/2000/svg"
   xmlns="http://www.w3.org/2000/svg"
   xmlns:sodipodi="http://sodipodi.sourceforge.net/DTD/sodipodi-0.dtd"
   xmlns:inkscape="http://www.inkscape.org/namespaces/inkscape"
   width="241.72185"
   height="80"
   viewBox="0 0 226.61422 74.999996"
   id="svg2"
   version="1.1"
   inkscape:version="0.92.3 (2405546, 2018-03-11)"
   sodipodi:docname="shore.svg">
  <defs
     id="defs4">
    <inkscape:path-effect
       effect="spiro"
       id="path-effect4197"
       is_visible="true" />
    <clipPath
       id="clipPath18">
      <path
         inkscape:connector-curvature="0"
         d="M 0,600 H 800 V 0 H 0 Z"
         id="path20" />
    </clipPath>
  </defs>
  <sodipodi:namedview
     id="base"
     pagecolor="#ffffff"
     bordercolor="#666666"
     borderopacity="1.0"
     inkscape:pageopacity="0.0"
     inkscape:pageshadow="2"
     inkscape:zoom="2.4612393"
     inkscape:cx="108.51711"
     inkscape:cy="64.002121"
     inkscape:document-units="px"
     inkscape:current-layer="layer1"
     showgrid="true"
     inkscape:window-width="1853"
     inkscape:window-height="1025"
     inkscape:window-x="67"
     inkscape:window-y="27"
     inkscape:window-maximized="1"
     fit-margin-top="10"
     fit-margin-left="10"
     fit-margin-right="10"
     fit-margin-bottom="10"
     units="px">
    <inkscape:grid
       type="xygrid"
       id="grid2156" />
  </sodipodi:namedview>
  <metadata
     id="metadata7">
    <rdf:RDF>
      <cc:Work
         rdf:about="">
        <dc:format>image/svg+xml</dc:format>
        <dc:type
           rdf:resource="http://purl.org/dc/dcmitype/StillImage" />
        <dc:title></dc:title>
      </cc:Work>
    </rdf:RDF>
  </metadata>
  <g
     inkscape:label="Layer 1"
     inkscape:groupmode="layer"
     id="layer1"
     transform="translate(-94.443047,-359.71501)"
     style="fill:#d5d5d5;fill-opacity:1">
    <path
       style="fill:#94836c;fill-opacity:1;stroke:none;stroke-width:0.93749994px;stroke-linecap:butt;stroke-linejoin:miter;stroke-opacity:1"
       d="M 94.443047,434.71501 H 324.13053 v -18.75 c 0,0 -7.79895,-0.0952 -14.71045,0.22855 -2.64692,0.124 -20.38744,-0.67767 -26.42855,-0.68482 -9.73312,-0.0115 -19.49911,0.76689 -21.67349,0.45627 -6.5625,-0.93749 -6.88582,-2.18356 -11.88041,-3.90428 -4.99459,-1.72072 -23.74459,-14.84572 -28.82996,-16.50005 -15.03699,-4.89172 -32.81811,-17.71546 -36.75809,-21.82283 -4.74171,-4.94317 -20.83457,-9.33534 -28.46904,-9.33534 -5.102,0 -8.4375,0 -15.55407,-1.17272 -9.27492,-1.52839 -18.56654,0.56711 -26.14769,1.17272 -11.73573,0.9375 -19.235733,10e-6 -19.235733,10e-6 z"
       id="path2160"
       inkscape:connector-curvature="0"
       sodipodi:nodetypes="cccssszssssscc" />
    <path
       style="fill:#0fb55e;fill-opacity:1;stroke:none;stroke-width:0.93749988px;stroke-linecap:butt;stroke-linejoin:miter;stroke-opacity:1"
       d="m 94.443047,378.46501 c 37.500003,4.6875 56.249993,-4.6875 89.406533,-4.7272 -4.74171,-4.94317 -20.83457,-9.33534 -28.46904,-9.33534 -5.102,0 -8.4375,0 -15.55407,-1.17272 -9.27492,-1.52839 -18.56654,0.56711 -26.14769,1.17272 -11.73573,0.9375 -19.235733,1e-5 -19.235733,1e-5 z"
       id="path2160-1"
       inkscape:connector-curvature="0"
       sodipodi:nodetypes="ccssscc" />
    <path
       style="fill:#7d6344;stroke:none;stroke-width:0.93749994px;stroke-linecap:butt;stroke-linejoin:miter;stroke-opacity:1;fill-opacity:0.63649851"
       d="m 211.63054,415.96501 c -0.90586,-1.02221 -1.85494,-2.00769 -2.71759,-3.06662 -0.1134,-0.13922 0.12698,-0.41172 0,-0.53868 -0.12696,-0.12697 -0.41171,0.12696 -0.53867,0 -0.0635,-0.0635 0.0635,-0.20586 0,-0.26935 -0.0635,-0.0635 -0.18904,0.0402 -0.26935,0 -0.11356,-0.0568 -0.15577,-0.21255 -0.26933,-0.26934 -0.16061,-0.0803 -0.41172,0.12697 -0.53869,0 -0.0635,-0.0635 0.0635,-0.20585 0,-0.26934 -0.0635,-0.0635 -0.17956,0 -0.26933,0 -0.0898,0 -0.17957,0 -0.26935,0 -1.16715,0 -2.33429,0 -3.50143,0 -0.71825,0 -1.43648,0 -2.15473,0 -0.0898,0 -0.20586,-0.0635 -0.26934,0 -0.0635,0.0635 0.0635,0.20586 0,0.26934 -0.0648,0.0648 -1.01255,-0.0648 -1.07736,0 -0.0635,0.0635 0.0635,0.20586 0,0.26934 -0.13467,0.13468 -0.67336,-0.13467 -0.80803,0 -0.12697,0.12697 0.0803,0.37808 0,0.53869 -0.0568,0.11356 -0.21256,0.15577 -0.26934,0.26934 -0.0401,0.0803 0.0401,0.18904 0,0.26934 -0.0568,0.11356 -0.21256,0.15578 -0.26934,0.26934 -0.0534,0.10679 0.055,0.75296 0,0.80802 -0.0635,0.0635 -0.20586,-0.0635 -0.26934,0 -0.12697,0.12697 0.12697,0.41172 0,0.53868 -0.0635,0.0635 -0.20586,-0.0635 -0.26934,0 -0.0122,0.0122 0,1.21972 0,1.34671 0,0.80802 0,1.61605 0,2.42407 0,0.0898 0,0.17956 0,0.26934 0,0.0898 -0.0635,0.20586 0,0.26934 0.0635,0.0635 0.20586,-0.0635 0.26934,0 0.12697,0.12697 -0.12697,0.41171 0,0.53868 0.0635,0.0635 0.18903,-0.0401 0.26934,0 1.12093,0.56047 -0.28793,-0.0186 0.26934,0.53868 0.12697,0.12697 0.41172,-0.12697 0.53868,0 0.0635,0.0635 -0.0635,0.20586 0,0.26935 0.0635,0.0635 0.20586,-0.0635 0.26935,0 0.0635,0.0635 -0.0635,0.20585 0,0.26934 0.0635,0.0635 0.20585,-0.0635 0.26934,0 0.0635,0.0635 -0.0635,0.20585 0,0.26934 0.0635,0.0635 0.20586,-0.0635 0.26933,0 0.12698,0.12697 -0.12696,0.41171 0,0.53868 0.12698,0.12697 0.41172,-0.12697 0.53869,0 0.0635,0.0635 -0.0635,0.20586 0,0.26934 0.0635,0.0635 0.20586,-0.0635 0.26934,0 0.0635,0.0635 -0.0635,0.20586 0,0.26934 0.12697,0.12697 0.41171,-0.12697 0.53868,0 0.0635,0.0635 -0.0635,0.20586 0,0.26934 0.12697,0.12697 0.41172,-0.12697 0.53868,0 0.0635,0.0635 -0.0635,0.20586 0,0.26934 0.0834,0.0834 1.26331,-0.0834 1.34671,0 0.0635,0.0635 -0.0635,0.20586 0,0.26934 0.0635,0.0635 0.17956,0 0.26933,0 0.0898,0 0.17957,0 0.26935,0 1.16714,0 2.33429,0 3.50143,0 0.0989,0 1.06653,-0.0108 1.07737,0 0.0635,0.0635 -0.0635,0.20586 0,0.26934 0.0635,0.0635 0.17955,0 0.26934,0 0.4489,0 0.8978,0 1.3467,0 0.0898,0 0.20586,0.0635 0.26934,0 0.0635,-0.0635 -0.0635,-0.20585 0,-0.26934 0.12697,-0.12696 0.41172,0.12697 0.53868,0 0.0635,-0.0635 -0.0635,-0.20585 0,-0.26934 0.0635,-0.0635 0.20586,0.0635 0.26934,0 0.0635,-0.0635 -0.0635,-0.20585 0,-0.26934 0.0635,-0.0635 0.17956,0 0.26935,0 0,-0.0898 -0.0635,-0.20586 0,-0.26934 0.0635,-0.0635 0.20585,0.0635 0.26934,0 0.0635,-0.0635 -0.0635,-0.20586 0,-0.26934 0.0635,-0.0635 0.20586,0.0635 0.26934,0 0.12697,-0.12697 -0.12697,-0.41171 0,-0.53868 0.0635,-0.0635 0.20585,-0.0635 0.26934,0 0.0635,0.0635 -0.0635,0.20585 0,0.26934 0.0635,0.0635 0.17956,0 0.26934,0 0.0898,0 0.17956,0 0.26934,0 0.74585,0 -0.20717,0.26934 0.53869,0.26934 0.0989,0 1.06651,-0.0108 1.07736,0 0.0635,0.0635 -0.0635,0.20586 0,0.26934 0.0635,0.0635 0.17956,0 0.26934,0 0.62846,0 1.25692,0 1.88538,0 0.0653,0 0.79936,0.009 0.80802,0 0.0635,-0.0635 0,-0.17956 0,-0.26934 0,-0.53868 0,-1.07736 0,-1.61605 0,-0.12699 0.0122,-1.33449 0,-1.3467 -0.0635,-0.0635 -0.20585,0.0635 -0.26933,0 -0.0635,-0.0635 0.0401,-0.18904 0,-0.26934 -0.0568,-0.11357 -0.21256,-0.15578 -0.26934,-0.26934 -0.0804,-0.16061 0.12696,-0.41172 0,-0.53868 -0.0635,-0.0635 -0.20586,0.0635 -0.26935,0 -0.12696,-0.12697 0.12698,-0.41172 0,-0.53869 -0.0635,-0.0635 -0.20585,0.0635 -0.26933,0 -0.12698,-0.12697 0.12696,-0.41171 0,-0.53868 -0.0635,-0.0635 -0.20587,0.0635 -0.26935,0 -0.0635,-0.0635 0.0635,-0.20586 0,-0.26934 -0.0635,-0.0635 -0.17955,0 -0.26934,0 -0.53868,0 -1.07736,0 -1.61604,0 -0.0898,0 -0.17956,0 -0.26935,0 -0.0898,0 -0.20585,0.0635 -0.26934,0 -0.0635,-0.0635 0.0635,-0.20586 0,-0.26934 -0.0635,-0.0635 -0.17956,0 -0.26933,0 -0.0898,0 -0.17956,0 -0.26935,0 -0.62471,0 -0.18064,0.0139 -1.32253,-0.16547 z"
       id="path2204"
       inkscape:connector-curvature="0" />
    <path
       style="fill:#7d6344;stroke:none;stroke-width:0.93749994px;stroke-linecap:butt;stroke-linejoin:miter;stroke-opacity:1;fill-opacity:0.44362018"
       d="m 267.88054,425.34001 c 0.0428,-0.001 2.05608,0.45089 2.44216,-0.32128 0.0803,-0.1606 -0.12697,-0.41171 0,-0.53868 0.0635,-0.0635 0.20585,0.0635 0.26934,0 0.0737,-0.0737 -0.073,-0.93125 0,-1.07736 0.0568,-0.11357 0.21256,-0.15578 0.26934,-0.26935 0.0354,-0.0708 0,-0.93652 0,-1.07736 0,-0.0898 0.0635,-0.20586 0,-0.26934 -0.0635,-0.0635 -0.17956,0 -0.26934,0 -0.0898,0 -0.17956,0 -0.26934,0 -1.25693,0 -2.51385,0 -3.77078,0 -0.0653,0 -0.79936,0.009 -0.80802,0 -0.0635,-0.0635 0.0635,-0.20586 0,-0.26934 -0.0834,-0.0834 -1.2633,0.0834 -1.3467,0 -0.0635,-0.0635 0.0635,-0.20586 0,-0.26934 -0.0834,-0.0834 -1.26331,0.0834 -1.34671,0 -0.0635,-0.0635 0.0635,-0.20586 0,-0.26934 -0.0834,-0.0834 -1.2633,0.0834 -1.3467,0 -0.0635,-0.0635 0.0635,-0.20586 0,-0.26934 -0.0635,-0.0635 -0.17957,0 -0.26934,0 -0.0898,0 -0.17956,0 -0.26935,0 -0.62846,0 -1.25692,0 -1.88538,0 -0.0898,0 -0.20586,-0.0635 -0.26934,0 -0.0635,0.0635 0.0635,0.20585 0,0.26934 -0.12697,0.12697 -0.37808,-0.0803 -0.53869,0 -1.12093,0.56046 0.28794,-0.0186 -0.26934,0.53868 -0.55727,0.55728 0.0217,-0.85159 -0.53868,0.26934 -0.0354,0.0708 0,0.93652 0,1.07736 0,0.0653 -0.008,0.79936 0,0.80803 0.0635,0.0635 0.20586,-0.0635 0.26935,0 0.0635,0.0635 -0.0635,0.20585 0,0.26934 0.0635,0.0635 0.20585,-0.0635 0.26933,0 0.0635,0.0635 -0.0635,0.20585 0,0.26934 0.0635,0.0635 0.20586,-0.0635 0.26934,0 0.0635,0.0635 -0.0635,0.20586 0,0.26934 0.0635,0.0635 0.20586,-0.0635 0.26935,0 0.0635,0.0635 -0.0635,0.20586 0,0.26934 0.12696,0.12697 0.41171,-0.12697 0.53868,0 0.0635,0.0635 -0.0635,0.20586 0,0.26934 0.12697,0.12697 0.37808,-0.0803 0.53868,0 0.11356,0.0568 0.15578,0.21256 0.26934,0.26934 0.14612,0.0731 1.00367,-0.0737 1.07736,0 0.0635,0.0635 -0.0635,0.20586 0,0.26934 0.0648,0.0648 1.01256,-0.0648 1.07737,0 0.0635,0.0635 -0.0635,0.20586 0,0.26934 0.0648,0.0648 1.01256,-0.0648 1.07736,0 0.0635,0.0635 -0.0635,0.20586 0,0.26935 0.0635,0.0635 0.17956,0 0.26935,0 0.0898,0 0.17956,0 0.26933,0 0.19092,0 1.54641,0.0348 1.61605,0 0.66565,-0.33283 -0.093,-0.26935 0.53868,-0.26935 0.0898,0 0.17956,0 0.26935,0 0.0898,0 0.20585,0.0635 0.26933,0 0.0635,-0.0635 -0.0635,-0.20585 0,-0.26934 0.0635,-0.0635 0.18074,0.0145 0.26935,0 0.35571,-0.0582 0.78236,-0.44816 1.05927,-0.2174 0.42514,0.35429 0.39596,1.03457 0.55677,1.56411 0.0261,0.0859 0.0898,0.26934 0,0.26934 -0.0898,0 0.0261,-0.18344 0,-0.26934 -0.16081,-0.52954 -0.37118,-1.04274 -0.55677,-1.56411"
       id="path2208"
       inkscape:connector-curvature="0" />
    <path
       style="fill:#7d6344;stroke:none;stroke-width:0.93749994px;stroke-linecap:butt;stroke-linejoin:miter;stroke-opacity:1;fill-opacity:0.29970327"
       d="m 305.38054,425.34001 c 0.25484,-0.1071 0.53262,-0.17082 0.76451,-0.32128 0.0753,-0.0489 -0.18657,-0.0348 -0.26935,0 -0.18138,0.0762 -0.29841,0.32128 -0.49516,0.32128 -2.51783,0 -0.38328,-0.12236 -0.85154,-0.59062 -0.0648,-0.0648 -1.01255,0.0648 -1.07736,0 -0.0635,-0.0635 0.0635,-0.20586 0,-0.26934 -0.13467,-0.13467 -0.67335,0.13467 -0.80802,0 -0.0635,-0.0635 0.0635,-0.20586 0,-0.26934 -0.12698,-0.12697 -0.41172,0.12697 -0.53869,0 -0.0635,-0.0635 0.0635,-0.20586 0,-0.26934 -0.0648,-0.0648 -1.01255,0.0648 -1.07737,0 -0.0635,-0.0635 0.0635,-0.20586 0,-0.26934 -0.0635,-0.0635 -0.17956,0 -0.26933,0 -0.0898,0 -0.17956,0 -0.26934,0 -1.07737,0 -2.15474,0 -3.23209,0 -0.4489,0 -0.89781,0 -1.34671,0 -0.0898,0 -0.20586,-0.0635 -0.26934,0 -0.0635,0.0635 0.0635,0.20585 0,0.26934 -0.0635,0.0635 -0.20586,-0.0635 -0.26934,0 -0.0635,0.0635 0.0635,0.20585 0,0.26934 -0.13467,0.13467 -0.67336,-0.13467 -0.80802,0 -0.0635,0.0635 0.0635,0.20586 0,0.26934 -0.0635,0.0635 -0.20586,-0.0635 -0.26934,0 -0.0635,0.0635 0.0635,0.20586 0,0.26934 -0.0635,0.0635 -0.20586,-0.0635 -0.26935,0 -0.0635,0.0635 0.0635,0.20586 0,0.26934 -0.0635,0.0635 -0.20585,-0.0635 -0.26934,0 -0.0635,0.0635 0.0635,0.20586 0,0.26934 -0.55727,0.55728 0.0217,-0.85159 -0.53868,0.26934 -0.0401,0.0803 0.0635,0.20586 0,0.26934 -0.0635,0.0635 -0.20586,-0.0635 -0.26934,0 -0.008,0.009 0,0.7427 0,0.80803 0,0.0898 -0.0635,0.20585 0,0.26934 0.055,0.0551 0.70123,-0.0534 0.80802,0 0.11357,0.0568 0.15578,0.21256 0.26934,0.26934 0.0804,0.0402 0.20586,-0.0635 0.26935,0 0.35911,0.35912 -0.44891,0.26934 0.26934,0.26934 0.71824,0 -0.0898,-0.0898 0.26933,0.26934 0.0635,0.0635 0.20586,-0.0635 0.26935,0 0.0635,0.0635 -0.0635,0.20586 0,0.26934 0.0635,0.0635 0.20585,-0.0635 0.26934,0 0.0635,0.0635 -0.0635,0.20586 0,0.26934 0.0635,0.0635 0.20586,-0.0635 0.26934,0 0.0635,0.0635 -0.0635,0.20586 0,0.26934 0.13467,0.13467 0.67335,-0.13467 0.80802,0 0.0635,0.0635 -0.0635,0.20586 0,0.26934 0.13467,0.13468 0.67336,-0.13467 0.80803,0 0.0635,0.0635 -0.0635,0.20586 0,0.26935 0.13466,0.13467 0.67335,-0.13467 0.80802,0 0.0635,0.0635 -0.0635,0.20585 0,0.26934 0.0635,0.0635 0.20586,-0.0635 0.26933,0 0.0635,0.0635 -0.0635,0.20585 0,0.26934 0.0635,0.0635 0.20586,-0.0635 0.26935,0 0.0635,0.0635 -0.0635,0.20585 0,0.26934 0.12696,0.12697 0.41171,-0.12697 0.53869,0 0.0635,0.0635 -0.0635,0.20586 0,0.26934 0.12696,0.12697 0.41171,-0.12697 0.53867,0 0.0635,0.0635 -0.0635,0.20586 0,0.26934 0.0737,0.0737 0.93125,-0.0731 1.07737,0 0.11356,0.0568 0.15577,0.21256 0.26933,0.26934 0.0819,0.041 0.68673,0 0.80804,0 0.71823,0 1.43648,0 2.15472,0 0.0653,0 0.79936,-0.009 0.80802,0 0.0635,0.0635 -0.0635,0.20586 0,0.26934 0.12697,0.12697 0.41171,-0.12697 0.53869,0 0.0635,0.0635 -0.0635,0.20586 0,0.26934 0.055,0.0551 0.70123,-0.0534 0.80802,0 0.11356,0.0568 0.15577,0.21256 0.26934,0.26934 0.10679,0.0534 0.75296,-0.0551 0.80802,0 0.0635,0.0635 -0.0635,0.20586 0,0.26934 0.0635,0.0635 0.17956,0 0.26934,0 0.53869,0 1.07736,0 1.61605,0 0.0989,0 1.06652,0.0108 1.07736,0 0.0635,-0.0635 -0.0635,-0.20585 0,-0.26934 0.12697,-0.12696 0.41172,0.12697 0.53868,0 0.0635,-0.0635 -0.0635,-0.20585 0,-0.26934 0.0635,-0.0635 0.20586,0.0635 0.26935,0 0.0635,-0.0635 -0.0635,-0.20585 0,-0.26934 0.0635,-0.0635 0.20585,0.0635 0.26933,0 0.038,-0.038 0.0277,-0.75277 0,-0.80802 -0.0568,-0.11356 -0.21256,-0.15578 -0.26933,-0.26934 0,-0.71824 0.0898,0.0898 -0.26935,-0.26934 -0.0635,-0.0635 0.0635,-0.20586 0,-0.26934 -0.0635,-0.0635 -0.20585,0.0635 -0.26934,0 -0.0635,-0.0635 0.0635,-0.20586 0,-0.26934 -0.12696,-0.12697 -0.41171,0.12696 -0.53868,0 -0.0635,-0.0635 0.0635,-0.20586 0,-0.26935 -0.0635,-0.0635 -0.20585,0.0635 -0.26934,0 -0.0635,-0.0635 0.0635,-0.20585 0,-0.26934 -0.0635,-0.0635 -0.20586,0.0635 -0.26934,0 -0.0635,-0.0635 0.0635,-0.20585 0,-0.26934 -0.12697,-0.12697 -0.41172,0.12697 -0.53868,0 -0.0635,-0.0635 0.0635,-0.20585 0,-0.26934 -0.0648,-0.0648 -1.01256,0.0648 -1.07737,0 -0.0635,-0.0635 0.0635,-0.20586 0,-0.26934 -0.12696,-0.12697 -0.41171,0.12697 -0.53868,0 -0.0635,-0.0635 0.0635,-0.20586 0,-0.26934 -0.12697,-0.12697 -0.41171,0.12697 -0.53868,0 -0.0635,-0.0635 0.0635,-0.20586 0,-0.26934 -0.0635,-0.0635 -0.20586,0.0635 -0.26934,0 -0.0122,-0.0122 0,-1.21971 0,-1.34671 0,-0.0898 0.0812,-0.23109 0,-0.26934 -0.31861,-0.15 -0.68924,-0.14493 -1.03385,-0.2174 z"
       id="path2210"
       inkscape:connector-curvature="0" />
    <path
       style="fill:#7d6344;stroke:none;stroke-width:0.93749994px;stroke-linecap:butt;stroke-linejoin:miter;stroke-opacity:1;fill-opacity:0.27151334"
       d="m 174.13054,415.96501 c 0.3716,0.14493 0.76009,0.25239 1.1148,0.43481 0.0798,0.0411 -0.17956,0 -0.26934,0 -0.26934,0 -0.53869,0 -0.80803,0 -0.0898,0 -0.17956,0 -0.26934,0 -0.0898,0 -0.31159,0.0792 -0.26934,0 0.10409,-0.19516 0.72244,-0.43481 0.50125,-0.43481 -0.37572,0 -0.68336,0.31639 -1.03993,0.43481 -0.17041,0.0566 -0.35912,0 -0.53868,0 -0.71825,0 -1.43649,0 -2.15473,0 -0.0898,0 -0.20586,-0.0635 -0.26934,0 -0.0635,0.0635 0.0635,0.20586 0,0.26934 -0.12697,0.12697 -0.37808,-0.0803 -0.53868,0 -1.12094,0.56047 0.28793,-0.0186 -0.26934,0.53868 -0.13468,0.13467 -0.67336,-0.13467 -0.80803,0 -0.0635,0.0635 0.0635,0.20586 0,0.26934 -0.0635,0.0635 -0.18904,-0.0401 -0.26934,0 -0.11356,0.0568 -0.15577,0.21256 -0.26934,0.26935 -0.1606,0.0803 -0.41171,-0.12697 -0.53868,0 -0.12697,0.12696 0.12697,0.41171 0,0.53868 -0.12697,0.12697 -0.37808,-0.0803 -0.53868,0 -0.11357,0.0568 -0.15578,0.21256 -0.26934,0.26934 -0.16061,0.0803 -0.41172,-0.12697 -0.53869,0 -0.0635,0.0635 0.0635,0.20585 0,0.26934 -0.13467,0.13467 -0.67335,-0.13467 -0.80802,0 -0.0635,0.0635 0.0635,0.20586 0,0.26934 -0.0635,0.0635 -0.20586,-0.0635 -0.26934,0 -0.0635,0.0635 0.0635,0.20586 0,0.26934 -0.0635,0.0635 -0.20586,-0.0635 -0.26934,0 -0.0635,0.0635 0.0635,0.20586 0,0.26934 -0.13467,0.13467 -0.67335,-0.13467 -0.80802,0 -0.0635,0.0635 0.0635,0.20586 0,0.26934 -0.0635,0.0635 -0.20586,-0.0635 -0.26934,0 -0.0635,0.0635 0.0402,0.18904 0,0.26934 -0.0568,0.11357 -0.21256,0.15578 -0.26935,0.26935 -0.0401,0.0803 0.0635,0.20585 0,0.26934 -0.12696,0.12696 -0.41171,-0.12697 -0.53868,0 -0.13467,0.13467 0.13467,0.67335 0,0.80802 -0.0635,0.0635 -0.20585,-0.0635 -0.26934,0 -0.12697,0.12697 0.12697,0.41171 0,0.53868 -0.0635,0.0635 -0.20586,-0.0635 -0.26934,0 -0.13467,0.13467 0.13467,0.67335 0,0.80802 -0.0635,0.0635 -0.17956,0 -0.26934,0 0,0.0898 0.0635,0.20586 0,0.26934 -0.0635,0.0635 -0.20586,-0.0635 -0.26934,0 -0.13467,0.13468 0.13467,0.67336 0,0.80803 -0.0635,0.0635 -0.20586,-0.0635 -0.26934,0 -0.0635,0.0635 0,0.17956 0,0.26934 0,0.0898 0,0.17956 0,0.26934 0,0.4489 0,0.8978 0,1.3467 0,0.0898 -0.0635,0.20586 0,0.26935 0.0635,0.0635 0.20585,-0.0635 0.26934,0 0.0635,0.0635 -0.0635,0.20585 0,0.26934 0.0635,0.0635 0.20586,-0.0635 0.26934,0 0.0635,0.0635 -0.0635,0.20585 0,0.26934 0.0635,0.0635 0.17956,0 0.26934,0 0,0.0898 -0.0635,0.20585 0,0.26934 0.0635,0.0635 0.20586,-0.0635 0.26934,0 0.0635,0.0635 -0.0635,0.20585 0,0.26934 0.12697,0.12697 0.41172,-0.12697 0.53868,0 0,0.71824 -0.0898,-0.0898 0.26934,0.26934 0.0635,0.0635 -0.0635,0.20586 0,0.26934 0.12697,0.12697 0.41172,-0.12697 0.53869,0 0.0635,0.0635 -0.0635,0.20586 0,0.26934 0.0635,0.0635 0.20585,-0.0635 0.26934,0 0.0635,0.0635 -0.0635,0.20586 0,0.26934 0.12697,0.12697 0.41171,-0.12697 0.53868,0 0.0635,0.0635 -0.0635,0.20586 0,0.26934 0.13467,0.13467 0.67335,-0.13467 0.80802,0 0.0635,0.0635 -0.0635,0.20586 0,0.26934 0.0122,0.0122 1.21971,0 1.34671,0 0.0898,0 0.20585,-0.0635 0.26934,0 0.0635,0.0635 -0.0635,0.20586 0,0.26935 0.0635,0.0635 0.17956,0 0.26934,0 0.53868,0 1.07736,0 1.61604,0 0.62847,0 1.25693,0 1.88539,0 0.0898,0 0.20586,-0.0635 0.26934,0 0.0635,0.0635 -0.0635,0.20585 0,0.26934 0.0635,0.0635 0.17956,0 0.26934,0 0.127,0 1.3345,-0.0122 1.34671,0 0.0635,0.0635 -0.0635,0.20585 0,0.26934 0.13467,0.13467 0.67335,-0.13467 0.80802,0 0.0635,0.0635 -0.0635,0.20585 0,0.26934 0.12697,0.12697 0.37808,-0.0803 0.53868,0 0.11357,0.0568 0.15578,0.21256 0.26934,0.26934 0.0803,0.0401 0.20586,-0.0635 0.26935,0 0.0635,0.0635 -0.0635,0.20586 0,0.26934 0.0635,0.0635 0.17956,0 0.26934,0 0.62846,0 1.25692,0 1.88538,0 0.0989,0 1.06653,0.0108 1.07737,0 0.0635,-0.0635 -0.0635,-0.20586 0,-0.26934 0.0635,-0.0635 0.18904,0.0401 0.26934,0 0.11356,-0.0568 0.15577,-0.21256 0.26934,-0.26934 0.0803,-0.0401 0.20586,0.0635 0.26934,0 0.0635,-0.0635 -0.0635,-0.20586 0,-0.26934 0.0635,-0.0635 0.20586,0.0635 0.26934,0 0,-0.39631 -0.0635,-0.20586 0.26934,-0.53868 0.0898,-0.0898 0.15578,-0.21256 0.26934,-0.26935 0.0803,-0.0401 0.22919,0.0803 0.26934,0 0.0803,-0.1606 -0.0803,-0.37807 0,-0.53868 0.0402,-0.0803 0.20586,0.0635 0.26934,0 0.0635,-0.0635 -0.0635,-0.20585 0,-0.26934 0.0635,-0.0635 0.20586,0.0635 0.26935,0 0.0635,-0.0635 -0.0635,-0.20586 0,-0.26934 0.0635,-0.0635 0.20585,0.0635 0.26934,0 0.0635,-0.0635 -0.0635,-0.20586 0,-0.26934 0.0635,-0.0635 0.20585,0.0635 0.26934,0 0.12697,-0.12697 -0.12697,-0.41171 0,-0.53868 0.0635,-0.0635 0.20585,0.0635 0.26934,0 0.13467,-0.13467 -0.13467,-0.67335 0,-0.80802 0.0635,-0.0635 0.20585,0.0635 0.26934,0 0.12697,-0.12697 -0.12697,-0.41172 0,-0.53869 0.0635,-0.0635 0.20586,0.0635 0.26934,0 0.0635,-0.0635 -0.0635,-0.20585 0,-0.26934 0.0635,-0.0635 0.20586,0.0635 0.26934,0 0.12697,-0.12697 -0.12697,-0.41171 0,-0.53868 0.0635,-0.0635 0.20586,0.0635 0.26934,0 0.0635,-0.0635 -0.0402,-0.18904 0,-0.26934 0.0568,-0.11357 0.21256,-0.15578 0.26934,-0.26934 0.0803,-0.16061 -0.12697,-0.41172 0,-0.53868 0.0635,-0.0635 0.20586,0.0635 0.26934,0 0.0635,-0.0635 -0.0635,-0.20586 0,-0.26934 0.0635,-0.0635 0.20586,0.0635 0.26934,0 0.0635,-0.0635 0,-0.17956 0,-0.26935 0,-0.0898 0,-0.17956 0,-0.26934 0,-0.4489 0,-0.8978 0,-1.3467 0,-0.0898 0.0635,-0.20586 0,-0.26934 -0.0635,-0.0635 -0.20585,0.0635 -0.26934,0 -0.12696,-0.12697 0.12697,-0.41172 0,-0.53868 -0.0635,-0.0635 -0.20585,0.0635 -0.26934,0 -0.0635,-0.0635 0.0635,-0.20586 0,-0.26934 -0.0635,-0.0635 -0.20585,0.0635 -0.26934,0 0,-0.71825 0.0898,0.0898 -0.26934,-0.26935 -0.0635,-0.0635 0.0635,-0.20585 0,-0.26934 -0.12697,-0.12697 -0.41171,0.12697 -0.53868,0 -0.12697,-0.12697 0.12697,-0.41171 0,-0.53868 -0.0635,-0.0635 -0.20586,0.0635 -0.26934,0 -0.0635,-0.0635 0.0635,-0.20586 0,-0.26934 -0.0635,-0.0635 -0.18904,0.0401 -0.26934,0 -0.11357,-0.0568 -0.17956,-0.17956 -0.26934,-0.26934 -0.0898,-0.0898 -0.21256,-0.15578 -0.26934,-0.26934 -0.0402,-0.0803 0.0635,-0.20586 0,-0.26934 -0.0635,-0.0635 -0.18904,0.0401 -0.26935,0 -0.11356,-0.0568 -0.15577,-0.21256 -0.26934,-0.26934 -0.71824,0 0.0898,0.0898 -0.26934,-0.26934 -0.12697,-0.12697 -0.41171,0.12696 -0.53868,0 -0.0635,-0.0635 0.0635,-0.20586 0,-0.26935 -0.12697,-0.12696 -0.37808,0.0803 -0.53868,0 -0.11357,-0.0568 -0.15578,-0.21255 -0.26934,-0.26934 -0.0803,-0.0401 -0.20586,0.0635 -0.26934,0 -0.0635,-0.0635 0.0635,-0.20585 0,-0.26934 -0.0635,-0.0635 -0.17956,0 -0.26934,0 -0.62847,0 -1.25693,0 -1.88539,0 -0.0898,0 -0.17956,0 -0.26934,0 -0.0898,0 -0.20586,0.0635 -0.26934,0 -0.0635,-0.0635 0.0635,-0.20585 0,-0.26934 -0.0635,-0.0635 -0.19344,0.048 -0.26934,0 -0.31009,-0.19586 -0.56364,-0.46943 -0.84546,-0.70415 z"
       id="path2222"
       inkscape:connector-curvature="0" />
    <path
       style="fill:#7d6344;stroke:none;stroke-width:0.93749994px;stroke-linecap:butt;stroke-linejoin:miter;stroke-opacity:1;fill-opacity:0.28189912"
       d="m 174.13054,383.15251 c -0.34664,0.39858 -0.64989,0.83951 -1.03993,1.19573 -0.0663,0.0606 -0.17956,0 -0.26934,0 -0.0898,0 -0.17956,0 -0.26934,0 -0.89781,0 -1.79561,0 -2.69341,0 -1.07737,0 -2.15473,0 -3.23209,0 -0.0898,0 -0.17956,0 -0.26935,0 -0.0898,0 -0.20585,-0.0635 -0.26934,0 -0.0635,0.0635 0.0635,0.20586 0,0.26935 -0.13467,0.13467 -0.67335,-0.13467 -0.80802,0 -0.0635,0.0635 0.0635,0.20585 0,0.26934 -0.13467,0.13467 -0.67335,-0.13467 -0.80802,0 -0.0635,0.0635 0.0635,0.20585 0,0.26934 -0.13467,0.13467 -0.67335,-0.13467 -0.80802,0 -0.0635,0.0635 0.0635,0.20585 0,0.26934 -0.12697,0.12697 -0.41172,-0.12697 -0.53869,0 -0.0635,0.0635 0.0635,0.20586 0,0.26934 -0.12696,0.12697 -0.41171,-0.12697 -0.53868,0 -0.0635,0.0635 0.0635,0.20586 0,0.26934 -0.0635,0.0635 -0.20586,-0.0635 -0.26934,0 -0.0635,0.0635 0.0635,0.20586 0,0.26934 -0.12697,0.12697 -0.41171,-0.12697 -0.53868,0 -0.0635,0.0635 0.0635,0.20586 0,0.26934 -0.0635,0.0635 -0.20586,-0.0635 -0.26934,0 -0.0635,0.0635 0.0635,0.20586 0,0.26934 -0.0635,0.0635 -0.20586,-0.0635 -0.26934,0 -0.0635,0.0635 0.0402,0.18904 0,0.26935 -0.56047,1.12093 0.0186,-0.28794 -0.53869,0.26934 -0.009,0.009 0,0.7427 0,0.80802 0,0.0898 0,0.17956 0,0.26934 0,0.0898 -0.0635,0.20586 0,0.26934 0.0635,0.0635 0.20586,-0.0635 0.26935,0 0.0635,0.0635 -0.0635,0.20586 0,0.26934 0.12696,0.12697 0.41171,-0.12697 0.53868,0 0.0635,0.0635 -0.0635,0.20586 0,0.26934 0.0635,0.0635 0.20585,-0.0635 0.26934,0 0.0635,0.0635 -0.0635,0.20586 0,0.26934 0.12697,0.12697 0.41171,-0.12697 0.53868,0 0.0635,0.0635 -0.0635,0.20586 0,0.26934 0.009,0.009 0.7427,0 0.80802,0 0.0898,0 0.17956,0 0.26934,0 0.0898,0 0.20586,-0.0635 0.26935,0 0.0635,0.0635 -0.0635,0.20586 0,0.26935 0.0108,0.0108 0.97845,0 1.07736,0 0.62846,0 1.25692,0 1.88539,0 0.0898,0 0.20585,0.0635 0.26934,0 0.0635,-0.0635 -0.0635,-0.20586 0,-0.26935 0.0648,-0.0648 1.01255,0.0648 1.07736,0 0.0635,-0.0635 -0.0635,-0.20585 0,-0.26934 0.12697,-0.12697 0.37808,0.0803 0.53868,0 0.11357,-0.0568 0.15578,-0.21256 0.26934,-0.26934 0.16355,-0.0818 1.4525,0.0818 1.61605,0 0.11356,-0.0568 0.15578,-0.21256 0.26934,-0.26934 0.10679,-0.0534 0.75296,0.0551 0.80802,0 0.0635,-0.0635 -0.0635,-0.20585 0,-0.26934 0.0122,-0.0122 1.21972,0 1.34671,0 0.0898,0 0.20585,0.0635 0.26934,0 0.0635,-0.0635 -0.0635,-0.20586 0,-0.26934 0.12697,-0.12697 0.41171,0.12697 0.53868,0 0.0635,-0.0635 -0.0635,-0.20586 0,-0.26934 0.0635,-0.0635 0.17956,0 0.26934,0 0.53868,0 1.07737,0 1.61605,0 0.0898,0 0.20585,0.0635 0.26934,0 0.0635,-0.0635 -0.0635,-0.20586 0,-0.26934 0.0635,-0.0635 0.20586,0.0635 0.26934,0 0.55728,-0.55728 -0.85159,0.0218 0.26934,-0.53868 0.0803,-0.0402 0.20586,0.0635 0.26934,0 0.13467,-0.13467 -0.13467,-0.67336 0,-0.80803 0.0635,-0.0635 0.20586,0.0635 0.26934,0 0.0648,-0.0648 -0.0648,-1.01255 0,-1.07736 0.0635,-0.0635 0.20586,0.0635 0.26934,0 0.0269,-0.0269 0.0269,-0.78109 0,-0.80802 -0.13467,-0.13467 -0.67335,0.13467 -0.80802,0 -0.0635,-0.0635 0.0635,-0.20586 0,-0.26935 -0.0108,-0.0108 -0.97845,0 -1.07736,0 -0.74586,0 0.20717,-0.26934 -0.53868,-0.26934 -0.054,0 -0.80787,0.004 -0.80803,0 -0.0128,-0.31806 0.15461,-0.61759 0.23191,-0.92639"
       id="path2224"
       inkscape:connector-curvature="0" />
    <path
       style="fill:#7d6344;stroke:none;stroke-width:0.93749994px;stroke-linecap:butt;stroke-linejoin:miter;stroke-opacity:1;fill-opacity:0.2462908"
       d="m 113.19305,387.84001 c 0.1244,0.18278 0.55599,0.42395 0.37321,0.54835 -0.18279,0.1244 -0.15433,-0.51708 -0.37321,-0.54835 -0.50742,-0.0725 -1.00579,0.1997 -1.51218,0.27901 -0.33899,0.0531 -0.73367,0 -1.07736,0 -1.07737,0 -2.15473,0 -3.2321,0 -0.1133,0 -1.53592,-0.0401 -1.61604,0 -0.11357,0.0568 -0.15578,0.21256 -0.26934,0.26934 -0.10679,0.0534 -0.75296,-0.0551 -0.80803,0 -0.0635,0.0635 0.0635,0.20586 0,0.26934 -0.0648,0.0648 -1.01255,-0.0648 -1.07736,0 -0.0635,0.0635 0.0635,0.20586 0,0.26934 -0.0834,0.0834 -1.2633,-0.0834 -1.34671,0 -0.0635,0.0635 0.0635,0.20586 0,0.26934 -0.0648,0.0648 -1.01255,-0.0648 -1.07736,0 -0.0635,0.0635 0.0635,0.20586 0,0.26934 -0.12697,0.12697 -0.41171,-0.12697 -0.53868,0 -0.0635,0.0635 0.0635,0.20586 0,0.26934 -0.12697,0.12697 -0.41171,-0.12696 -0.53868,0 -0.178574,0.17858 0.17857,0.36011 0,0.53869 -0.0635,0.0635 -0.205859,-0.0635 -0.269344,0 -0.13467,0.13467 0.134671,0.67335 0,0.80802 -0.06348,0.0635 -0.205856,-0.0635 -0.269341,0 -0.06348,0.0635 0,0.17956 0,0.26934 0,0.0898 0,0.17956 0,0.26934 0,0.71824 0,1.43649 0,2.15473 0,0.18734 -0.0487,1.2493 0,1.3467 0.893295,0.8933 -0.126968,-0.25393 0.269341,0.53869 0.05678,0.11356 0.212564,0.15577 0.269344,0.26934 0.0803,0.1606 -0.126971,0.41171 0,0.53868 0.12697,0.12697 0.41171,-0.12697 0.53868,0 0.0635,0.0635 0,0.17956 0,0.26934 0.0898,0 0.20586,-0.0635 0.26934,0 0.12697,0.12697 -0.12697,0.41171 0,0.53868 0.0635,0.0635 0.20586,-0.0635 0.26934,0 0.0635,0.0635 -0.0635,0.20586 0,0.26934 0.0635,0.0635 0.20586,-0.0635 0.26934,0 0.0635,0.0635 -0.0635,0.20586 0,0.26934 0.0635,0.0635 0.20586,-0.0635 0.26934,0 0.0635,0.0635 -0.0635,0.20586 0,0.26934 0.55728,0.55728 -0.0218,-0.85159 0.53868,0.26935 0.0402,0.0803 -0.0635,0.20585 0,0.26934 0.12697,0.12697 0.41172,-0.12697 0.53869,0 0.0635,0.0635 -0.0635,0.20585 0,0.26934 0.0635,0.0635 0.20585,-0.0635 0.26934,0 0.0635,0.0635 -0.0635,0.20585 0,0.26934 0.0635,0.0635 0.20585,-0.0635 0.26934,0 0.0635,0.0635 -0.0635,0.20585 0,0.26934 0.0635,0.0635 0.20586,-0.0635 0.26934,0 0.0635,0.0635 -0.0635,0.20586 0,0.26934 0.12697,0.12697 0.41171,-0.12697 0.53868,0 0.0635,0.0635 -0.0635,0.20586 0,0.26934 0.0635,0.0635 0.18904,-0.0401 0.26934,0 0.11357,0.0568 0.15578,0.21256 0.26934,0.26934 0.16061,0.0803 0.41172,-0.12697 0.53869,0 0.0635,0.0635 -0.0635,0.20586 0,0.26934 0.0635,0.0635 0.20585,-0.0635 0.26934,0 0.0635,0.0635 -0.0635,0.20586 0,0.26934 0.12697,0.12697 0.37807,-0.0803 0.53868,0 0.11356,0.0568 0.15578,0.21256 0.26934,0.26934 0.1606,0.0803 0.41171,-0.12696 0.53868,0 0.0635,0.0635 -0.0635,0.20586 0,0.26935 0.0551,0.0551 0.70123,-0.0534 0.80802,0 0.11357,0.0568 0.15578,0.21256 0.26935,0.26934 0.16928,0.0846 0.90807,-0.0847 1.07736,0 0.11356,0.0568 0.15578,0.21256 0.26934,0.26934 0.10679,0.0534 0.75296,-0.0551 0.80802,0 0.0635,0.0635 -0.0635,0.20585 0,0.26934 0.0635,0.0635 0.17956,0 0.26934,0 0.0898,0 0.17956,0 0.26935,0 0.71824,0 1.43648,0 2.15472,0 0.0898,0 0.17956,0 0.26934,0 0.0898,0 0.20586,-0.0635 0.26934,0 0.0635,0.0635 -0.0635,0.20586 0,0.26934 0.0635,0.0635 0.17957,0 0.26935,0 0.0898,0 0.17956,0 0.26934,0 1.3467,0 2.69341,0 4.04011,0 1.34671,0 2.69341,0 4.04012,0 0.0898,0 0.17956,0 0.26934,0 0.0898,0 0.20585,0.0635 0.26934,0 0.0635,-0.0635 0,-0.17956 0,-0.26934 0,-0.18734 0.0487,-1.2493 0,-1.34671 -0.0568,-0.11356 -0.21256,-0.15577 -0.26934,-0.26934 -0.0803,-0.1606 0.12697,-0.41171 0,-0.53868 -0.0635,-0.0635 -0.20586,0.0635 -0.26934,0 -0.13468,-0.13467 0.13467,-0.67335 0,-0.80802 -0.0635,-0.0635 -0.20586,0.0635 -0.26935,0 -0.0648,-0.0648 0.0648,-1.01255 0,-1.07737 -0.0635,-0.0635 -0.20585,0.0635 -0.26934,0 -0.0635,-0.0635 0,-0.17956 0,-0.26934 0,-0.53868 0,-1.07736 0,-1.61604 0,-0.0898 0,-0.17956 0,-0.26934 0,-0.0898 0.0635,-0.20586 0,-0.26934 -0.0635,-0.0635 -0.20585,0.0635 -0.26934,0 -0.0648,-0.0648 0.0648,-1.01256 0,-1.07737 -0.0635,-0.0635 -0.20585,0.0635 -0.26934,0 -0.0635,-0.0635 0.0402,-0.18904 0,-0.26934 -0.0568,-0.11356 -0.21256,-0.15578 -0.26934,-0.26934 -0.0401,-0.0803 0.0635,-0.20586 0,-0.26934 -0.0635,-0.0635 -0.20586,0.0635 -0.26934,0 -0.12697,-0.12697 0.12697,-0.41171 0,-0.53868 -0.0635,-0.0635 -0.20586,0.0635 -0.26934,0 -0.12697,-0.12697 0.12697,-0.41172 0,-0.53868 -0.0635,-0.0635 -0.20586,0.0635 -0.26934,0 -0.12697,-0.12697 0.12697,-0.41172 0,-0.53869 -0.12697,-0.12696 -0.41172,0.12697 -0.53868,0 -0.12697,-0.12696 0.12696,-0.41171 0,-0.53868 -0.0635,-0.0635 -0.20586,0.0635 -0.26935,0 -0.12696,-0.12697 0.12697,-0.41171 0,-0.53868 -0.12696,-0.12697 -0.41171,0.12697 -0.53868,0 -0.0635,-0.0635 0.0635,-0.20586 0,-0.26934 -0.0635,-0.0635 -0.20585,0.0635 -0.26934,0 -0.0635,-0.0635 0.0635,-0.20586 0,-0.26934 -0.0635,-0.0635 -0.20585,0.0635 -0.26934,0 -0.0635,-0.0635 0.0635,-0.20586 0,-0.26934 -0.0635,-0.0635 -0.20586,0.0635 -0.26934,0 -0.0635,-0.0635 0.0635,-0.20586 0,-0.26934 -0.12697,-0.12697 -0.41171,0.12696 -0.53868,0 -0.0635,-0.0635 0.0635,-0.20586 0,-0.26935 -0.0635,-0.0635 -0.20586,0.0635 -0.26934,0 -0.0635,-0.0635 0.0635,-0.20585 0,-0.26934 -0.12697,-0.12697 -0.41172,0.12697 -0.53868,0 -0.0635,-0.0635 0.0635,-0.20585 0,-0.26934 -0.12697,-0.12697 -0.37808,0.0803 -0.53869,0 -0.11356,-0.0568 -0.15577,-0.21256 -0.26934,-0.26934 -0.0803,-0.0401 -0.20585,0.0635 -0.26934,0 -0.0635,-0.0635 0.0635,-0.20585 0,-0.26934 -0.0635,-0.0635 -0.20586,0.0635 -0.26934,0 -0.0635,-0.0635 0,-0.17956 0,-0.26934 -0.0898,0 -0.20586,0.0635 -0.26934,0 -0.0635,-0.0635 0.0635,-0.20586 0,-0.26934 -0.0308,-0.0308 -0.4285,0.026 -0.53868,0 -0.30936,-0.0731 -0.60793,-0.18601 -0.91189,-0.27901 z"
       id="path2228"
       inkscape:connector-curvature="0" />
    <path
       style="fill:#7d6344;stroke:none;stroke-width:0.93749994px;stroke-linecap:butt;stroke-linejoin:miter;stroke-opacity:1;fill-opacity:0.4436202"
       d="m 146.00554,401.90251 c 0.22989,0.34342 0.53355,0.64762 0.68965,1.03026 0.0339,0.0831 -0.17956,0 -0.26934,0 -0.0898,0 -0.17956,0 -0.26934,0 -0.0898,0 -0.17956,0 -0.26934,0 -0.0898,0 -0.27959,0.0892 -0.26934,0 0.0419,-0.36453 0.71591,-0.86616 0.38771,-1.03026 -0.35742,-0.17871 -0.58925,0.54638 -0.92639,0.76092 -0.0459,0.0292 -0.71513,0 -0.80802,0 -0.0898,0 -0.20586,0.0635 -0.26934,0 -0.0635,-0.0635 0.0635,-0.20586 0,-0.26934 -0.0551,-0.0551 -0.70124,0.0534 -0.80803,0 -0.11356,-0.0568 -0.15578,-0.21256 -0.26934,-0.26934 -0.10679,-0.0534 -0.75296,0.0551 -0.80802,0 -0.0635,-0.0635 0.0635,-0.20586 0,-0.26934 -0.0635,-0.0635 -0.17956,0 -0.26934,0 -0.4489,0 -0.89781,0 -1.34671,0 -0.0898,0 -0.20585,0.0635 -0.26934,0 -0.0635,-0.0635 0.0635,-0.20586 0,-0.26934 -0.009,-0.009 -0.7427,0 -0.80802,0 -1.34671,0 -2.69341,0 -4.04012,0 -0.71824,0 -1.43648,0 -2.15472,0 -0.0898,0 -0.17956,0 -0.26934,0 -0.0898,0 -0.20586,-0.0635 -0.26935,0 -0.0635,0.0635 0.0635,0.20585 0,0.26934 -0.71428,0.71428 0.17561,-0.71429 -0.53868,0 -0.0635,0.0635 0.0635,0.20585 0,0.26934 -0.12697,0.12697 -0.41171,-0.12697 -0.53868,0 -0.0122,0.0122 0,1.21971 0,1.3467 0,0.53869 0,1.07737 0,1.61605 0,0.0898 -0.0635,0.20586 0,0.26934 0.0635,0.0635 0.20586,-0.0635 0.26934,0 0.13467,0.13467 -0.13467,0.67335 0,0.80802 0.0635,0.0635 0.20586,-0.0635 0.26934,0 0.12697,0.12697 -0.0803,0.37808 0,0.53869 0.0568,0.11356 0.21256,0.15577 0.26934,0.26934 0.0402,0.0803 -0.0635,0.20585 0,0.26934 0.0635,0.0635 0.20586,-0.0635 0.26934,0 0.0635,0.0635 -0.0401,0.18904 0,0.26934 0.11357,0.22713 0.42512,0.31155 0.53869,0.53868 0.0402,0.0803 -0.0635,0.20586 0,0.26934 0.0635,0.0635 0.20585,-0.0635 0.26934,0 0.12697,0.12697 -0.12697,0.41171 0,0.53868 0.12697,0.12697 0.41171,-0.12697 0.53868,0 0.0635,0.0635 -0.0635,0.20586 0,0.26934 0.0635,0.0635 0.20586,-0.0635 0.26934,0 0.0635,0.0635 -0.0635,0.20586 0,0.26935 0.0635,0.0635 0.20586,-0.0635 0.26934,0 0.0635,0.0635 -0.0635,0.20585 0,0.26934 0.0635,0.0635 0.20586,-0.0635 0.26934,0 0.0635,0.0635 -0.0635,0.20585 0,0.26934 0.0737,0.0737 0.93125,-0.0731 1.07737,0 0.11356,0.0568 0.15577,0.21256 0.26934,0.26934 0.10679,0.0534 0.75296,-0.0551 0.80802,0 0.0635,0.0635 -0.0635,0.20585 0,0.26934 0.0635,0.0635 0.20586,-0.0635 0.26934,0 0.0635,0.0635 -0.0635,0.20586 0,0.26934 0.0635,0.0635 0.20586,-0.0635 0.26934,0 0.0635,0.0635 -0.0635,0.20586 0,0.26934 0.0635,0.0635 0.20586,-0.0635 0.26934,0 0,0.71824 -0.0898,-0.0898 0.26934,0.26934 0.0635,0.0635 -0.0635,0.20586 0,0.26934 0.12697,0.12697 0.41172,-0.12697 0.53869,0 0.13467,0.13467 -0.13468,0.67336 0,0.80803 0.0635,0.0635 0.20585,-0.0635 0.26934,0 0.0635,0.0635 -0.0635,0.20585 0,0.26934 0.0635,0.0635 0.20585,0.0635 0.26934,0 0.0635,-0.0635 -0.0635,-0.20586 0,-0.26934 0.17857,-0.17858 0.36011,0.17857 0.53868,0 0.0635,-0.0635 -0.0635,-0.20586 0,-0.26935 0.0635,-0.0635 0.20586,0.0635 0.26934,0 0.35912,-0.35912 -0.4489,-0.26934 0.26934,-0.26934 0.0898,0 0.17956,0 0.26934,0 0.0898,0 0.20586,0.0635 0.26934,0 0.0635,-0.0635 -0.0635,-0.20585 0,-0.26934 0.0635,-0.0635 0.18904,0.0402 0.26934,0 0.11357,-0.0568 0.15578,-0.21256 0.26935,-0.26934 0.28571,-0.14286 0.25296,0.14286 0.53868,0 1.12093,-0.56046 -0.28794,0.0186 0.26934,-0.53868 0.17857,-0.17857 0.36011,0.17857 0.53868,0 0.0635,-0.0635 -0.0635,-0.20586 0,-0.26934 0.12697,-0.12697 0.41171,0.12697 0.53868,0 0.12697,-0.12697 -0.12697,-0.41171 0,-0.53868 0.0635,-0.0635 0.20586,0.0635 0.26934,0 0.0635,-0.0635 -0.0635,-0.20586 0,-0.26934 0.0635,-0.0635 0.20586,0.0635 0.26934,0 0.0635,-0.0635 -0.0635,-0.20586 0,-0.26934 0.0635,-0.0635 0.20586,0.0635 0.26935,0 0.0635,-0.0635 -0.0635,-0.20586 0,-0.26935 0.0635,-0.0635 0.20585,0.0635 0.26934,0 0.12696,-0.12696 -0.12697,-0.41171 0,-0.53868 0.55727,-0.55727 -0.0218,0.85159 0.53868,-0.26934 0.0402,-0.0803 -0.0635,-0.20586 0,-0.26934 0.12697,-0.12697 0.41171,0.12697 0.53868,0 0.12697,-0.12697 -0.12697,-0.41171 0,-0.53868 0.0635,-0.0635 0.20586,0.0635 0.26934,0 0.12697,-0.12697 -0.0803,-0.37808 0,-0.53868 0.0568,-0.11357 0.21256,-0.15578 0.26934,-0.26934 0.0803,-0.16061 -0.12697,-0.41172 0,-0.53869 0.0635,-0.0635 0.20586,0.0635 0.26934,0 0.13467,-0.13467 -0.13467,-0.67335 0,-0.80802 0.0635,-0.0635 0.20586,0.0635 0.26934,0 0.0551,-0.0551 -0.0534,-0.70123 0,-0.80802 0.0568,-0.11357 0.21256,-0.15578 0.26934,-0.26934 0.0137,-0.0274 0.0123,-1.32348 0,-1.34671 -0.19371,-0.36504 -0.45976,-0.68684 -0.68965,-1.03026 z"
       id="path2230"
       inkscape:connector-curvature="0" />
    <path
       style="fill:#7d6344;stroke:none;stroke-width:0.93749994px;stroke-linecap:butt;stroke-linejoin:miter;stroke-opacity:1;fill-opacity:0.4436202"
       d="m 113.19305,411.27751 c -0.41428,-0.44729 -0.78683,-0.93722 -1.24284,-1.34187 -0.0671,-0.0596 -0.17956,0 -0.26934,0 -0.4489,0 -0.8978,0 -1.34671,0 -0.0653,0 -0.79936,-0.009 -0.80802,0 -0.0635,0.0635 0.0635,0.20585 0,0.26934 -0.0635,0.0635 -0.20586,-0.0635 -0.26934,0 -0.0635,0.0635 0.0635,0.20585 0,0.26934 -0.13467,0.13467 -0.67335,-0.13467 -0.80802,0 -0.0635,0.0635 0.0635,0.20586 0,0.26934 -0.0635,0.0635 -0.20586,-0.0635 -0.26934,0 -0.0635,0.0635 0.0635,0.20586 0,0.26934 -0.0635,0.0635 -0.20586,-0.0635 -0.26934,0 -0.0269,0.0269 -0.0269,0.78109 0,0.80802 0.12696,0.12697 0.41171,-0.12696 0.53868,0 0.0635,0.0635 -0.0635,0.20586 0,0.26934 0.17045,0.17046 0.36822,-0.17045 0.53868,0 0,0.71825 -0.0898,-0.0898 0.26934,0.26935 0.0635,0.0635 -0.0635,0.20585 0,0.26934 0.12697,0.12696 0.41171,-0.12697 0.53868,0 0.0635,0.0635 -0.0635,0.20585 0,0.26934 0.0635,0.0635 0.20586,-0.0635 0.26934,0 0.0635,0.0635 -0.0635,0.20585 0,0.26934 0.0635,0.0635 0.20586,-0.0635 0.26934,0 0.0635,0.0635 -0.0635,0.20586 0,0.26934 0.0635,0.0635 0.20586,-0.0635 0.26935,0 0.0635,0.0635 -0.0635,0.20586 0,0.26934 0.13467,0.13467 0.67335,-0.13467 0.80802,0 0.0635,0.0635 -0.0635,0.20586 0,0.26934 0.13467,0.13467 0.67335,-0.13467 0.80802,0 0.0635,0.0635 -0.0635,0.20586 0,0.26934 0.12697,0.12697 0.41171,-0.12697 0.53868,0 0.0635,0.0635 -0.0635,0.20586 0,0.26934 0.0635,0.0635 0.20586,-0.0635 0.26934,0 0.0635,0.0635 -0.0635,0.20586 0,0.26934 0.0635,0.0635 0.20586,-0.0635 0.26934,0 0.0635,0.0635 -0.0635,0.20586 0,0.26935 0.009,0.009 0.74271,0 0.80803,0 0.0898,0 0.17956,0 0.26934,0 0.0898,0 0.20586,0.0635 0.26934,0 0.0635,-0.0635 -0.0401,-0.18904 0,-0.26935 0.56047,-1.12093 -0.0186,0.28794 0.53868,-0.26934 0.12697,-0.12697 -0.12697,-0.41171 0,-0.53868 0.0635,-0.0635 0.20586,0.0635 0.26934,0 0.0108,-0.0108 0,-0.97845 0,-1.07736 0,-0.0898 0,-0.17956 0,-0.26934 0,-0.0898 0.0635,-0.20586 0,-0.26934 -0.0635,-0.0635 -0.18904,0.0401 -0.26934,0 -1.12093,-0.56047 0.28794,0.0186 -0.26934,-0.53869 -0.0635,-0.0635 -0.20586,0.0635 -0.26934,0 -0.0635,-0.0635 0.0635,-0.20585 0,-0.26934 -0.0303,-0.0303 -0.42862,0.0256 -0.53868,0 -0.30919,-0.0718 -0.60793,-0.18278 -0.91189,-0.27417 z"
       id="path2240"
       inkscape:connector-curvature="0" />
    <path
       style="fill:#7d6344;stroke:none;stroke-width:0.93749994px;stroke-linecap:butt;stroke-linejoin:miter;stroke-opacity:1;fill-opacity:0.26112759"
       d="m 131.94304,420.65251 c -0.64899,0.73716 -1.29799,1.47433 -1.94699,2.21149 -0.0898,0 -0.20585,-0.0635 -0.26934,0 -0.35912,0.35913 0.44891,0.26934 -0.26934,0.26934 -0.0898,0 -0.17956,0 -0.26934,0 -0.0898,0 -0.20585,-0.0635 -0.26934,0 -0.0635,0.0635 0.0635,0.20586 0,0.26935 -0.12697,0.12696 -0.41171,-0.12697 -0.53868,0 -0.0635,0.0635 0.0635,0.20585 0,0.26934 -0.0635,0.0635 -0.20586,-0.0635 -0.26934,0 -0.0635,0.0635 0.0635,0.20585 0,0.26934 -0.0635,0.0635 -0.17956,0 -0.26934,0 -0.0898,0 -0.17956,0 -0.26934,0 -0.71825,0 0.0898,-0.0898 -0.26934,0.26934 -0.13468,0.13467 -0.67336,-0.13467 -0.80803,0 -0.0635,0.0635 0.0635,0.20586 0,0.26934 -0.17857,0.17857 -0.36011,-0.17857 -0.53868,0 -0.0635,0.0635 0.0635,0.20586 0,0.26934 -0.0635,0.0635 -0.20586,-0.0635 -0.26934,0 -0.0635,0.0635 0.0635,0.20586 0,0.26934 -0.12697,0.12697 -0.41171,-0.12697 -0.53868,0 -0.0635,0.0635 0.0635,0.20586 0,0.26934 -0.13467,0.13467 -0.67335,-0.13467 -0.80803,0 -0.0635,0.0635 0.0635,0.20586 0,0.26934 -0.0635,0.0635 -0.20585,-0.0635 -0.26934,0 -0.12697,0.12697 0.12697,0.41172 0,0.53869 -0.0635,0.0635 -0.20585,-0.0635 -0.26934,0 -0.0635,0.0635 -0.0635,0.20585 0,0.26934 0.0635,0.0635 0.18904,-0.0402 0.26934,0 0.11357,0.0568 0.15578,0.21255 0.26934,0.26934 0.16061,0.0803 0.41172,-0.12697 0.53869,0 0.12696,0.12697 -0.12697,0.41171 0,0.53868 0.12696,0.12697 0.41171,-0.12697 0.53868,0 0.0635,0.0635 -0.0635,0.20586 0,0.26934 0.0122,0.0122 1.21971,0 1.3467,0 0.71825,0 1.43649,0 2.15473,0 0.0898,0 0.20586,0.0635 0.26934,0 0.0635,-0.0635 -0.0635,-0.20586 0,-0.26934 0.0635,-0.0635 0.20586,0.0635 0.26934,0 0.0635,-0.0635 -0.0635,-0.20586 0,-0.26934 0.12697,-0.12697 0.41172,0.12697 0.53868,0 0.0635,-0.0635 -0.0635,-0.20586 0,-0.26934 0.12697,-0.12697 0.41172,0.12697 0.53869,0 0.0635,-0.0635 -0.0635,-0.20586 0,-0.26934 0.12696,-0.12697 0.41171,0.12696 0.53868,0 0.0635,-0.0635 -0.0635,-0.20586 0,-0.26934 0.0635,-0.0635 0.20586,0.0635 0.26934,0 0.0635,-0.0635 -0.0635,-0.20586 0,-0.26935 0.0635,-0.0635 0.20586,0.0635 0.26934,0 0.35912,-0.35912 -0.4489,-0.26934 0.26934,-0.26934 0.4489,0 0.8978,0 1.34671,0 0.0898,0 0.20585,0.0635 0.26934,0 0.0635,-0.0635 -0.0635,-0.20585 0,-0.26934 0.12697,-0.12697 0.41171,0.12697 0.53868,0 0.0635,-0.0635 -0.0898,-0.26934 0,-0.26934 0.0898,0 0,0.35912 0,0.26934 0,-1.25692 0,-2.51385 0,-3.77077 0,-0.0898 0,-0.17956 0,-0.26934 0,-0.0898 0.0635,-0.20586 0,-0.26934 -0.009,-0.009 -0.7427,0 -0.80802,0 -0.62495,0 -0.18386,0.0274 -1.28511,-0.32611 z"
       id="path2242"
       inkscape:connector-curvature="0" />
    <path
       style="fill:#7d6344;stroke:none;stroke-width:0.93749994px;stroke-linecap:butt;stroke-linejoin:miter;stroke-opacity:1;fill-opacity:0.4436202"
       d="m 188.19304,397.21501 c 0.27871,-0.6412 0.22553,-0.47708 0.78868,-0.47708 0.0898,0 0.20586,-0.0635 0.26935,0 0.0635,0.0635 -0.0635,0.20586 0,0.26934 0.0635,0.0635 0.20585,-0.0635 0.26934,0 0.0635,0.0635 -0.0635,0.20586 0,0.26934 0.13467,0.13467 0.67335,-0.13467 0.80802,0 0.0635,0.0635 -0.0635,0.20586 0,0.26934 0.0635,0.0635 0.20586,-0.0635 0.26935,0 0.0635,0.0635 -0.0635,0.20586 0,0.26934 0.0635,0.0635 0.17956,0 0.26933,0 0.0898,0 0.20586,0.0635 0.26934,0 0.0635,-0.0635 -0.0401,-0.18904 0,-0.26934 0.0568,-0.11356 0.21256,-0.15577 0.26935,-0.26934 0.0803,-0.1606 -0.12698,-0.41171 0,-0.53868 0.12696,-0.12697 0.41171,0.12697 0.53868,0 0.12696,-0.12697 -0.12697,-0.41171 0,-0.53868 0.0635,-0.0635 0.20585,0.0635 0.26934,0 0.0269,-0.0269 0.0269,-0.78109 0,-0.80803 -0.12698,-0.12696 -0.41171,0.12697 -0.53869,0 -0.0635,-0.0635 0.0635,-0.20585 0,-0.26934 -0.12696,-0.12696 -0.41171,0.12697 -0.53868,0 -0.0635,-0.0635 0.0635,-0.20585 0,-0.26934 -0.12696,-0.12697 -0.41171,0.12697 -0.53867,0 -0.0635,-0.0635 0.0401,-0.18904 0,-0.26934 -0.0568,-0.11356 -0.15579,-0.21256 -0.26935,-0.26934 -0.0552,-0.0276 -0.77004,-0.038 -0.80802,0 -0.12697,0.12697 0.12697,0.41171 0,0.53868 -0.0635,0.0635 -0.20586,-0.0635 -0.26934,0 -0.12697,0.12697 0.12696,0.41172 0,0.53868 -0.0635,0.0635 -0.20586,-0.0635 -0.26935,0 -0.0635,0.0635 0.0401,0.18904 0,0.26935 -0.0568,0.11356 -0.21256,0.15577 -0.26933,0.26934 -0.0401,0.0803 0,0.17956 0,0.26934 -0.17312,0.33858 -0.34623,0.67717 -0.51935,1.01576 z"
       id="path2244"
       inkscape:connector-curvature="0" />
    <path
       style="fill:#7d6344;stroke:none;stroke-width:0.93749994px;stroke-linecap:butt;stroke-linejoin:miter;stroke-opacity:1;fill-opacity:0.89614242"
       d="m 235.06804,420.65251 c 0.16989,-0.16064 0.34904,-0.65181 0.50967,-0.48192 0.16064,0.1699 -0.3575,0.30439 -0.50967,0.48192 -1.11184,1.29714 -1.10637,0.93223 -1.10637,1.94215 0,0.0898 0,0.17956 0,0.26934 0,0.0898 -0.0635,0.20586 0,0.26934 0.13467,0.13468 0.67335,-0.13467 0.80802,0 0.0635,0.0635 -0.0635,0.20586 0,0.26935 0.0635,0.0635 0.17956,0 0.26934,0 0.71824,0 1.43649,0 2.15473,0 0.0898,0 0.17956,0 0.26934,0 0.0898,0 0.20585,0.0635 0.26934,0 0.0635,-0.0635 0,-0.17956 0,-0.26935 0,-0.0898 0,-0.17956 0,-0.26934 0,-0.0989 0.0109,-1.06652 0,-1.07736 -0.0635,-0.0635 -0.20585,0.0635 -0.26934,0 -0.12697,-0.12697 0.12696,-0.41171 0,-0.53868 -0.0635,-0.0635 -0.20586,0.0635 -0.26934,0 -0.12697,-0.12697 0.12697,-0.41172 0,-0.53868 -0.0635,-0.0635 -0.20586,0.0635 -0.26934,0 -0.0635,-0.0635 0.0635,-0.20586 0,-0.26934 -0.0635,-0.0635 -0.20586,0.0635 -0.26934,0 -0.0635,-0.0635 0.0635,-0.20586 0,-0.26935 -0.0635,-0.0635 -0.17956,0 -0.26935,0 -0.65394,0 -0.18776,-0.0375 -1.31769,0.48192 z"
       id="path2246"
       inkscape:connector-curvature="0" />
    <path
       style="fill:#7d6344;stroke:none;stroke-width:0.93749994px;stroke-linecap:butt;stroke-linejoin:miter;stroke-opacity:1;fill-opacity:0.55489612"
       d="m 141.31804,387.84001 c -0.18278,0.18278 -0.40437,0.33366 -0.54835,0.54835 -0.0439,0.0655 0,0.93995 0,1.07736 0,0.0898 0.0635,0.20586 0,0.26934 -0.35912,0.35913 -0.26934,-0.4489 -0.26934,0.26935 0,0.0653 0.009,0.79936 0,0.80802 -0.0635,0.0635 -0.20585,-0.0635 -0.26934,0 -0.0122,0.0122 0,1.21971 0,1.3467 0,0.0898 -0.0635,0.20586 0,0.26934 0.009,0.009 0.7427,0 0.80802,0 0.0989,0 1.06653,-0.0108 1.07737,0 0.0635,0.0635 -0.0635,0.20586 0,0.26935 0.0635,0.0635 0.20586,-0.0635 0.26934,0 0.0635,0.0635 -0.0635,0.20585 0,0.26934 0.0635,0.0635 0.17956,0 0.26934,0 0.62846,0 1.25692,0 1.88539,0 0.0989,0 1.06652,0.0108 1.07736,0 0.009,-0.009 0,-0.7427 0,-0.80803 0,-0.71824 -0.0898,0.0898 0.26934,-0.26934 0.0635,-0.0635 0,-0.17956 0,-0.26934 0,-0.0898 0,-0.17956 0,-0.26934 0,-0.4489 0,-0.8978 0,-1.3467 0,-0.0898 0.0635,-0.20586 0,-0.26935 -0.13467,-0.13467 -0.67335,0.13468 -0.80802,0 -0.0635,-0.0635 0.0635,-0.20585 0,-0.26934 -0.0122,-0.0122 -1.21971,0 -1.34671,0 -0.0898,0 -0.20585,0.0635 -0.26934,0 -0.0635,-0.0635 0.0635,-0.20585 0,-0.26934 -0.12697,-0.12697 -0.41171,0.12697 -0.53868,0 -0.0635,-0.0635 0.0635,-0.20585 0,-0.26934 -0.12697,-0.12697 -0.41171,0.12697 -0.53868,0 -0.0635,-0.0635 0.0635,-0.20585 0,-0.26934 -0.12697,-0.12697 -0.41324,0.12848 -0.53868,0 -0.22679,-0.23228 -0.35268,-0.54513 -0.52902,-0.81769 z"
       id="path2248"
       inkscape:connector-curvature="0" />
    <path
       style="fill:#7d6344;stroke:none;stroke-width:0.93749994px;stroke-linecap:butt;stroke-linejoin:miter;stroke-opacity:1;fill-opacity:0.88278931"
       d="m 169.44304,401.90251 c -0.93887,0.52298 -1.85861,1.08188 -2.81661,1.56894 -0.16007,0.0814 -0.41172,-0.12697 -0.53869,0 -0.0635,0.0635 0.0635,0.20586 0,0.26935 -0.0635,0.0635 -0.20585,-0.0635 -0.26934,0 -0.0635,0.0635 0.0898,0.26934 0,0.26934 -0.0898,0 0,-0.35913 0,-0.26934 0,0.26934 0,0.53868 0,0.80802 0,0.0898 -0.0635,0.20585 0,0.26934 0.71825,0 -0.0898,-0.0898 0.26934,0.26934 0.12697,0.12697 0.41172,-0.12697 0.53869,0 0.0635,0.0635 -0.0635,0.20586 0,0.26934 0.0635,0.0635 0.20585,-0.0635 0.26934,0 0.0635,0.0635 -0.0635,0.20586 0,0.26934 0.0648,0.0648 1.01255,-0.0648 1.07736,0 0.0635,0.0635 -0.0635,0.20586 0,0.26934 0.0635,0.0635 0.17956,0 0.26934,0 0.53868,0 1.07737,0 1.61605,0 0.12699,0 1.3345,0.0122 1.3467,0 0.0635,-0.0635 0,-0.17956 0,-0.26934 0,-0.0898 0,-0.17956 0,-0.26934 0,-0.71824 -0.0898,0.0898 0.26934,-0.26934 0.13467,-0.13467 -0.13467,-0.67335 0,-0.80802 0.0635,-0.0635 0.20586,0.0635 0.26934,0 0.0635,-0.0635 -0.0635,-0.20586 0,-0.26934 0.0635,-0.0635 0.20586,0.0635 0.26935,0 0.009,-0.009 0,-0.7427 0,-0.80803 0,-0.0898 0,-0.17956 0,-0.26934 0,-0.0898 -0.0898,-0.26934 0,-0.26934 0.0898,0 0,0.35912 0,0.26934 0,-0.17956 0.0803,-0.37808 0,-0.53868 -0.0803,-0.1606 -0.41172,0.12697 -0.53869,0 -0.0635,-0.0635 0.0635,-0.20586 0,-0.26934 -0.0635,-0.0635 -0.20585,0.0635 -0.26934,0 -0.0635,-0.0635 0.0635,-0.20586 0,-0.26934 -0.12697,-0.12697 -0.41171,0.12697 -0.53868,0 -0.0635,-0.0635 0.0635,-0.20586 0,-0.26934 -0.0635,-0.0635 -0.18242,-0.0225 -0.26934,0 -0.32441,0.0839 -0.6361,0.21096 -0.95416,0.31644 z"
       id="path2250"
       inkscape:connector-curvature="0" />
  </g>
</svg>
